<svg xmlns="http://www.w3.org/2000/svg">
<defs>
<font id="UTMAndrogyne" horiz-adv-x="1427" >
  <font-face 
    font-family="UTM Androgyne"
    font-weight="400"
    font-stretch="normal"
    units-per-em="2048"
    panose-1="2 4 6 3 5 5 6 2 2 4"
    ascent="1638"
    descent="-410"
    x-height="1112"
    cap-height="1587"
    bbox="-315 -438 4942 2498.48"
    underline-thickness="109"
    underline-position="-251"
    unicode-range="U+0020-2026"
  />
<missing-glyph horiz-adv-x="5040" 
d="M3351 2045h10q37 -10 37 -52q0 -12 -32 -57h-28q0 24 28 54l2 10q-5 13 -10 15h-9q-8 0 -10 -19h-30q6 49 42 49zM2019 2016l29 -31q0 -16 -40 -30h-19l-59 12l-11 -12l-28 25q11 29 43 29h11l42 -11h2q10 0 30 18zM468 1980h142v-60h-94v-75h89v-59h-89v-129l-5 -5h-49
v323zM1155 1980h43l6 -5v-78h30v-52h-30v-188l-6 -5h-49v193h-25v52h25v78zM1621 1980h42l4 -5v-94h3q23 24 54 24h2q58 0 83 -71l2 -39v-143h-52v115q0 80 -42 80h-7q-43 0 -43 -86v-109h-51v323zM2200 1980h49l5 -5v-222q10 -51 45 -51q44 7 44 59v214l5 5h49v-216
q0 -85 -66 -112q-15 -8 -35 -8q-47 0 -82 55q-14 24 -14 57v224zM2435 1980h159v-60h-56v-268h-53v268h-55v55zM2621 1980h71q7 -4 83 -251h2l80 251h73v-328h-54v242h-2l-74 -242h-44q-4 0 -58 182l-19 60h-3v-242h-55v328zM3760 1980h52v-328h-45l-5 5v11l3 2l-3 14
q-29 -40 -78 -40q-67 0 -100 91l-5 39v3q0 94 92 125l23 3q35 0 63 -32h3v107zM2057 1928h36l4 -6v-49h-45v-221h-48v23q-23 -31 -59 -31q-89 14 -89 97v156h51v-104q0 -79 26 -86l18 -5h6q26 0 39 36l3 26v133h53v25zM3476 1928v-55h-31v-221h-47v25h-2q-15 -33 -57 -33
q-68 0 -86 78l-3 29v146h52v-120q0 -50 19 -68l21 -7h9q42 0 42 69v126h27q4 0 4 28l3 3h49zM758 1905q68 0 103 -77q9 -18 12 -54q0 -88 -90 -127l-32 -3q-63 0 -101 73q-12 22 -12 52v10q0 94 101 126h19zM1011 1905h3q74 0 83 -101v-152h-51v119q0 76 -42 76h-5
q-44 0 -44 -76v-119h-52v245h46v-21q30 29 62 29zM1466 1905h7q72 0 105 -89h-60q-16 31 -42 31h-17q-53 -14 -53 -61l-3 -15q12 -69 61 -69h9q22 0 47 27h40l2 3h3l2 -3l2 3l3 -3l2 3l2 -7q-33 -81 -110 -81q-76 0 -110 94l-4 36v3q0 85 77 120q15 8 37 8zM3141 1905h2

<glyph glyph-name=".notdef" horiz-adv-x="5040" 
d="M3351 2045h10q37 -10 37 -52q0 -12 -32 -57h-28q0 24 28 54l2 10q-5 13 -10 15h-9q-8 0 -10 -19h-30q6 49 42 49zM2019 2016l29 -31q0 -16 -40 -30h-19l-59 12l-11 -12l-28 25q11 29 43 29h11l42 -11h2q10 0 30 18zM468 1980h142v-60h-94v-75h89v-59h-89v-129l-5 -5h-49
v323zM1155 1980h43l6 -5v-78h30v-52h-30v-188l-6 -5h-49v193h-25v52h25v78zM1621 1980h42l4 -5v-94h3q23 24 54 24h2q58 0 83 -71l2 -39v-143h-52v115q0 80 -42 80h-7q-43 0 -43 -86v-109h-51v323zM2200 1980h49l5 -5v-222q10 -51 45 -51q44 7 44 59v214l5 5h49v-216
q0 -85 -66 -112q-15 -8 -35 -8q-47 0 -82 55q-14 24 -14 57v224zM2435 1980h159v-60h-56v-268h-53v268h-55v55zM2621 1980h71q7 -4 83 -251h2l80 251h73v-328h-54v242h-2l-74 -242h-44q-4 0 -58 182l-19 60h-3v-242h-55v328zM3760 1980h52v-328h-45l-5 5v11l3 2l-3 14
q-29 -40 -78 -40q-67 0 -100 91l-5 39v3q0 94 92 125l23 3q35 0 63 -32h3v107zM2057 1928h36l4 -6v-49h-45v-221h-48v23q-23 -31 -59 -31q-89 14 -89 97v156h51v-104q0 -79 26 -86l18 -5h6q26 0 39 36l3 26v133h53v25zM3476 1928v-55h-31v-221h-47v25h-2q-15 -33 -57 -33
q-68 0 -86 78l-3 29v146h52v-120q0 -50 19 -68l21 -7h9q42 0 42 69v126h27q4 0 4 28l3 3h49zM758 1905q68 0 103 -77q9 -18 12 -54q0 -88 -90 -127l-32 -3q-63 0 -101 73q-12 22 -12 52v10q0 94 101 126h19zM1011 1905h3q74 0 83 -101v-152h-51v119q0 76 -42 76h-5
q-44 0 -44 -76v-119h-52v245h46v-21q30 29 62 29zM1466 1905h7q72 0 105 -89h-60q-16 31 -42 31h-17q-53 -14 -53 -61l-3 -15q12 -69 61 -69h9q22 0 47 27h40l2 3h3l2 -3l2 3l3 -3l2 3l2 -7q-33 -81 -110 -81q-76 0 -110 94l-4 36v3q0 85 77 120q15 8 37 8zM3141 1905h2
q49 0 70 -60v-14h-52q0 16 -16 16h-4q-14 0 -19 -13v-13q0 -9 68 -35q30 -19 30 -59q0 -58 -61 -80l-23 -3q-76 12 -76 83h54q0 -20 27 -25h4q19 0 24 23q0 22 -68 44q-34 27 -34 59q0 66 74 77zM4203 1905q55 0 77 -63q7 -18 7 -65v-125h-52v112q0 83 -40 83h-11
q-33 0 -40 -54v-141h-52v5h-2l2 2v238h47v-21q25 29 64 29zM4432 1905h5q40 0 69 -40v18l-3 3l3 11h47v-208q0 -97 -85 -132l-33 -4h-7q-70 0 -104 80h59q24 -22 45 -23h13q22 0 43 22q15 13 22 52h-3q-32 -40 -73 -40q-57 0 -96 70q-10 18 -14 63q0 88 87 125zM3851 1897
h53v-136q6 -59 40 -59h7q46 0 46 93v102h51v-245h-47l-3 10h3l-3 3v5l3 2v3h-4q0 -23 -57 -31h-3q-59 0 -84 75l-2 85v93zM690 1771q10 -69 63 -69h7q59 14 59 65v15q-13 65 -59 65h-5q-58 0 -65 -76zM3630 1774q13 -72 61 -72h5q58 0 66 75q0 49 -51 70h-22q-37 0 -56 -57z
M4374 1774q8 -72 65 -72h5q59 12 59 72q0 61 -59 73h-14q-56 -16 -56 -62v-11zM3928 1620h52v-57h-52v57zM1054 1402q43 -11 43 -49v-4q0 -17 -32 -60h-28q0 25 31 57v7q0 12 -7 15h-12q-10 -4 -10 -19h-28v6q0 32 33 44zM3349 1339q92 0 138 -99h-60q-37 42 -80 42
q-55 0 -87 -68q-10 -22 -10 -47q0 -78 81 -110l18 -1q36 0 75 39h61q-44 -97 -138 -97q-93 0 -141 112q-10 31 -10 62q0 97 90 152q29 15 63 15zM3664 1339q57 0 103 -47q46 -51 46 -115v-20q0 -89 -91 -146q-33 -13 -63 -13q-89 0 -138 101q-13 33 -13 60v18q0 98 98 151
q29 11 58 11zM2261 1337h2l47 -11h3q11 0 26 11l18 -36q-18 -19 -35 -19h-3l-54 10l-20 -7l-20 36q18 16 36 16zM716 1334h19q118 0 129 -26q25 -26 25 -62q-10 -57 -30 -57v-6q47 -23 47 -66v-18q0 -63 -69 -88l-54 -5h-67v328zM2550 1334h53v-217q6 -61 45 -61q29 0 44 39
l3 30v203l4 6h45l5 -6v-171q0 -118 -40 -133q-24 -26 -64 -26q-55 0 -91 76l-4 54v206zM2805 1334h59q4 0 122 -237h4v237h50l4 -6v-322h-58q-29 48 -125 238h-3v-238h-53v328zM3101 1334h54v-328h-54v328zM3859 1334h8q155 0 174 -40q23 -11 47 -75l4 -36v-11l3 -2
q0 -94 -82 -149q-35 -15 -99 -15h-55v328zM4141 1334h153v-60h-103v-75h101v-57h-101v-74l4 -5h99v-57h-157v322zM3563 1175v-10q0 -76 79 -108l19 -1q68 0 96 86l3 20v15q0 61 -60 94q-12 8 -39 11q-66 0 -96 -83zM770 1274v-67h9q54 0 54 28l3 14q-11 25 -29 25h-37z
M3912 1274v-206l2 -3v-2q104 0 122 76l2 15v29q0 34 -32 68q-25 23 -78 23h-16zM1041 1259h5q38 0 71 -40v32h49v-245h-49v32q-36 -40 -80 -40q-75 0 -101 97l-5 36q0 89 85 125zM1314 1259h3q74 0 83 -102v-151h-51v128q0 67 -42 67h-10q-34 0 -39 -62v-133h-52v245h47v-21
q28 29 61 29zM1543 1259h5q45 0 71 -40v32h47v-219q0 -95 -104 -126h-16q-74 0 -108 82h59q26 -25 44 -25h14q52 0 64 77q-33 -42 -76 -42q-60 0 -101 81l-7 44v16q0 79 85 117zM1912 1259h2q43 0 61 -37h2q32 37 69 37h4q57 0 79 -55q8 -25 8 -45v-153h-52v138q0 44 -23 55
l-12 2h-15q-32 0 -36 -65v-130h-52v136q0 59 -43 59h-8q-32 0 -36 -57v-138h-54v245h50v-21h2q6 24 54 29zM2282 1259q47 0 75 -42v34h47v-245h-47v32q-36 -40 -78 -40q-74 0 -102 92l-6 41q0 90 85 125zM985 1117q0 -48 61 -61h4q45 0 62 46l3 15v22q-12 62 -57 62h-14
q-41 0 -59 -57v-27zM1487 1128q0 -48 43 -68l18 -4h5q47 0 63 57v23q-11 65 -58 65h-12q-50 0 -59 -73zM2225 1131v-14q15 -61 57 -61h14q58 12 58 64v11q0 45 -37 65l-18 5h-10q-64 -8 -64 -70zM770 1150v-82q0 -5 7 -5q77 0 77 45q0 34 -47 42h-37zM2966 753l24 -28
l-51 -55q-18 12 -27 26zM1524 727l85 -54q0 -15 -21 -42l-87 54q18 41 23 42zM2850 693h38l55 -60h-54l-21 26l-23 -26h-54q54 60 59 60zM3422 693h40l56 -60h-54l-24 26h-1q0 -5 -19 -26h-54zM622 685h52q8 -4 47 -137l34 -110q9 8 34 100l48 147h54v-2l-112 -326h-44z
M1159 685h51v-54h-51v54zM1354 685h46l6 -5v-323h-52v328zM2317 685h45l4 -5v-78h31v-52h-31v-193h-53v193h-26v52h26v78zM2425 685h52v-98h2q23 23 54 23h3q57 0 81 -71l3 -38v-144h-52v115q0 81 -39 81h-10q-42 0 -42 -87v-109h-52v328zM2664 685h52v-54h-52v54zM3028 685
h44l6 -5v-78h29v-52h-29v-193h-54v193h-27v52h27v78zM3234 685h52v-328h-52v328zM3957 685h52v-328h-52v328zM4316 685h51v-54h-51v54zM1555 610h5q83 0 110 -102l3 -23v-11q0 -83 -85 -120l-35 -5q-76 0 -111 97l-4 32q0 97 93 130zM1811 610h4q53 0 78 -60q7 -25 7 -81
v-112h-54v146q-7 50 -37 50h-10q-38 0 -42 -57v-139h-54v245h49v-21q26 29 59 29zM2046 610h4q45 0 63 -39h3v31h49v-206q0 -102 -89 -135l-28 -3h-5q-73 0 -106 81h52l37 -20l15 -3h14q50 0 61 72q-33 -39 -73 -39q-62 0 -98 76q-11 23 -12 60q0 85 86 123zM2866 610h2
q82 0 111 -104l2 -25l-2 -27h-172q15 -45 45 -45l14 -3q29 0 49 22h57v-3q-35 -76 -108 -76q-77 0 -111 97l-1 28v8q0 49 32 89q34 39 82 39zM3429 610h5q41 0 70 -39h2v31h47v-245h-47v31h-2q-35 -39 -77 -39q-71 0 -101 89l-5 36v14q0 86 84 120zM3711 610h7
q88 0 107 -128l-2 -1v-15q0 -65 -66 -106q-21 -11 -46 -11q-34 0 -64 32v-99l-5 -5h-49v325h49v-28q31 36 69 36zM4151 610q44 0 75 -39v31h49v-245h-49v31q-35 -39 -77 -39q-92 0 -108 132q0 84 73 121q15 8 37 8zM922 602h50v-136q3 -60 42 -60h5q44 0 44 87v109h52v-245
h-47v24h-5q0 -23 -56 -32h-3q-55 0 -82 68q-4 35 -4 99v81zM1159 602h51v-245h-51v245zM2664 602h52v-245h-52v245zM4316 602h51v-245h-51v245zM1492 488v-16q13 -66 59 -66h4q59 0 66 76q-13 71 -59 71h-11q-59 -16 -59 -65zM1987 472q15 -66 59 -66h11q48 0 59 75v1
q-13 71 -59 71h-14q-39 0 -56 -57v-24zM2805 506h122v2q-16 45 -59 45h-7q-35 0 -56 -47zM3373 474q13 -68 61 -68h5q52 0 65 63v12q-10 72 -57 72h-16q-56 -14 -56 -63zM3642 478q12 -72 61 -72h3q50 0 65 60v22q0 43 -49 65h-22q-47 0 -58 -72v-3zM4095 472q10 -66 66 -66
q43 0 61 48l2 15v16q0 54 -52 68h-18q-42 0 -59 -60v-21zM3416 321h51v-52h-51v52zM4137 321h51v-52h-51v52zM2733 133h4q35 0 43 -50v-2q0 -16 -24 -41l-10 -17h-28q0 25 28 56l3 2v2q-3 19 -9 19h-10q-8 0 -9 -19h-30q6 50 42 50zM1546 116l52 -60l-26 -19l-52 52zM352 79
h4q75 -48 85 -60l-20 -37q-88 49 -88 58zM3490 79l86 -58l-18 -39q-10 0 -91 55q15 36 23 42zM4578 76l19 -42l-91 -52l-20 39l92 58v-3zM1204 53h51v-19l5 -5h14v-36h-14l-5 -5v-279h-46v31q-34 -40 -81 -40q-72 0 -102 105l-3 26q0 102 101 131h14q33 0 66 -33v59l-6 5
h-43v36h49v24zM1480 45h40l56 -61h-53l-23 27l-23 -27h-53zM2641 45h33q12 0 63 -61h-54l-23 27q-19 -21 -19 -27h-58v4zM49 37h160v-60h-56v-268h-50l-4 5v245l2 3v2l-2 2l2 3l-2 2l2 3l-2 3h-54v54zM699 37h47v-73l2 -2l-2 -3v-3l2 -2l-2 -3v-3l2 -2v-2l-2 -3l2 -3h3
q17 24 51 24h3q53 0 77 -58q7 -17 7 -42v-153h-52v127q0 68 -40 68h-8q-43 0 -43 -86v-109h-52v322zM1297 37h47l5 -6v-49h-52v55zM1987 37h52v-198l70 115h62l-78 -118l90 -125v-2h-70q-10 22 -74 115v-115h-52v328zM2271 37v-99q24 24 53 24q57 0 80 -56q10 -19 10 -77
v-120h-54v133q0 62 -41 62h-11q-31 0 -37 -55v-140h-53v314l-1 3v3l1 2l-1 3l1 3h53zM2458 37h51v-55h-51v55zM3148 37h51v-108q27 33 68 33h3q75 0 105 -94l5 -37q0 -75 -64 -120q-30 -11 -49 -11q-41 0 -72 40v-31h-47v328zM4275 37h52v-99h2q23 24 54 24h3q60 0 82 -74
l2 -41v-138h-52v111q0 82 -32 82l-10 2h-12q-37 0 -37 -80v-115h-52v328zM329 -38h3v-58h-5q-42 0 -42 -57v-138h-53v245h47v-21q18 29 50 29zM564 -38q71 0 86 -87v-166h-51v136q-6 59 -41 59h-6q-45 0 -45 -84v-111h-52v245h50v-21q25 29 59 29zM1504 -38q72 0 105 -94
l5 -39q-2 -24 -7 -24h-169q17 -47 62 -47q24 0 48 21h57q-33 -79 -108 -79q-82 0 -113 105v37q0 81 89 117zM2657 -38h5q77 0 107 -97l3 -26v-21l-3 -13h-170q18 -47 53 -47h12q21 0 42 21h59q-34 -79 -105 -79q-84 0 -115 102l-2 29q0 93 91 128zM2915 -38h4q54 0 78 -60
q7 -25 7 -82v-111h-54v138q0 48 -35 57h-11q-38 0 -43 -57v-138h-54v245h50v-21q25 29 58 29zM3508 -38h6q40 0 70 -40h2v32h47v-245h-47v31h-2q-34 -40 -78 -40q-71 0 -101 90l-4 37v12q0 82 77 117q11 6 30 6zM3781 -38h4q62 0 82 -78l3 -84v-91h-54v138q0 48 -38 57h-9
q-38 0 -42 -52v-143h-54v245h49v-21q26 29 59 29zM4133 -38h1q74 0 104 -93l4 -40q0 -88 -84 -126l-25 -3q-41 0 -68 34v-106h-52v326h47v-29q30 37 73 37zM4714 -38h5q34 0 63 -37q27 37 69 37h6q56 0 79 -66l6 -51v-136h-52v122q0 73 -39 73h-7q-35 0 -41 -50v-140l-5 -5
h-48v140q0 42 -31 55h-17q-40 0 -40 -77v-118h-51v245h47v-21q22 29 56 29zM359 -46h49l5 -6v-234l-5 -5h-49v245zM1297 -46h52v-245h-52v245zM1649 -46h52v-136q4 -60 43 -60h4q44 0 44 81v115h52v-245h-47v24h-5q-12 -33 -59 -33q-52 0 -79 63q-5 12 -5 34v157zM2458 -46
h51v-245h-51v245zM4515 -46h51v-245h-51v245zM1077 -169q0 -53 51 -73h12q54 0 66 66v10q0 53 -54 70h-17q-38 0 -58 -57v-16zM1438 -143h122q-18 47 -53 47h-7q-43 0 -62 -44v-3zM2599 -143h122q-21 47 -54 47h-7q-46 0 -61 -47zM3196 -158v-11q10 -73 61 -73h5q64 8 64 71
v5q0 45 -38 65l-18 5h-14q-60 -14 -60 -62zM3452 -173q14 -69 62 -69h11q41 0 59 60v13q-8 73 -56 73h-17q-47 0 -59 -73v-4zM4062 -158v-22q0 -47 59 -62h9q50 0 61 76q-13 70 -58 70h-15q-56 -17 -56 -62z" />
    <glyph glyph-name=".null" horiz-adv-x="0" 
 />
    <glyph glyph-name="nonmarkingreturn" horiz-adv-x="571" 
 />
    <glyph glyph-name="space" unicode=" " horiz-adv-x="561" 
 />
    <glyph glyph-name="exclam" unicode="!" horiz-adv-x="694" 
d="M756 1393l-172 -691q-50 -204 -50 -245q0 -27 6 -51q-45 -5 -65 -5q-158 0 -170 88q0 70 14 142l82 397q22 115 35 202q16 100 20 163q6 78 -12 157q118 43 188 43q133 0 133 -116q0 -39 -9 -84zM483 23q-85 -58 -180 -58q-109 0 -109 92q0 33 10 76q10 42 10 55v13
q0 7 -2 14q90 43 160 43q137 0 137 -117q0 -22 -26 -118z" />
    <glyph glyph-name="quotedbl" unicode="&#x22;" horiz-adv-x="798" 
d="M616 1528q0 -15 -2 -23q-8 -48 -67 -174l-48 -109q-22 -53 -35 -75q-32 -57 -87 -57q-72 0 -72 53q0 18 9 68l10 50l11 54l20 107q9 55 9 81q0 11 -6 27q91 47 193 47q65 0 65 -49zM991 1528q0 -15 -2 -23q-8 -48 -68 -174l-47 -109q-23 -53 -35 -75q-33 -57 -88 -57
q-71 0 -71 53q0 18 9 68l10 50l10 54l21 107q9 55 9 81q0 11 -6 27q91 47 193 47q65 0 65 -49z" />
    <glyph glyph-name="numbersign" unicode="#" horiz-adv-x="1318" 
d="M1177 1135h45q87 0 176 28q-17 -119 -88 -161q-59 -35 -200 -35l-136 -377h54q111 0 209 47q-28 -134 -108 -181q-64 -36 -210 -36q-42 -130 -63 -212q-25 -96 -25 -140q0 -41 8 -68q-74 -23 -125 -23q-86 0 -86 70q0 50 30 152q13 44 33 104q16 45 42 119h-225
q-115 -265 -115 -432q-59 -13 -105 -13q-90 0 -90 64l2 18q2 12 2 23q33 126 123 340h-43q-113 0 -182 -33l13 53l13 44q14 41 39 62q50 44 230 44l145 375h-51q-139 0 -219 -31q34 136 97 170q55 31 241 31q92 233 92 348q0 23 -6 45q64 12 119 12q80 0 80 -67
q0 -49 -35 -151l-74 -189h209l88 230q39 102 55 134q64 35 131 35t82 -53q-64 -112 -172 -346zM716 967q-16 -42 -36 -98l-105 -279h215q22 66 55 154q40 110 86 223h-215z" />
    <glyph glyph-name="dollar" unicode="$" horiz-adv-x="1159" 
d="M1058 1308q-27 32 -45 48q-49 43 -129 51l-94 -512q78 -54 126 -92q63 -50 103 -96q96 -108 96 -228q0 -198 -152 -333q-148 -132 -372 -148l-5 -50q-3 -26 -3 -44q0 -6 2 -15q2 -11 6 -22q-41 -33 -80 -33q-21 0 -43 5q-28 7 -39 18q9 65 21 139q-141 7 -249 66
q-128 70 -128 178q0 132 154 219q-4 -75 56 -163q75 -109 200 -132l100 551q-139 88 -206 170q-81 98 -81 209q0 190 133 321q130 129 342 152l7 71q0 45 -5 66q20 22 97 22q53 0 53 -73q0 -14 -4 -37l-6 -43q55 -4 99 -11q58 -10 99 -26q107 -42 107 -125q0 -38 -38 -91
q-30 -40 -71 -75zM669 985l76 424q-199 -28 -199 -229q0 -116 123 -195zM704 631l-64 -360q-11 -62 -20 -113q239 28 239 239q0 115 -155 234z" />
    <glyph glyph-name="percent" unicode="%" horiz-adv-x="1794" 
d="M1765 557q0 -229 -137 -397q-144 -176 -357 -176q-266 0 -266 260q0 234 149 419q156 191 369 191q242 0 242 -297zM1501 271q57 118 57 245q0 72 -20 121q-27 63 -82 63q-98 0 -172 -146q-68 -132 -68 -267q0 -154 119 -154q99 0 166 138zM664 172q54 93 129 203
l141 201l143 196q293 407 610 789q-45 65 -108 65q-35 0 -107 -39q-91 -48 -209 -72q-92 -18 -176 -18q-188 0 -301 139q-96 -87 -96 -166q0 -48 82 -92l3 -44l1 -46q0 -139 -57 -263q-66 -144 -166 -144q-113 0 -113 159q0 117 43 223q48 118 131 169q-18 39 -48 53
q-20 8 -56 8q-119 0 -205 -177q-74 -153 -74 -296q0 -293 266 -293q203 0 346 181q136 170 136 384l-1 10q0 8 -2 19q31 -10 78 -10q64 0 143 24q55 17 152 58l-110 -148q-42 -57 -101 -135l-575 -760q-52 -69 -82 -115q-78 -116 -86 -184q0 -65 162 -82q43 96 107 203z" />
    <glyph glyph-name="ampersand" unicode="&#x26;" horiz-adv-x="1073" 
d="M1240 344q2 1 5 3l13 8q18 12 13 -3q-22 -63 -81 -101q-21 -14 -51 -27l-48 -19q-42 -13 -131 8q-95 22 -147 63q-91 -108 -187 -182q-107 -84 -221 -125q-89 -30 -149 -30q-150 0 -150 172q0 239 305 495q-69 60 -69 166q0 138 106 258q100 113 252 164q40 14 74 14
q35 0 61 -16q42 -23 45 -72q15 -84 -69 -216q-76 -118 -197 -226q106 -116 242 -205q46 83 75 167q33 94 33 161q-2 29 -11 47q-8 13 -20 20q-7 4 -18 5q-8 2 -8 4q0 7 14 19q12 11 32 23q41 23 68 31q95 34 95 -57q0 -20 -5 -49l-10 -49q-11 -84 -63 -190
q-45 -94 -109 -181l50 -29q43 -25 76 -40q106 -47 169 -21q6 2 16 10zM530 866q0 -81 41 -125q190 184 186 310q-3 65 -92 34q-135 -43 -135 -219zM625 204q54 44 110 115q-74 46 -135 97q-76 63 -136 135q-137 -153 -137 -307q0 -131 94 -131q27 0 64 12q74 24 140 79z" />
    <glyph glyph-name="quotesingle" unicode="'" horiz-adv-x="460" 
d="M633 1528q0 -15 -2 -25q-7 -47 -67 -184l-48 -116q-22 -57 -35 -80q-32 -60 -89 -60q-78 0 -78 57q-1 20 7 73q4 21 9 52l29 170q9 59 8 86q0 7 -3 15l-5 14q96 51 202 51q69 0 72 -53z" />
    <glyph glyph-name="parenleft" unicode="(" horiz-adv-x="821" 
d="M616 1147q-159 -303 -172 -641q0 -491 244 -574q-86 -110 -180 -110q-156 0 -247 192q-83 173 -83 422q0 463 272 840q247 319 433 319q68 0 108 -55q-226 -111 -375 -393z" />
    <glyph glyph-name="parenright" unicode=")" horiz-adv-x="786" 
d="M527 145q-250 -319 -435 -319q-66 0 -106 55q242 132 395 449q152 309 152 635q0 450 -246 524q86 110 180 110q159 0 250 -198q80 -174 80 -416q0 -461 -270 -840z" />
    <glyph glyph-name="asterisk" unicode="*" horiz-adv-x="1019" 
d="M815 1075q0 -58 -34 -96q-7 -9 -19 -18l-104 28q-14 4 -25 7q-29 7 -53 12q59 -93 76 -160q21 -73 -43 -94q-57 -18 -103 2q-11 3 -22 12l-3 60q0 12 -1 23q-3 60 -7 103q-65 -78 -129 -120q-65 -40 -102 12q-34 45 -31 98q0 5 2 12l2 13l177 69q-101 39 -156 84
q-58 51 -21 103q31 45 84 57l13 3q7 1 14 1l51 -65q38 -48 68 -80q5 101 30 174q29 72 93 51q57 -19 80 -61q3 -4 6 -11l6 -14q-7 -11 -20 -31l-53 -80l-28 -47q97 27 175 23q77 -4 77 -70z" />
    <glyph glyph-name="plus" unicode="+" horiz-adv-x="1107" 
d="M1050 561q-19 -60 -123 -81q-44 -9 -107 -12q-48 -3 -122 -3q-13 -63 -20 -98l-16 -84q-13 -82 -13 -129q0 -36 6 -64q-65 -14 -105 -14q-123 0 -123 59q0 62 22 157q9 38 22 86q11 36 26 87h-88q-155 0 -256 -33q16 79 37 133q25 61 127 82q43 9 104 12q45 3 119 3
q24 99 36 171q15 86 15 142q0 20 -4 53q61 14 98 14q121 0 121 -65q0 -48 -23 -147l-11 -42l-31 -126h55q190 0 293 28q-16 -78 -39 -129z" />
    <glyph glyph-name="comma" unicode="," horiz-adv-x="608" 
d="M359 -129q-70 -65 -148 -109q-95 -53 -167 -53q-24 0 -49 17q-31 20 -31 53q0 6 3 14q4 11 5 14q250 44 250 246q0 34 -17 75q-12 27 -34 65q78 77 213 77q125 0 125 -116q0 -146 -150 -283z" />
    <glyph glyph-name="hyphen" unicode="-" horiz-adv-x="712" 
d="M751 702q-34 -126 -104 -162q-50 -26 -191 -26h-60q-71 0 -150 -14l-40 -8q-6 -1 -11 -2q-23 -5 -32 -5q0 24 12 52q51 123 92 160q37 32 115 32q15 1 41 1l117 -1q121 0 205 23q12 -22 6 -50z" />
    <glyph glyph-name="hyphen" unicode="&#x2010;" horiz-adv-x="712" 
d="M751 702q-34 -126 -104 -162q-50 -26 -191 -26h-60q-71 0 -150 -14l-40 -8q-6 -1 -11 -2q-23 -5 -32 -5q0 24 12 52q51 123 92 160q37 32 115 32q15 1 41 1l117 -1q121 0 205 23q12 -22 6 -50z" />
    <glyph glyph-name="period" unicode="." horiz-adv-x="581" 
d="M432 10q-84 -45 -164 -45q-105 0 -115 82v31l20 106q3 14 3 23l-1 12q0 7 -2 12q87 45 160 45q135 0 135 -116q0 -56 -36 -150z" />
    <glyph glyph-name="slash" unicode="/" horiz-adv-x="915" 
d="M1219 1587q-87 -81 -246 -329q-154 -240 -334 -568q-329 -621 -369 -846l-135 -4q-127 0 -96 86q14 52 122 261q47 94 119 228q60 114 148 279q311 584 457 779q61 68 103 92q54 30 134 30q18 0 45 -2z" />
    <glyph glyph-name="zero" unicode="0" horiz-adv-x="1245" 
d="M1095 336q-107 -179 -248 -277q-154 -108 -334 -108q-202 0 -299 128q-88 115 -88 331q0 442 214 803q108 184 250 286q155 111 331 111q211 0 305 -134q82 -117 82 -352q-7 -442 -213 -788zM967 1352q-42 88 -136 88q-164 0 -282 -313q-112 -299 -122 -705
q0 -143 35 -219q41 -90 131 -90t169 97q72 89 128 248q108 306 115 675q0 144 -38 219z" />
    <glyph glyph-name="one" unicode="1" horiz-adv-x="1042" 
d="M774 193q-45 -5 -76 -5l291 1246q8 30 8 57q0 58 -57 125q-59 -22 -142 -37q-71 -14 -158 -22q-72 -7 -150 -10q-63 -3 -121 -3q-31 -74 -31 -160q0 -108 82 -81q114 38 266 63q-119 -539 -256 -1092q-9 -37 -25 -75q-49 -4 -86 -4q-28 0 -76 7l-71 13q-41 -65 -41 -129
q6 -50 57 -76q44 -22 105 -20l186 4h209q64 0 101 -5q56 -7 96 -28q49 85 49 127q0 112 -160 105z" />
    <glyph glyph-name="two" unicode="2" horiz-adv-x="1245" 
d="M244 269q85 72 153 135q79 74 145 144q73 77 133 154q129 165 195 292q72 140 73 243q0 71 -55 121q-53 49 -125 49q-184 0 -295 -162l-32 -30q-19 -16 -38 -21q-47 77 -47 139q0 120 159 200q150 75 351 75q394 0 394 -326q0 -172 -156 -397q-90 -133 -244 -297
q-16 -18 -74 -76l-155 -152q0 -1 -2 -2q-1 -1 -1 -2l-149 -147l195 -4q38 0 79 1l70 3q53 3 103 14q39 8 80 21l16 6l22 7q5 2 7 3l12 4q26 8 37 8q9 0 13 -19l3 -40q0 -139 -38 -189q-42 -55 -158 -55l-148 4q-16 1 -25 1q-64 3 -109 4q-64 2 -118 2q-45 0 -100 -2
l-264 -11q-11 1 -18 1q-18 2 -23 7q-13 13 -22 55q-7 36 -7 66t8 43z" />
    <glyph glyph-name="three" unicode="3" horiz-adv-x="1187" 
d="M618 705q92 0 150 -73q53 -67 53 -159q0 -142 -103 -239q-104 -99 -263 -99q-195 0 -306 160q-59 -96 -59 -191q0 -151 348 -151q274 0 476 156q214 166 214 417q0 135 -80 222q-89 92 -215 90q-4 0 -4 4l91 49q45 24 78 45q79 49 126 100q107 116 107 267
q0 305 -416 305q-184 0 -301 -58q-125 -62 -125 -172q0 -26 29 -69q10 -16 26 -37l27 -33q89 182 293 182q180 0 180 -176q0 -121 -126 -212q-51 -37 -124 -70q-58 -26 -135 -52l-79 -23q-43 -15 -71 -30q-69 -39 -69 -104q0 -36 20 -80q126 31 258 31z" />
    <glyph glyph-name="four" unicode="4" horiz-adv-x="1263" 
d="M1182 657q69 0 69 -57q0 -79 -94 -182q-93 26 -190 28l-41 -205q-15 -82 -15 -124q0 -52 23 -101q-106 -49 -189 -49q-118 0 -118 103q0 50 24 174q9 44 23 107l22 100q-76 0 -169 -5l-286 -20q-60 -4 -83 -4q-68 0 -68 123q0 24 8 43q44 108 174 275q117 152 279 321
l121 122q66 65 126 117q142 124 273 201q141 0 141 -74q0 -28 -10 -91l-10 -56q-7 -38 -10 -55l-172 -697l72 1zM741 647q17 70 41 158l89 315q23 85 38 144q-153 -132 -350 -332q-152 -152 -252 -299z" />
    <glyph glyph-name="five" unicode="5" horiz-adv-x="1230" 
d="M567 770q126 0 197 -68q84 -74 84 -190q0 -184 -107 -285q-102 -98 -278 -98q-115 0 -205 49q-33 18 -67 46l-54 46q-47 -84 -47 -159q0 -85 95 -125q81 -33 229 -33q315 0 526 176q215 180 215 455q0 194 -121 298q-113 97 -307 97q-110 0 -176 -14q26 89 61 194
q15 45 32 97q14 41 34 98q74 -11 203 -11q185 0 281 52q118 64 161 231l-16 3h-16q-18 -2 -52 -13q-67 -21 -184 -35q-99 -12 -162 -12q-166 0 -352 22l-229 -745q-11 -37 -13 -47q-16 -45 90 -45q29 0 64 3l28 4l23 3q10 4 31 5z" />
    <glyph glyph-name="six" unicode="6" horiz-adv-x="1245" 
d="M1241 1325q-16 14 -31 24q-21 15 -43 26q-59 28 -125 28q-184 0 -346 -198q-140 -172 -211 -417q169 144 334 144q350 0 350 -346q0 -268 -180 -452q-178 -181 -428 -181q-424 0 -424 453q0 413 255 790q127 188 287 295q175 117 365 117q202 0 213 -142q0 -87 -16 -141z
M676 729q-104 0 -222 -88q-30 -129 -30 -238q0 -130 41 -198q50 -82 161 -82q127 0 198 105q67 99 67 261q0 240 -215 240z" />
    <glyph glyph-name="seven" unicode="7" horiz-adv-x="991" 
d="M1224 1374l-220 -266q-118 -150 -222 -299q-168 -242 -264 -439q-103 -212 -103 -335q0 -39 2 -55q-68 -27 -143 -27q-174 0 -174 119q0 100 131 326q118 205 293 427l209 263q117 144 215 258q-71 -4 -173 -7q-84 -3 -182 -5q-179 -5 -231 -5q-102 0 -102 53
q5 124 82 213l408 -13q99 -3 186 -3q108 0 189 6q93 6 157 21q28 -128 -58 -232z" />
    <glyph glyph-name="eight" unicode="8" horiz-adv-x="1245" 
d="M921 848q240 -174 240 -377q0 -236 -192 -382q-177 -134 -431 -134q-436 0 -436 352q0 152 124 289q109 122 312 231q-168 143 -168 316q0 201 159 335q156 132 382 132q379 0 379 -283q0 -274 -369 -479zM854 1452q-215 0 -215 -229q0 -139 157 -279q99 71 155 154
q62 94 62 190q0 164 -159 164zM823 559q-56 77 -166 172q-122 -87 -186 -181q-72 -107 -72 -226q0 -211 199 -211q119 0 205 81q85 80 85 191q0 82 -65 174z" />
    <glyph glyph-name="nine" unicode="9" horiz-adv-x="1245" 
d="M1013 350q-131 -182 -294 -284q-178 -111 -369 -111q-211 0 -211 168q0 35 12 71q5 14 11 28l12 22l48 -40q10 -8 21 -14q55 -32 125 -32q185 0 353 202q148 178 217 418q-84 -78 -177 -116q-82 -33 -165 -33q-344 0 -344 348q0 257 179 441q180 186 431 186
q422 0 422 -474q-8 -416 -271 -780zM948 1359q-53 81 -164 81q-125 0 -193 -107q-63 -98 -63 -262q0 -233 203 -233q95 0 233 84q28 111 31 235q0 131 -47 202z" />
    <glyph glyph-name="colon" unicode=":" horiz-adv-x="581" 
d="M444 10q-84 -45 -164 -45q-105 0 -115 82v31l20 106q3 14 3 23l-1 12q0 7 -2 12q87 45 160 45q135 0 135 -116q0 -56 -36 -150zM595 821q-84 -45 -164 -45q-105 0 -114 82v31l20 106q2 14 2 23v12q-1 7 -2 12q87 45 160 45q135 0 135 -116q0 -56 -37 -150z" />
    <glyph glyph-name="semicolon" unicode=";" horiz-adv-x="608" 
d="M597 821q-84 -45 -164 -45q-105 0 -115 82v31l21 106q2 14 2 23v12q-1 7 -2 12q87 45 160 45q135 0 135 -116q0 -56 -37 -150zM359 -129q-70 -65 -148 -109q-95 -53 -167 -53q-24 0 -49 17q-31 20 -31 53q0 6 3 14q4 11 5 14q250 44 250 246q0 34 -17 75q-12 27 -34 65
q78 77 213 77q125 0 125 -116q0 -146 -150 -283z" />
    <glyph glyph-name="less" unicode="&#x3c;" horiz-adv-x="862" 
d="M626 464q85 -129 68 -253q-8 -43 -31 -64q-193 202 -453 377l-52 35q-28 19 -44 37q-41 48 -41 137q36 29 74 45q335 135 665 430q29 26 72 58q15 -10 24 -35q7 -21 5 -33q-24 -123 -165 -260q-132 -128 -345 -250q149 -112 223 -224z" />
    <glyph glyph-name="equal" unicode="=" horiz-adv-x="1191" 
d="M974 293q-133 -27 -318 -27l-157 2q-201 0 -330 -24q28 154 95 195q31 18 79 23q20 2 49 3h369q165 0 311 27q-31 -177 -98 -199zM1041 670q-129 -27 -311 -27l-153 2q-198 0 -324 -24q28 154 94 195q29 18 77 23q19 2 47 2l362 1q162 0 305 26q-28 -176 -97 -198z" />
    <glyph glyph-name="greater" unicode="&#x3e;" horiz-adv-x="862" 
d="M366 949q-85 129 -68 253q7 43 31 64q192 -201 452 -377l53 -35q28 -19 44 -37q41 -48 41 -137q-37 -29 -74 -45q-335 -135 -666 -430q-28 -26 -71 -58q-15 10 -24 35q-7 21 -5 33q24 123 165 260q132 128 345 250q-149 112 -223 224z" />
    <glyph glyph-name="question" unicode="?" horiz-adv-x="1038" 
d="M1069 1530q110 -86 110 -260q0 -164 -131 -301q-49 -46 -137 -112l-142 -105q-75 -59 -111 -105q-44 -56 -44 -106q0 -54 30 -115q-97 -66 -184 -66q-54 0 -91 53q-32 45 -32 91q0 110 84 184l21 18l169 124q43 35 78 67q89 80 136 158q59 96 59 190q0 180 -186 180
q-162 0 -224 -165q-24 -33 -51 -39q-90 65 -90 135q0 114 148 187q134 67 303 67q185 0 285 -80zM593 133q0 -12 -7 -42l-18 -71q-82 -55 -174 -55q-102 0 -102 88q0 32 9 73l2 7l5 21q2 14 2 24v13q0 7 -2 14q89 41 154 41q131 0 131 -113z" />
    <glyph glyph-name="at" unicode="@" horiz-adv-x="1835" 
d="M1288 -72q0 -31 -12 -59q-30 -60 -186 -103q-150 -42 -320 -42q-298 0 -461 142q-168 147 -168 429q0 216 93 417q89 190 249 339q334 313 770 313q296 0 464 -134q179 -142 179 -413q0 -245 -152 -440q-162 -207 -393 -207q-98 0 -169 69q-71 68 -74 167
q-185 -261 -385 -261q-172 0 -172 203q0 201 159 396q165 202 353 202q92 0 178 -57q39 45 121 45q36 0 94 -21q-148 -262 -148 -485q0 -111 84 -111q131 0 213 148q74 135 74 321q0 420 -489 420q-337 0 -585 -265q-247 -265 -247 -619q0 -443 475 -443q251 0 447 103
q8 -22 8 -54zM1073 831q-116 0 -216 -166q-91 -152 -91 -290q0 -80 61 -80q77 0 189 159q102 145 165 316q-40 61 -108 61z" />
    <glyph glyph-name="A" unicode="A" horiz-adv-x="1318" 
d="M64 -29q-104 0 -104 72q0 44 33 107q53 97 120 214l134 231l485 818l70 123q114 85 256 70q86 -10 92 -146l3 -220q0 -11 1 -24l33 -628q13 -204 43 -342q31 -148 96 -207q-115 -80 -254 -68q-111 10 -137 201q-11 69 -20 168l-13 168q-36 -29 -94 -29q-169 -6 -332 -6
q-64 -33 -96 -94q-19 -27 -45 -78l-32 -66q-6 -13 -9 -20q-27 -66 -36 -103q-14 -59 -3 -106q-95 -35 -191 -35zM845 647q12 0 27 2l24 4q-4 340 -29 660l-358 -666h336z" />
    <glyph glyph-name="B" unicode="B" horiz-adv-x="1327" 
d="M989 854q323 -65 323 -344v-10q-6 -216 -203 -371q-200 -162 -520 -162q-180 0 -332 33q-106 26 -106 152l1 35q1 21 5 38l157 659q40 173 61 272q24 120 24 157q0 27 -4 45q-4 21 -13 18q-17 -4 -38 -5l-27 -1q-9 3 -6 35q0 30 12 57q25 51 50 68q14 10 67 26
q200 54 401 54l45 -1q25 0 45 -1q422 -23 422 -330q-15 -282 -364 -424zM1005 479q0 213 -266 250q-28 6 -62 2q-20 -2 -63 -2q-13 0 -23 5q-14 6 -22 20l-57 -239q-33 -144 -48 -236l-3 -41l-1 -37q72 -63 199 -66q161 0 256 98q87 96 90 236v10zM1064 1249q0 104 -71 153
q-61 42 -176 42q-53 0 -150 -19q21 -41 21 -90q0 -44 -11 -90q-35 -166 -80 -354l83 7l81 9q293 53 303 328v14z" />
    <glyph glyph-name="C" unicode="C" horiz-adv-x="1243" 
d="M1228 1192q-58 252 -262 252q-116 0 -215 -92q-88 -81 -154 -228q-60 -131 -93 -294q-31 -152 -31 -289q0 -381 293 -381q216 0 442 215q29 -79 29 -111q0 -113 -196 -211q-195 -98 -413 -98q-483 0 -483 563q0 425 270 754q129 159 294 247q175 93 364 93q155 0 247 -49
q101 -54 101 -158q0 -129 -193 -213z" />
    <glyph glyph-name="D" unicode="D" 
d="M1318 1476q165 -140 165 -423q0 -213 -79 -415q-75 -193 -209 -345q-286 -324 -659 -324q-223 0 -399 135q-2 20 10 78l194 828q30 131 46 219q6 31 6 49q0 33 -31 50q-30 18 -30 38q0 85 47 154q104 39 228 62q135 26 261 26q294 0 450 -132zM1026 422q149 255 149 575
q0 428 -346 428q-67 0 -159 -20q14 -43 14 -94q0 -53 -25 -183q-19 -103 -59 -277l-72 -308q-20 -87 -33 -146l-28 -131q25 -110 188 -110q215 0 371 266z" />
    <glyph glyph-name="E" unicode="E" horiz-adv-x="1103" 
d="M946 1577q44 0 116 4l99 4q107 0 141 -37q-12 -83 -52 -143q-47 -70 -110 -70q-7 0 -22 8l-32 18l-49 17q-32 8 -69 8l-319 5q24 -28 24 -62v-16l-44 -203q-24 -109 -48 -207h121q92 0 193 9q86 8 170 22q0 -22 -7 -49q-30 -112 -120 -149q-39 -16 -96 -21
q-42 -4 -115 -4h-185q-27 -87 -47 -179q-26 -120 -26 -194q0 -108 81 -138q30 -11 74 -13l72 -1q70 0 146 14q57 11 122 30l94 31q42 13 58 13q0 -177 -141 -240q-62 -28 -161 -39q-80 -9 -208 -9l-285 2q-105 0 -144 50q-30 40 -30 134q0 55 14 136q11 66 31 145l72 273
q38 145 60 236q54 233 54 347v44q-2 22 -10 19q-17 -4 -38 -5l-27 -1q-9 3 -6 35q0 30 12 57q43 87 117 94q258 25 520 25z" />
    <glyph glyph-name="F" unicode="F" horiz-adv-x="1007" 
d="M692 858q126 0 243 9q128 10 179 26q0 -101 -51 -160q-42 -48 -99 -53l-144 -11q-94 -5 -173 -5l-44 -1l-44 -4l-25 -90q-80 -353 -80 -448q0 -23 11 -58q0 -3 1 -7l6 -18q3 -12 3 -20q-71 -49 -201 -49q-133 0 -133 111q0 53 23 147l55 244l72 274q38 144 59 235
q55 234 55 347v45q-2 21 -10 19q-17 -4 -38 -6l-28 -1q-9 3 -6 35q0 30 13 58q43 87 116 94q258 24 520 24q45 0 117 4l99 5q107 0 141 -37q-12 -83 -53 -144q-46 -69 -109 -69q-7 0 -22 8l-32 17l-49 18q-32 8 -69 8l-324 4q29 -32 29 -66v-16l-2 -18q-42 -215 -100 -451
h94z" />
    <glyph glyph-name="G" unicode="G" horiz-adv-x="1347" 
d="M952 57q-62 -50 -164 -75q-88 -21 -190 -21q-209 0 -334 150q-123 147 -123 389q0 441 280 775q281 335 652 335q383 0 383 -197q0 -115 -191 -213q-38 244 -288 244q-115 0 -215 -90q-90 -80 -160 -224q-135 -278 -135 -589q0 -381 247 -381q82 0 193 59q43 61 71 155
q12 40 23 92l21 101q0 49 -25 62q-53 0 -100 -21q0 109 70 136q34 12 103 18l158 8q40 2 66 -1q38 -6 39 -24q1 -19 -6 -48l-15 -54q-44 -190 -67 -308q-27 -137 -27 -194q0 -22 10 -59l4 -13q2 -8 4 -13q3 -13 3 -21q-74 -45 -211 -45q-76 0 -76 67z" />
    <glyph glyph-name="H" unicode="H" horiz-adv-x="1445" 
d="M544 586l-90 -342q-50 -193 -58 -244q-5 -39 -2 -88q-106 -64 -243 -64q-86 0 -80 68q0 49 34 154q56 165 102 320q53 181 92 345q44 186 70 348q28 180 33 330q0 53 -32 119q119 67 211 67q58 4 92 -26q33 -30 33 -92q0 -47 -21 -200l-27 -177q-18 -105 -39 -205h426
q54 0 76 6q23 57 33 105l141 618q29 141 162 129q104 -11 150 -63q-21 -21 -68 -211q-20 -81 -45 -193l-92 -441l-88 -443q-15 -76 -22 -117q-9 -58 -9 -94q0 -84 47 -150q0 -31 -103 -58q-87 -22 -145 -22q-116 0 -116 131q0 72 30 195q18 74 44 190l51 240
q-41 -16 -112 -22q-55 -5 -140 -5l-199 2q-37 0 -68 -6q-13 -36 -28 -104z" />
    <glyph glyph-name="I" unicode="I" horiz-adv-x="634" 
d="M284 696q53 227 90 400q31 141 37 247l1 34q0 19 -3 33q-9 35 -45 50q-14 3 -21 21l-3 19q0 3 10 9q132 78 260 78q75 0 108 -41q34 -38 21 -116l-180 -765l-54 -255q-15 -78 -21 -116q-10 -58 -10 -95q0 -81 48 -150q0 -30 -104 -57q-88 -23 -144 -23q-117 0 -117 131
q0 70 31 197q46 187 96 399z" />
    <glyph glyph-name="J" unicode="J" horiz-adv-x="694" 
d="M115 -76q47 49 90 146q38 91 70 235q52 209 97 397q52 222 91 404q31 142 37 248l1 34q0 20 -3 33q-9 36 -45 49q-14 6 -21 23l-4 19q1 4 10 10q130 75 261 75q77 0 108 -38q33 -39 21 -119l-234 -1020q-63 -276 -158 -445q-77 -150 -210 -235q-125 -80 -263 -80
q-225 0 -225 131q0 67 117 121q51 -57 114 -57q85 7 146 69z" />
    <glyph glyph-name="K" unicode="K" horiz-adv-x="1355" 
d="M1414 154q5 -6 0 -11q-58 -184 -237 -184q-152 0 -291 203q-224 324 -313 588q-127 -545 -127 -631q0 -15 2 -29l16 -61q-80 -60 -225 -60q-112 0 -115 84q0 58 29 164l155 592q38 159 63 297q29 157 44 305q5 52 -23 119q106 61 215 67q62 4 92 -26q31 -31 27 -92
q-5 -52 -40 -231q-20 -101 -42 -196q-25 -113 -51 -208q24 22 74 57q293 199 420 336q125 136 129 256q0 43 -9 76q93 22 134 22q120 0 120 -121q0 -125 -133 -270q-48 -51 -132 -120q-30 -25 -75 -59l-73 -58q-84 -66 -124 -104q-53 -52 -61 -85q144 -285 278 -444
q146 -172 263 -172q6 0 10 -4z" />
    <glyph glyph-name="L" unicode="L" horiz-adv-x="1105" 
d="M189 350q26 158 69 361q45 211 95 407q55 216 105 367q15 51 70 92q44 30 102 27q105 -7 184 -70q-57 -64 -78 -117q-102 -282 -181 -625q-81 -349 -81 -524q0 -23 6 -39q43 -15 115 -20q48 -4 119 -4q230 0 371 71l8 5q4 0 4 -13q-9 -195 -119 -248q-52 -25 -145 -33
q-40 -3 -96 -5l-279 -1q-87 0 -164 -1q-131 0 -131 143q0 64 26 227z" />
    <glyph glyph-name="M" unicode="M" horiz-adv-x="1849" 
d="M1603 1477q-52 -126 -188 -330l-387 -608q-25 -40 -44 -62l-22 80q-32 151 -60 289l-55 273q-54 281 -65 388q-11 96 -117 88q-109 -6 -217 -67q29 -65 24 -119l-100 -375l-246 -870q-16 -63 -16 -103q6 -90 129 -90q79 0 186 37q-26 57 -26 127q0 75 53 307l57 234
l82 311q3 14 6 24q3 13 7 23q6 -15 12 -43l170 -798q19 -78 72 -78q52 0 98 22q37 18 76 53q50 115 185 339q57 94 133 214l142 224q33 49 58 82q-10 -90 -34 -248l-65 -422q-11 -70 -18 -121q-16 -121 -16 -164q5 -127 127 -127q54 0 137 36l58 28l36 20q-61 107 -61 223
q0 117 40 391q21 143 49 293q30 167 66 324q42 176 56 256q12 66 -84 55q-170 -15 -234 -65q11 -22 -4 -51z" />
    <glyph glyph-name="N" unicode="N" horiz-adv-x="1503" 
d="M1068 -29q-54 0 -112 138l-346 890q-6 15 -17 49l-16 48q-72 -270 -133 -562q-62 -292 -62 -364q0 -97 45 -154q-115 -45 -192 -45q-123 0 -123 119q0 60 45 230l152 570q33 124 53 207q55 225 55 283q0 68 -37 117q124 94 224 94q117 0 217 -327q93 -305 174 -540
q92 -264 147 -376q28 83 62 223l57 244q46 193 71 336q27 154 27 242q0 96 -39 157q107 47 185 47q123 0 123 -137q0 -38 -7 -71l-15 -71q-14 -53 -39 -154l-175 -692q-32 -128 -54 -217q-26 -104 -40 -165q-16 -68 -19 -86q-98 -33 -211 -33z" />
    <glyph glyph-name="O" unicode="O" 
d="M1490 1085q0 -412 -254 -762q-125 -172 -282 -268q-170 -104 -352 -104q-451 0 -451 524q0 423 248 768q123 170 279 265q168 102 354 102q458 0 458 -525zM906 252q86 99 153 261q59 144 93 310q31 154 31 277q0 156 -53 242q-58 96 -174 96q-91 0 -183 -94
q-85 -85 -156 -233q-149 -308 -149 -605q0 -187 52 -287q58 -114 176 -96q112 17 210 129z" />
    <glyph glyph-name="P" unicode="P" horiz-adv-x="1224" 
d="M506 451q-43 -212 -43 -318q0 -54 20 -113q-83 -53 -223 -53q-123 0 -123 90q0 35 8 83q6 34 19 89l35 141q20 84 33 137l117 495q25 117 42 210l9 60q5 36 5 57q0 40 -34 43q-33 3 -33 39q6 83 32 105q88 45 215 71q118 25 234 25q270 0 405 -82q154 -93 154 -299
q0 -246 -195 -419q-196 -175 -479 -175q-80 0 -80 147q0 9 19 9q426 0 426 399q0 248 -297 248l-20 -2q-13 -1 -23 -2q-29 -3 -51 -9q18 -43 18 -92q0 -40 -16 -118l-90 -383q-26 -113 -44 -190z" />
    <glyph glyph-name="Q" unicode="Q" 
d="M1566 -156q16 4 12 -10q-10 -28 -43 -70q-40 -56 -98 -100q-121 -102 -238 -102q-85 9 -153 39q-24 10 -65 32l-77 39q-49 25 -124 71l-60 38q-36 22 -61 37q-68 39 -127 63q-76 29 -183 49q-98 17 -135 39q-16 13 -16 41q0 16 18 23q34 13 86 20q-143 131 -143 420
q0 423 248 768q122 170 278 265q168 102 353 102q460 0 460 -525q0 -350 -195 -672q-96 -158 -221 -268q-133 -117 -282 -163l83 -38q48 -21 83 -34l69 -26l70 -24q79 -26 146 -38q51 -10 98 -10q43 0 86 6q52 7 80 14q13 3 28 7q6 2 13 4zM781 1342q-85 -85 -156 -233
q-149 -308 -149 -605q0 -187 52 -287q58 -114 176 -96q112 17 210 129q86 99 153 261q59 144 93 310q31 154 31 277q0 155 -54 242q-58 96 -173 96q-91 0 -183 -94z" />
    <glyph glyph-name="R" unicode="R" horiz-adv-x="1370" 
d="M1244 939q-125 -132 -343 -196q71 -178 140 -305q60 -112 121 -187q51 -62 106 -103q22 -17 46 -32l44 -24q-25 -63 -98 -97q-65 -30 -146 -30q-139 0 -236 178q-128 235 -249 582q-41 4 -68 16l-62 -276q-11 -48 -18 -82q-39 -177 -39 -242q0 -33 5 -71l4 -25
q1 -13 1 -22q0 -12 -33 -23q-26 -9 -73 -16q-34 -6 -75 -10l-38 -3q-100 0 -100 90l3 36q1 22 5 40q25 110 60 257l121 498q30 128 49 220q30 147 30 211t-67 107q30 90 184 138q139 44 346 44q240 0 371 -83q139 -89 139 -263q0 -188 -130 -327zM594 891q0 -27 27 -37
q11 -4 26 -5l25 -1q184 0 293 99q110 101 110 274q0 223 -254 223q-100 0 -132 -19q-26 -16 -26 -61q14 -3 20 -13q5 -7 5 -20q0 -14 -2 -20z" />
    <glyph glyph-name="S" unicode="S" horiz-adv-x="1181" 
d="M264 322q51 -197 295 -197q286 0 286 254q0 125 -129 231l-125 96q-79 58 -120 97q-60 58 -90 117q-35 70 -35 153q0 236 184 390q177 147 426 147q141 0 221 -34q94 -40 94 -126q0 -115 -135 -176q-53 85 -110 123q-67 45 -164 45q-242 0 -242 -209q0 -87 69 -160
q35 -36 106 -93q30 -23 77 -60l94 -72q84 -76 124 -151q46 -86 46 -189q0 -239 -215 -403q-199 -152 -452 -152q-150 0 -270 54q-138 63 -138 165q0 163 199 221q-6 -33 4 -71z" />
    <glyph glyph-name="T" unicode="T" horiz-adv-x="894" 
d="M618 1378l-21 1l-61 1q-78 0 -146 -18q-51 -14 -104 -41q-27 -18 -51 -18q-4 53 -4 77q0 207 205 207l310 -3h5l297 -3q100 0 194 17l138 28q2 -7 3 -14q1 -8 1 -17q-6 -223 -207 -223l-207 8q-53 0 -63 -37l-160 -683q-32 -141 -55 -252q-19 -87 -27 -142
q-12 -75 -12 -127q0 -45 27 -114q-46 -29 -117 -45q-57 -13 -105 -13q-129 0 -129 101q0 83 33 208q7 28 43 179q38 158 79 331q48 202 79 338q38 161 45 199z" />
    <glyph glyph-name="U" unicode="U" horiz-adv-x="1439" 
d="M1025 32q-20 44 -20 134v72q0 6 -2 4q-59 -68 -108 -115q-59 -55 -115 -91q-128 -83 -272 -83q-174 0 -259 116q-71 96 -71 257q0 50 6 96q10 75 43 224l96 425q17 74 28 129q27 133 30 189q0 50 -18 84l-24 38q-4 7 -7 13q41 35 129 54q68 15 129 15q106 0 112 -92
q0 -57 -20 -166q-17 -88 -51 -228q-12 -50 -30 -124l-60 -245l-25 -111q-20 -93 -29 -148q-12 -74 -12 -125q0 -188 147 -188q142 0 291 176q40 54 74 144q27 70 57 182q56 202 107 420q56 245 74 370q1 11 -1 21l-4 20q-8 56 51 79q42 15 124 15q99 0 132 -15
q31 -15 31 -60q-1 -26 -15 -70q-2 -7 -6 -19l-2 -5l-20 -60q-44 -149 -79 -277q-42 -154 -71 -282q-34 -147 -51 -262q-20 -128 -20 -217q0 -53 6 -93q27 -158 82 -206q-115 -81 -254 -68q-75 8 -103 73z" />
    <glyph glyph-name="V" unicode="V" horiz-adv-x="1316" 
d="M425 479l-57 455q-11 95 -29 191q-16 83 -36 163q-45 155 -119 207q113 97 260 100q116 0 162 -200q18 -88 31 -187q21 -147 42 -358q20 -202 37 -430q111 177 185 298q86 141 147 248q131 230 189 380q24 58 33 101q13 58 1 105q92 35 187 35q105 0 108 -71
q0 -19 -9 -48l-21 -59q-20 -54 -69 -141q-39 -69 -103 -170l-220 -350q-107 -171 -182 -297q-168 -285 -229 -437q-6 -9 -28 -21q-21 -11 -51 -21q-66 -23 -114 -23q-52 0 -63 76q-24 216 -52 454z" />
    <glyph glyph-name="W" unicode="W" horiz-adv-x="1984" 
d="M1118 1384q-35 -99 -143 -319q-114 -233 -334 -649q1 20 2 50v58q0 110 -4 279q-4 163 -10 325q-11 273 -52 374q-37 93 -125 93q-101 0 -231 -98l26 -27q20 -26 36 -60q22 -46 35 -107q17 -74 22 -170l25 -561l20 -562q3 -60 69 -57q72 9 136 34q61 24 67 42
q28 75 58 127l299 561q37 69 62 117l45 81q18 31 20 31l54 -789l13 -147q6 -60 68 -57q71 9 136 34q60 24 69 42q15 44 54 124q33 67 88 170q22 41 52 95l292 537q23 43 41 77q46 90 77 159q82 180 84 273q0 131 -183 131q-65 0 -114 -16q18 -55 18 -113q0 -46 -8 -82
q-38 -157 -154 -415q-52 -116 -131 -278l-168 -339l-11 232l-19 640l4 220q0 91 -62 82q-66 -11 -196 -68z" />
    <glyph glyph-name="X" unicode="X" horiz-adv-x="1394" 
d="M798 1176q-27 108 -45 215q-36 213 -20 260q-297 -65 -297 -267q0 -246 156 -641q-142 -144 -291 -354q-160 -224 -160 -307q0 -86 141 -86q63 0 140 27q-29 73 49 242q81 176 217 315q50 -141 90 -237q48 -116 93 -194q103 -180 204 -180q63 0 138 41q85 47 153 131
q-152 50 -238 211q-56 107 -101 206q-56 124 -87 218l138 137q79 80 130 133q140 144 201 232q84 119 84 209q0 106 -140 106q-82 0 -161 -34q18 -37 18 -93q0 -64 -102 -211q-45 -64 -110 -146q-57 -72 -132 -161q-38 105 -68 228z" />
    <glyph glyph-name="Y" unicode="Y" horiz-adv-x="1189" 
d="M1161 1034q45 56 81 104q90 119 137 208q58 109 58 182q0 133 -219 133q-39 0 -59 -4q6 -34 6 -70q0 -73 -25 -125q-39 -84 -94 -176l-248 -401l-37 174q-21 92 -39 163q-43 169 -84 263q-51 123 -172 123q-133 0 -268 -129l51 -25q83 -37 171 -261q91 -229 140 -540
q-8 -69 -43 -158q-14 -35 -34 -79l-72 -153q-19 -41 -31 -72q-28 -77 -28 -130q0 -94 129 -94q112 0 215 51q-23 61 -23 111q0 104 84 303q85 200 191 342z" />
    <glyph glyph-name="Z" unicode="Z" horiz-adv-x="1310" 
d="M405 190q218 -6 441 -6h147q86 0 156 21q82 24 145 78q1 -18 2 -40v-36q0 -217 -203 -230l-64 -2q-35 -2 -63 -2q-55 0 -118 3l-351 22q-17 1 -39 2h-38q-155 0 -306 -33q-50 23 -69 96q-15 54 20 101l812 961q166 197 208 253l-325 -4l-207 -8q-201 0 -207 225q0 8 1 17
l3 16q24 -4 65 -14l9 -2q6 -1 8 -2l55 -12q95 -19 195 -19q411 0 803 51q14 -50 14 -88q0 -57 -53 -132q-22 -32 -60 -76l-128 -145q-38 -44 -104 -120z" />
    <glyph glyph-name="bracketleft" unicode="[" horiz-adv-x="755" 
d="M606 1536q81 39 186 39q20 0 45 2l88 7q24 1 43 1q12 0 20 -3q10 -4 9 -11q-19 -83 -50 -135q-4 -7 -31 -12l-128 -19q-37 -6 -56 -14q-126 -515 -258 -1182l-6 -35q-3 -20 -5 -32q-5 -34 -5 -54q0 -100 117 -100h57q38 2 76 6q-13 -112 -73 -147q-41 -23 -152 -23
q-149 0 -203 26q-73 35 -76 140q0 89 27 227q25 138 58 298q30 149 67 311q66 298 137 579q18 85 113 131z" />
    <glyph glyph-name="backslash" unicode="\" horiz-adv-x="901" 
d="M151 1587q67 -82 169 -329q102 -244 204 -568q186 -625 176 -846l133 -4q127 0 115 86q-2 52 -61 261l-152 507q-180 592 -277 779q-48 69 -83 92q-46 30 -126 30q-17 0 -45 -2z" />
    <glyph glyph-name="bracketright" unicode="]" horiz-adv-x="755" 
d="M795 1405q13 85 -62 131q-65 39 -169 39q-21 0 -45 2l-85 7q-23 1 -42 1q-13 0 -22 -3q-12 -4 -13 -11l-8 -75q-3 -37 0 -60q0 -7 25 -12l57 -9q45 -6 66 -10q36 -6 52 -14l-106 -560l-65 -320q-36 -169 -66 -302l-10 -35q-6 -20 -10 -32q-9 -34 -13 -54
q-49 -100 -158 -100h-57q-37 2 -74 6q-16 -47 -16 -86q0 -55 47 -72q20 -8 53 -10q24 -2 68 -2q148 0 214 26q88 35 136 140l31 91q23 71 37 136q30 136 63 298l62 311q28 142 58 303z" />
    <glyph glyph-name="asciicircum" unicode="^" horiz-adv-x="1193" 
d="M1118 635q-117 0 -220 133q-90 116 -165 326q-282 -396 -524 -459h-5q-44 0 -61 29l63 71q330 330 498 666q19 38 51 74q80 -15 116 -72q14 -23 27 -59q4 -13 10 -34l11 -36q114 -350 260 -612q-26 -27 -61 -27z" />
    <glyph glyph-name="underscore" unicode="_" horiz-adv-x="974" 
d="M872 -295l-37 6q-122 15 -245 15l-256 -2q-243 0 -279 63q22 112 43 133l18 -4q85 -8 254 -8l312 2q192 0 223 -62q-14 -86 -33 -143z" />
    <glyph glyph-name="grave" unicode="`" horiz-adv-x="899" 
d="M947 1261q-30 -10 -56 -6q-185 37 -322 111q-135 73 -135 135q0 44 75 82q80 42 167 29l38 -58q23 -34 40 -57q47 -63 100 -106l112 -83q13 -12 13 -18q0 -17 -32 -29z" />
    <glyph glyph-name="a" unicode="a" horiz-adv-x="1183" 
d="M1281 375q11 0 11 -19q0 -112 -127 -242t-236 -130q-182 0 -182 217q0 94 10 166q-231 -376 -438 -385h-23q-116 0 -172 81q-49 72 -49 207q6 305 203 571q93 127 205 199q119 76 239 76q126 0 201 -57q50 53 129 53q87 0 182 -49q-27 -40 -63 -147q-33 -97 -66 -224
q-72 -284 -72 -405q0 -15 3 -28l20 -58q35 6 100 71q94 103 125 103zM768 624q62 120 98 220q-32 119 -164 119q-118 0 -226 -230q-102 -220 -102 -430q6 -106 68 -106q57 0 184 188q75 108 142 239z" />
    <glyph glyph-name="b" unicode="b" horiz-adv-x="1150" 
d="M327 1118q20 99 27 145q10 63 10 107q0 52 -21 96q110 64 215 64q107 0 107 -96q0 -140 -160 -719q251 407 489 407q118 0 169 -93q40 -72 40 -200q0 -295 -187 -561q-91 -131 -204 -204q-123 -80 -252 -80q-123 0 -221 61q-50 -53 -139 -53q-77 0 -162 47q52 84 96 240
l94 395zM908 782q0 123 -67 123q-36 0 -100 -70q-57 -63 -128 -172q-146 -224 -213 -403q5 -57 61 -91q49 -30 114 -30q107 0 207 178q97 173 122 394q4 41 4 71z" />
    <glyph glyph-name="c" unicode="c" horiz-adv-x="933" 
d="M964 262q0 -120 -186 -207q-161 -75 -317 -75q-369 0 -369 346q0 309 207 549q211 243 491 243q258 0 258 -129q0 -113 -192 -174q-36 160 -146 160q-131 0 -215 -158q-86 -164 -86 -436q0 -101 37 -163q41 -68 119 -68q228 0 383 182q16 -30 16 -70z" />
    <glyph glyph-name="d" unicode="d" horiz-adv-x="1185" 
d="M1287 383q13 0 13 -18q0 -114 -127 -243q-126 -128 -236 -128q-184 0 -184 223q0 76 12 158q-121 -199 -250 -301q-120 -92 -231 -92q-207 0 -207 272q0 300 193 570q93 129 206 203q122 79 248 79q100 0 197 -53q47 185 47 315q0 57 -21 90q108 62 209 62
q115 0 115 -115q0 -43 -8 -93q-6 -36 -19 -91l-38 -159q-15 -64 -37 -146l-64 -257q-32 -128 -46 -208q-17 -95 -17 -156q0 -28 7 -52q3 -9 7 -19l8 -15q32 6 100 72q94 102 123 102zM870 813q-25 135 -164 135q-121 0 -228 -213q-104 -208 -104 -432q6 -106 65 -106
q85 0 248 270q100 162 183 346z" />
    <glyph glyph-name="e" unicode="e" horiz-adv-x="983" 
d="M982 322q19 -34 19 -72q0 -50 -31 -90q-56 -69 -153 -111q-152 -69 -324 -69q-372 0 -387 315q-16 331 205 571q208 252 495 252q246 0 246 -194q0 -216 -188 -351q-201 -133 -449 -120q-14 -68 -14 -119q0 -68 22 -98q79 -111 197 -93q194 19 362 179zM442 580
q154 0 237 67q103 87 103 213q0 121 -78 121q-168 0 -262 -401z" />
    <glyph glyph-name="f" unicode="f" horiz-adv-x="813" 
d="M-24 -270q160 132 198 333l150 764h-43q-40 0 -74 11q-39 13 -39 32l2 9q25 72 56 91q34 21 135 21l24 103q54 219 236 344q172 118 403 118q195 0 195 -112q0 -75 -156 -150q-55 117 -156 117q-89 0 -149 -88q-61 -89 -109 -332h76q41 0 122 7q81 8 116 8q1 -6 1 -13
l1 -12q0 -85 -79 -123q-60 -29 -163 -29l-111 2l-73 -348q-22 -101 -44 -183q-27 -101 -59 -191q-110 -320 -426 -439l-20 -4q-37 0 -37 31q1 9 7 16q2 2 7 8z" />
    <glyph glyph-name="g" unicode="g" horiz-adv-x="1175" 
d="M1139 -244q17 -15 17 -20q-5 0 -33 15l-27 15l-52 25q-20 9 -45 20l-56 23q-31 12 -51 19q-163 -269 -516 -269q-174 0 -314 63q-141 63 -141 142t79 132q48 33 122 51q85 20 200 20q182 0 342 -33q55 150 121 471q-126 -178 -255 -266q-117 -78 -228 -78q-105 0 -157 81
q-46 72 -46 202q0 285 182 512q189 235 449 235q120 0 217 -57q61 51 141 51q77 0 164 -45q-69 -104 -143 -426q-61 -312 -111 -510q-35 -139 -86 -242q93 -36 166 -86zM648 -84q-141 31 -324 31h-63l-64 -5q-69 -10 -69 -46q0 -10 6 -19q101 -141 268 -141q113 0 185 78
q29 32 61 102zM682 478q121 163 208 376q-6 40 -63 74q-56 35 -113 35q-128 0 -223 -180q-93 -174 -93 -390q0 -90 64 -90q89 0 220 175z" />
    <glyph glyph-name="h" unicode="h" horiz-adv-x="1196" 
d="M739 963q151 139 284 139q145 0 145 -166q0 -48 -17 -131l-54 -250q-10 -48 -17 -89q-16 -98 -16 -173q0 -27 8 -53l17 -35q17 5 42 23q32 21 58 48q99 103 123 103q12 0 12 -17q0 -111 -127 -241q-127 -131 -237 -131q-183 0 -183 215q0 25 2 53q2 35 6 71q10 92 33 177
q26 90 40 169q12 68 13 118q0 23 -7 41q-9 22 -25 22q-68 0 -199 -208q-132 -210 -272 -546q-46 -110 -170 -110q-53 0 -158 16q112 293 192 642q72 317 119 685l2 21q0 42 -24 94q117 66 221 66q102 0 102 -97q0 -12 -2 -18q-4 -54 -45 -260q-22 -114 -49 -232
q-30 -138 -63 -268q108 196 246 322z" />
    <glyph glyph-name="i" unicode="i" horiz-adv-x="606" 
d="M739 1552q0 -14 -2 -24q-13 -50 -82 -156q-67 -104 -92 -124q-25 -19 -114 -38q-109 -23 -109 58q0 19 5 54l12 66q17 93 16 138q0 6 -4 14l-3 7q-2 5 -4 7q132 52 279 52q95 0 98 -54zM442 203q-9 17 -15 35q-7 25 -7 53q0 113 31 248l79 301q11 37 23 102
q12 67 -25 107q-30 32 -102 32q-89 0 -205 -43q31 -46 31 -102q0 -59 -10 -111l-10 -55q-1 -5 -2 -9l-14 -78q-20 -100 -42 -177q-27 -102 -37 -206q-8 -79 -4 -124q12 -188 182 -188q81 0 184 80q104 81 146 180q33 77 33 110q0 64 -135 -84q-69 -65 -101 -71z" />
    <glyph glyph-name="j" unicode="j" horiz-adv-x="593" 
d="M539 604q-3 -10 -7 -25l-97 -376q-23 -104 -63 -199q-33 -78 -73 -141l108 -34q30 -10 48 -17q21 -7 21 -9q0 -4 -17 -4h-21q-15 0 -31 1q-47 5 -132 26q-172 -238 -408 -238q-182 0 -182 127q0 209 281 209q22 0 48 -2l46 -6q47 100 100 285q12 43 37 144l48 202
q56 245 69 311q8 41 8 78q0 56 -31 102q116 43 205 43q131 0 131 -106q0 -25 -9 -64zM37 -125l-80 4q-74 0 -128 -23q-48 -21 -48 -44q0 -22 36 -34q31 -11 73 -11q21 0 43 6q48 11 104 102zM809 1552q0 -53 -84 -180q-67 -104 -92 -124q-25 -19 -114 -38l-37 -4
q-72 0 -72 62q0 19 5 52q2 13 5 31l6 33q17 92 17 136q0 9 -3 17l-7 17q131 52 278 52q98 0 98 -54z" />
    <glyph glyph-name="k" unicode="k" horiz-adv-x="1085" 
d="M555 1516q100 0 100 -103l-44 -246q-25 -136 -52 -264q-35 -163 -72 -307q370 512 553 512q102 0 117 -201q-185 0 -418 -266l-2 -23q0 -25 10 -59q23 -68 42 -114q26 -62 54 -105q71 -107 169 -107q76 0 176 64l8 4q4 0 4 -8q0 -6 -4 -14q-42 -109 -143 -194
q-104 -87 -197 -87q-92 0 -169 101q-80 106 -163 347q-33 -61 -69 -145l-82 -199q-43 -110 -170 -110q-53 0 -158 16q112 293 192 642q72 317 119 685l2 21q0 42 -24 94q104 59 209 66h12z" />
    <glyph glyph-name="l" unicode="l" horiz-adv-x="675" 
d="M581 254l119 88q52 37 65 37q24 0 -64 -141q-66 -105 -196 -181q-119 -69 -203 -69q-182 0 -182 186q-2 43 18 172q4 16 8 53l-80 -56q-26 -17 -30 -17q-6 0 24 28l95 84q55 236 123 488q64 238 139 485q17 52 69 88q44 31 101 27q98 -7 174 -64q13 -13 16 -30l5 -43
l1 -65l-4 -38q-7 -59 -34 -139q-20 -62 -58 -150q-24 -56 -57 -115q-27 -49 -60 -100q-26 -41 -54 -81l-40 -54l-30 -137q-10 -46 -17 -83q-9 -48 -15 -81q-6 -39 -6 -57q0 -49 21 -86q84 3 152 51zM546 916l-41 -154q38 56 72 116q41 73 71 144q36 81 57 143q25 75 31 129
q4 56 2 76q0 16 -14 20q-15 4 -23 -10q-10 -18 -16 -34q-52 -139 -92 -277q-23 -70 -47 -153z" />
    <glyph glyph-name="m" unicode="m" horiz-adv-x="1792" 
d="M1374 305l31 139q78 349 78 383q0 35 -31 35q-34 0 -104 -84q-66 -80 -142 -206q-77 -129 -133 -256q-62 -139 -80 -234q0 -23 8 -47q-53 -43 -143 -43q-85 0 -143 61l121 509q51 218 51 265q0 37 -33 37q-37 -1 -115 -96q-31 -39 -73 -98l-76 -111q-46 -67 -94 -174
l-117 -281q-47 -112 -168 -112q-59 0 -160 18q58 142 104 292q42 133 72 263q55 236 55 357q0 76 -24 135q133 57 215 57q110 0 110 -100q0 -52 -19 -146l-22 -92l-26 -102q287 446 514 446q141 0 141 -133q0 -171 -47 -309q134 213 280 334q132 108 228 108q139 0 139 -147
q0 -76 -20 -183q-8 -44 -21 -96l-68 -272q-20 -88 -20 -133q0 -51 21 -88q19 4 56 32q26 21 68 60l34 31q18 18 29 27q29 26 36 26q12 0 12 -19q0 -111 -127 -241q-127 -131 -237 -131q-178 0 -178 184q1 52 18 135z" />
    <glyph glyph-name="n" unicode="n" horiz-adv-x="1206" 
d="M745 781q-60 -70 -141 -197q-69 -112 -115 -212q-22 -47 -50 -116q-12 -28 -29 -71l-33 -83q-43 -110 -170 -110q-55 0 -160 16q65 164 121 346q56 188 85 342q25 136 25 226q0 85 -22 133q126 57 215 57q108 0 108 -98q0 -55 -22 -158l-51 -215q102 191 244 328
q155 149 278 149q156 0 156 -149q0 -65 -20 -174q-16 -93 -48 -224l-16 -56q-3 -11 -6 -19q-12 -44 -19 -75q-20 -82 -20 -130q0 -51 20 -88q17 5 43 23q31 21 57 48q100 103 123 103q13 0 13 -17q0 -113 -128 -243q-127 -129 -235 -129q-184 0 -184 188q0 45 13 108l28 126
q82 356 82 409q0 45 -31 45q-40 0 -111 -83z" />
    <glyph glyph-name="o" unicode="o" horiz-adv-x="1095" 
d="M764 1118q169 0 271 -97q103 -99 103 -267q0 -296 -195 -532q-201 -242 -468 -242q-171 0 -272 101q-103 103 -103 279q0 295 199 529q206 229 465 229zM702 967q-65 0 -124 -65q-53 -59 -95 -161q-82 -200 -82 -403q0 -209 135 -209q64 0 123 65q52 57 93 159
q81 198 81 401q0 213 -131 213z" />
    <glyph glyph-name="p" unicode="p" horiz-adv-x="1173" 
d="M1178 1008q38 -75 38 -179q0 -306 -199 -566q-94 -124 -211 -194q-124 -75 -252 -75q-105 0 -192 39q-20 -78 -31 -143q-14 -81 -14 -142q0 -33 20 -102q-102 -52 -192 -52q-123 0 -123 115q0 45 12 101l207 880q43 185 43 291q0 52 -20 96q118 53 211 53q116 0 116 -94
q0 -56 -69 -321q50 80 97 142q57 75 112 127q135 126 268 126q14 0 51 -4q83 -11 128 -98zM915 768q0 125 -64 125q-38 0 -102 -69q-59 -61 -129 -167q-146 -221 -211 -405q21 -98 166 -98q126 0 230 192q99 182 110 397v25z" />
    <glyph glyph-name="q" unicode="q" horiz-adv-x="1157" 
d="M1083 1110q-89 0 -140 -53q-101 61 -221 61q-130 0 -252 -81q-113 -74 -205 -205q-186 -268 -186 -562q0 -126 41 -198q52 -92 168 -92q238 0 481 395q-60 -282 -119 -576l-8 -47q-4 -26 -4 -47q0 -111 131 -111q66 0 170 41q-10 55 -10 103q0 82 22 199q19 104 46 231
q23 108 52 236l99 419q44 156 96 240q-84 47 -161 47zM374 319q0 230 112 439q109 205 222 205q65 0 114 -30q56 -34 60 -91q-67 -179 -213 -403q-70 -109 -128 -172q-64 -70 -100 -70q-67 0 -67 122z" />
    <glyph glyph-name="r" unicode="r" horiz-adv-x="864" 
d="M935 1114q86 0 86 -98q0 -132 -141 -291q-32 51 -78 51q-110 0 -225 -202q-47 -83 -104 -215l-105 -257q-44 -112 -168 -112q-59 0 -160 18q56 145 102 293q42 133 72 260q55 236 55 359q0 87 -22 135q133 57 215 57q108 0 108 -104q0 -55 -19 -149l-46 -189
q121 212 221 323q110 120 199 121h10z" />
    <glyph glyph-name="s" unicode="s" horiz-adv-x="825" 
d="M555 893q0 -52 53 -119l65 -79q35 -45 57 -81q56 -94 56 -192q0 -182 -143 -310q-141 -126 -330 -126q-115 0 -204 66q-99 73 -99 186q0 47 27 85q21 29 55 48q39 -106 96 -169q68 -73 154 -77q157 0 157 164q0 61 -52 129l-53 60l-58 63q-82 97 -82 223q0 184 162 288
q141 91 339 91q101 0 117 -62q0 -65 -80 -120q-59 59 -118 59q-119 0 -119 -127z" />
    <glyph glyph-name="t" unicode="t" horiz-adv-x="733" 
d="M866 1001q0 -163 -172 -163l-117 2q-31 0 -47 -4q-17 -84 -34 -155q-20 -87 -40 -163q-32 -123 -32 -219q6 -98 79 -98q17 0 48 24q25 19 57 54q98 104 125 104q10 0 10 -18q0 -112 -126 -242q-126 -131 -236 -131q-238 0 -238 266q0 27 4 63l8 64q17 98 26 144
q13 61 42 182q39 151 63 271q29 149 29 230q0 63 -22 113q118 68 221 68q100 0 100 -101l-25 -161l-24 -132h106q97 0 195 15v-13z" />
    <glyph glyph-name="u" unicode="u" horiz-adv-x="1206" 
d="M1212 1001q0 -57 -26 -153l-37 -131q-3 -10 -6 -19q-25 -88 -39 -144q-39 -159 -39 -253q0 -28 7 -52q6 -19 15 -36q20 4 56 33q26 20 69 60l33 31q19 17 29 26q29 26 36 26q13 0 13 -18q0 -111 -127 -242q-128 -131 -238 -131q-182 0 -182 219q0 38 5 79q4 28 13 79
q-241 -395 -477 -395q-103 0 -146 66q-32 50 -32 144q0 54 23 167l101 444q23 112 23 164q0 66 -20 104q111 43 201 43q118 0 118 -113q0 -26 -7 -64l-78 -335q-3 -12 -6 -22q-12 -50 -20 -85q-42 -179 -42 -241q0 -53 39 -53q106 0 297 344q157 287 157 471q0 41 -14 69
q83 29 176 29q125 -8 125 -111z" />
    <glyph glyph-name="v" unicode="v" horiz-adv-x="1036" 
d="M907 1022q0 80 -48 131q37 6 76 6q213 0 213 -149q0 -144 -215 -475q-88 -137 -152 -224q-80 -107 -150 -175q-159 -156 -318 -156h-22l-21 4l4 106q3 267 -64 660q-42 246 -94 286q123 76 229 76q134 0 146 -186q14 -104 21 -258q5 -128 5 -277v-69q0 -39 -2 -70
q84 109 157 224q62 97 120 202q115 203 115 344z" />
    <glyph glyph-name="w" unicode="w" horiz-adv-x="1505" 
d="M1194 166q106 120 212 305q219 383 219 541q0 155 -235 155q-39 0 -76 -6q36 -33 56 -93q16 -48 16 -93q0 -138 -92 -349q-88 -204 -215 -374q5 113 7 244v295q0 46 -1 79q-3 78 -13 123q-21 99 -96 99q-80 0 -174 -41q8 -19 8 -54q0 -136 -60 -285q-73 -182 -237 -380
v96q0 252 -12 412q-10 156 -31 206q-28 66 -106 66q-87 0 -207 -68q33 -50 52 -109q23 -68 30 -161q9 -104 14 -251q4 -135 4 -263q0 -91 -2 -150q-3 -72 -10 -120q86 0 144 15q75 19 122 67q173 173 330 510l6 -189q2 -104 2 -190v-95q-1 -57 -8 -120q101 3 131 12
q100 26 222 166z" />
    <glyph glyph-name="x" unicode="x" horiz-adv-x="999" 
d="M226 -22l-22 -1q-176 0 -176 111q0 143 358 447l-96 270q-45 120 -84 153q58 127 209 127q56 0 95 -48q33 -42 48 -109q25 -108 70 -246q268 277 268 420q0 5 12 8l26 3l46 1q123 0 123 -82q0 -75 -117 -214q-52 -62 -130 -141q-66 -66 -162 -157q123 -333 280 -416
q-111 -120 -237 -120q-73 0 -145 103q-62 89 -138 280q-215 -191 -215 -344q0 -24 8 -43q-9 -2 -21 -2z" />
    <glyph glyph-name="y" unicode="y" horiz-adv-x="1044" 
d="M-157 -311q0 55 37 133q37 -33 102 -33q91 0 186 69q85 63 160 171q19 26 19 94q0 24 -3 53l-5 49q-90 723 -203 811q126 76 231 76q120 0 144 -168q47 -322 71 -665q158 222 249 407q97 196 97 303q0 80 -47 131q37 6 76 6q215 0 215 -139q0 -96 -147 -345
q-146 -247 -391 -570q-213 -282 -373 -402q-136 -102 -260 -102q-138 0 -156 98q-2 6 -2 23z" />
    <glyph glyph-name="z" unicode="z" horiz-adv-x="931" 
d="M954 -72q-148 0 -293 101q-85 58 -164 93q-97 42 -172 44q27 37 67 82q31 34 80 85l21 21l21 22q28 28 44 45q51 54 88 95l346 397q50 59 50 134q0 26 -7 51q-98 -20 -172 -28q-85 -9 -190 -9q-245 0 -346 61q-94 -123 -94 -188q0 -105 192 -105q40 0 89 2q62 3 132 9
q-73 -95 -156 -195q-69 -82 -148 -172l-240 -266q-68 -74 -68 -174q0 -34 10 -72q65 10 119 10q124 0 246 -51q49 -21 115 -67l114 -82q67 -47 116 -69q63 -30 120 -30q101 0 172 70q73 71 73 174q0 37 -12 74q-64 -62 -153 -62z" />
    <glyph glyph-name="braceleft" unicode="{" horiz-adv-x="718" 
d="M277 299q41 139 41 215q0 78 -63 123q-81 50 -64 147q44 -10 80 2q118 32 182 334q22 95 50 185q84 280 313 301q210 16 217 -103q-193 18 -254 -168q-48 -137 -78 -280l-22 -90q-41 -107 -113 -167q-61 -50 -158 -75q-18 -4 -51 -16l62 -25q151 -59 151 -209
q0 -53 -16 -135l-23 -102q-20 -91 -20 -160q0 -144 121 -144q30 0 71 11q-15 -127 -207 -127q-55 0 -96 10q-170 48 -170 227q3 107 47 246z" />
    <glyph glyph-name="bar" unicode="|" horiz-adv-x="591" 
d="M673 1438l-313 -1303q-39 -170 -47 -225q-6 -31 -6 -66q-38 -10 -66 -10q-37 0 -135 23l-5 17q-3 10 -3 22v10l301 1280q22 85 38 167q6 32 12 63l7 48q14 69 17 111l28 2q91 0 189 -59z" />
    <glyph glyph-name="braceright" unicode="}" horiz-adv-x="718" 
d="M525 173q12 52 23 126q20 149 53 215q29 74 117 123q107 53 127 147q-47 -10 -78 2q-65 18 -65 132q0 76 30 202l33 185q4 24 4 69q0 215 -188 232q-202 16 -262 -103q202 18 182 -168q-13 -130 -47 -280q-11 -45 -15 -90q-8 -107 39 -167q39 -50 125 -75q11 -3 24 -7
l21 -9l-75 -25q-181 -60 -240 -209q-21 -42 -47 -135l-8 -39q-1 -8 -2 -13q-6 -31 -9 -50q-25 -98 -53 -160q-63 -144 -182 -144q-30 0 -68 11q-39 -127 152 -127q57 0 100 10q91 23 156 74q74 59 115 153q22 52 38 120z" />
    <glyph glyph-name="asciitilde" unicode="~" horiz-adv-x="1187" 
d="M170 545q-35 31 -35 78q0 102 79 169q90 76 249 76q44 0 114 -26q50 -18 131 -58q7 -3 16 -7l105 -50q60 -27 86 -27q146 0 150 148q121 -8 121 -94q0 -127 -92 -203q-94 -79 -238 -59q-43 5 -114 33l-255 112q-59 25 -84 25q-146 0 -153 -148q-49 0 -80 31z" />
    <glyph glyph-name="dieresis" unicode="&#xa8;" horiz-adv-x="1024" 
 />
    <glyph glyph-name="copyright" unicode="&#xa9;" horiz-adv-x="1816" 
d="M1396 563q-175 -201 -471 -201q-506 0 -506 494q0 311 173 501q174 191 464 191q508 0 508 -487q0 -305 -168 -498zM1021 1421q-212 0 -337 -165q-115 -153 -115 -388q0 -383 374 -383q222 0 351 163q122 153 122 399q0 374 -395 374zM1212 717q-35 -50 -92 -86
q-73 -45 -156 -45q-277 0 -277 284q0 185 117 319q117 136 285 136q184 0 184 -115q0 -47 -31 -77q-42 -39 -100 -27q-9 94 -82 94q-77 0 -128 -97q-50 -95 -50 -237q0 -143 123 -143q98 0 194 106q55 -41 13 -112z" />
    <glyph glyph-name="registered" unicode="&#xae;" horiz-adv-x="1792" 
d="M1147 807q59 -82 106 -105q-37 -81 -132 -81q-53 0 -92 59q-74 106 -112 213q-8 -56 -12 -111l-2 -84l3 -41q0 -9 -17 -18q-14 -7 -39 -13l-60 -10q-70 0 -64 54q15 81 27 169q12 78 20 154q17 142 17 195q0 27 -17 63q121 54 234 54q235 0 235 -158q0 -139 -170 -211
q27 -62 75 -129zM931 1006q139 6 139 120q0 74 -71 74h-17l-20 -4l-15 -102zM1560 1061q0 -309 -166 -499q-174 -200 -473 -200q-502 0 -502 494q0 312 170 501q172 191 463 191q508 0 508 -487zM1291 645q123 154 123 402q0 374 -395 374q-213 0 -338 -166
q-115 -154 -115 -387q0 -383 375 -383q221 0 350 160z" />
    <glyph glyph-name="acute" unicode="&#xb4;" horiz-adv-x="1024" 
 />
    <glyph glyph-name="paragraph" unicode="&#xb6;" horiz-adv-x="1024" 
d="M929 1435v-70h-127v-1365h-82v1365h-166v-1365h-84v738q-174 8 -275.5 102.5t-101.5 245.5q0 157 107.5 253t285.5 96h443z" />
    <glyph glyph-name="onequarter" unicode="&#xbc;" horiz-adv-x="1804" 
d="M1672 412q58 2 58 -52q0 -52 -58 -114l-8 -10l-12 4q-36 11 -82 14l-2 -8q-25 -114 -25 -152q0 -26 11 -47l8 -18l-40 -17q-14 -6 -27 -10q-36 -10 -64 -10q-86 0 -86 76q0 26 12 85l22 103q-39 0 -85 -2l-187 -12q-57 0 -57 88q0 33 32 89q27 46 76 107q38 46 87 100
l65 68q76 80 137 133q79 70 154 113l10 2q98 0 98 -59q0 -10 -2 -25l-16 -92q-15 -65 -40 -166l-48 -192zM1420 403q8 36 20 83q9 33 24 85l24 82q12 43 18 72q-93 -74 -180 -159q-97 -96 -149 -173zM544 676q-35 14 -82 14l-182 -1q-7 0 -5 0q-15 0 -23 -1h-24
q-99 0 -106 72v2q0 48 23 82l6 10l108 -12q10 0 16 5q7 6 11 23l131 570l-55 -14q-12 -4 -18 -5q-20 -6 -32 -9q-16 -3 -26 -3q-51 0 -51 68q0 59 16 94l6 14l68 1q42 1 80 5q111 9 174 31l10 6l12 -12q37 -47 37 -82q0 -18 -8 -35l-152 -659l23 2q100 0 100 -80
q0 -28 -28 -80l-13 -16zM1491 1331q-73 -86 -164 -201q-82 -104 -181 -235q-392 -519 -551 -793l-45 -76q-25 -35 -49 -53q-121 23 -146 74q20 79 285 445l138 189l262 355q7 9 12 16l274 371q141 172 262 172q85 0 148 -14q-82 -57 -245 -250z" />
    <glyph glyph-name="onehalf" unicode="&#xbd;" horiz-adv-x="1792" 
d="M1492 1331q-143 -169 -344 -436q-390 -513 -553 -793l-45 -76q-24 -35 -47 -53q-120 22 -148 74q14 49 126 218q110 165 292 415q270 382 555 743q138 172 260 172q84 0 150 -14q-83 -58 -246 -250zM546 676q-41 18 -98 14l-175 -1l-42 -1q-102 0 -109 72v2q0 45 25 82
l6 10l73 -11q11 -1 19 -1l14 -1q7 0 11 2q10 4 16 27l133 570l-74 -19q-21 -6 -33 -9q-16 -3 -26 -3q-51 0 -51 68q0 54 18 94l4 14l69 1q42 1 81 5q110 9 172 31l12 6l10 -12q37 -43 37 -82q0 -16 -6 -35l-154 -659l25 2q100 0 100 -80q0 -25 -30 -80l-11 -16zM1668 186
l4 -17v-15q0 -154 -129 -154l-219 6q-43 0 -109 -4l-83 -4q-17 0 -24 1q-13 2 -21 9v2q-7 7 -13 21q-4 12 -6 27l-4 32q0 11 1 17q2 10 7 18l88 74q48 41 84 74q92 86 152 163q143 184 143 283q0 72 -80 72q-91 0 -145 -80l-24 -23q-12 -10 -25 -14l-15 -4l-8 14
q-28 45 -28 86q0 78 94 127q87 45 207 45q235 0 235 -199q0 -157 -225 -397l-74 -76q-67 -67 -102 -98q22 -2 59 -2q84 0 158 18l45 13q21 6 31 6q20 0 26 -21z" />
    <glyph glyph-name="threequarters" unicode="&#xbe;" horiz-adv-x="1812" 
d="M1672 412q58 2 58 -52q0 -52 -58 -114l-8 -10l-12 4q-36 11 -82 14l-2 -8q-25 -114 -25 -152q0 -26 11 -47l8 -18l-40 -17q-14 -6 -27 -10q-36 -10 -64 -10q-86 0 -86 76q0 26 12 85l23 103q-39 0 -86 -2l-187 -12q-57 0 -57 88q0 33 32 89q28 46 76 107q38 46 87 100
l65 68q76 80 137 133q79 70 154 113l10 2q98 0 98 -59q0 -10 -2 -25l-16 -92q-14 -65 -40 -166l-48 -192zM1421 403q7 36 20 83q8 33 23 85l24 82q12 43 19 72q-94 -74 -181 -159q-97 -96 -149 -173zM1491 1331q-73 -86 -164 -201q-82 -104 -181 -235q-391 -519 -551 -793
l-45 -76q-24 -35 -49 -53q-121 23 -145 74q20 79 284 445l138 189l262 355q7 9 12 16l274 371q141 172 263 172q84 0 147 -14q-82 -57 -245 -250zM609 755q117 99 117 238q0 137 -123 185q181 102 181 243q0 80 -48 127q-62 62 -202 62q-254 0 -254 -148q0 -19 15 -43
q6 -10 14 -21l40 -50l15 28q43 90 143 90q78 0 78 -77q0 -59 -67 -105q-45 -30 -130 -59l-51 -16q-25 -9 -42 -20q-42 -26 -42 -69q0 -25 13 -53l6 -16l16 4q60 16 139 16q90 0 90 -106q0 -166 -182 -166q-87 0 -149 80l-19 24l-16 -26q-35 -60 -35 -115q0 -45 41 -71
q53 -34 170 -34q165 0 282 98z" />
    <glyph glyph-name="Agrave" unicode="&#xc0;" horiz-adv-x="1318" 
d="M1115 1735q0 5 -13 17l-112 83q-53 44 -100 107q-16 22 -39 56l-39 58q-87 13 -167 -28q-75 -39 -75 -82q0 -62 136 -136t321 -110q26 -5 56 6q32 11 32 29zM64 -29q-104 0 -104 72q0 44 33 107q53 97 120 214l134 231l485 818l70 123q114 85 256 70q86 -10 92 -146
l3 -220q0 -11 1 -24l33 -628q13 -204 43 -342q31 -148 96 -207q-115 -80 -254 -68q-111 10 -137 201q-11 69 -20 168l-13 168q-36 -29 -94 -29q-169 -6 -332 -6q-64 -33 -96 -94q-19 -27 -45 -78l-32 -66q-6 -13 -9 -20q-27 -66 -36 -103q-14 -59 -3 -106q-95 -35 -191 -35z
M845 647q12 0 27 2l24 4q-4 340 -29 660l-358 -666h336z" />
    <glyph glyph-name="Aacute" unicode="&#xc1;" horiz-adv-x="1318" 
d="M64 -29q-104 0 -104 72q0 44 33 107q53 97 120 214l134 231l485 818l70 123q114 85 256 70q86 -10 92 -146l3 -220q0 -11 1 -24l33 -628q13 -204 43 -342q31 -148 96 -207q-115 -80 -254 -68q-111 10 -137 201q-11 69 -20 168l-13 168q-36 -29 -94 -29q-169 -6 -332 -6
q-64 -33 -96 -94q-19 -27 -45 -78l-32 -66q-6 -13 -9 -20q-27 -66 -36 -103q-14 -59 -3 -106q-95 -35 -191 -35zM845 647q12 0 27 2l24 4q-4 340 -29 660l-358 -666h336zM818 1733q0 11 14 20q105 68 183 143q65 62 133 152q231 0 231 -104q0 -65 -127 -125
q-154 -87 -348 -121q-26 -5 -55 6q-31 11 -31 29z" />
    <glyph glyph-name="uni1EA2" unicode="&#x1ea2;" horiz-adv-x="1318" 
d="M64 -29q-104 0 -104 72q0 44 33 107q53 97 120 214l134 231l485 818l70 123q114 85 256 70q86 -10 92 -146l3 -220q0 -11 1 -24l33 -628q13 -204 43 -342q31 -148 96 -207q-115 -80 -254 -68q-111 10 -137 201q-11 69 -20 168l-13 168q-36 -29 -94 -29q-169 -6 -332 -6
q-64 -33 -96 -94q-19 -27 -45 -78l-32 -66q-6 -13 -9 -20q-27 -66 -36 -103q-14 -59 -3 -106q-95 -35 -191 -35zM845 647q12 0 27 2l24 4q-4 340 -29 660l-358 -666h336zM1318 2167q68 -33 73 -102q5 -65 -60 -124q-24 -19 -66 -47l-66 -44q-33 -23 -50 -41q-15 -16 -14 -30
q2 -16 24 -44q-63 -38 -113 -42q-37 -3 -62 19q-23 20 -25 41q-3 46 42 81l11 7l79 52l38 28q36 29 58 60t19 61q-4 50 -74 45q-65 -6 -87 -60q-17 -19 -46 -27q-64 28 -66 60q-4 50 79 88q66 30 153 38q98 7 153 -19z" />
    <glyph glyph-name="Atilde" unicode="&#xc3;" horiz-adv-x="1318" 
d="M64 -29q-104 0 -104 72q0 44 33 107q53 97 120 214l134 231l485 818l70 123q114 85 256 70q86 -10 92 -146l3 -220q0 -11 1 -24l33 -628q13 -204 43 -342q31 -148 96 -207q-115 -80 -254 -68q-111 10 -137 201q-11 69 -20 168l-13 168q-36 -29 -94 -29q-169 -6 -332 -6
q-64 -33 -96 -94q-19 -27 -45 -78l-32 -66q-6 -13 -9 -20q-27 -66 -36 -103q-14 -59 -3 -106q-95 -35 -191 -35zM845 647q12 0 27 2l24 4q-4 340 -29 660l-358 -666h336zM1387 1799q-61 -70 -145 -70q-70 0 -212 77q-124 70 -177 70h-12l-13 -3q-58 -17 -83 -118l-13 -32
q-2 -2 -6 -2q-21 0 -40 15q-21 17 -21 33l6 51q20 92 76 153q58 60 138 60q41 1 99 -21q42 -16 116 -54q133 -68 183 -68l21 3q62 16 85 123l10 29q2 1 5 1q7 0 21 -5q42 -20 42 -70q-15 -104 -80 -172z" />
    <glyph glyph-name="uni1EA0" unicode="&#x1ea0;" horiz-adv-x="1318" 
d="M473 -314q0 27 4 52l8 40q1 4 3 9l2 8q3 9 4 15q4 16 4 28q86 43 153 43q127 0 127 -105q0 -46 -35 -135q-82 -49 -163 -49q-107 0 -107 94zM64 -29q-104 0 -104 72q0 44 33 107q53 97 120 214l134 231l485 818l70 123q114 85 256 70q86 -10 92 -146l3 -220q0 -11 1 -24
l33 -628q13 -204 43 -342q31 -148 96 -207q-115 -80 -254 -68q-111 10 -137 201q-11 69 -20 168l-13 168q-36 -29 -94 -29q-169 -6 -332 -6q-64 -33 -96 -94q-19 -27 -45 -78l-32 -66q-6 -13 -9 -20q-27 -66 -36 -103q-14 -59 -3 -106q-95 -35 -191 -35zM845 647q12 0 27 2
l24 4q-4 340 -29 660l-358 -666h336z" />
    <glyph glyph-name="Acircumflex" unicode="&#xc2;" horiz-adv-x="1318" 
d="M1101 -33h-15l-14 2q-110 9 -139 203q-2 8 -3 20q-1 8 -2 21q0 2 -1 11l-25 284q-38 -31 -94 -31l-334 -6q-64 -34 -94 -92q-40 -57 -86 -166q-39 -93 -45 -152v-17q0 -10 2 -15q1 -8 2 -15v-8q-10 -5 -26 -9q-3 0 -7 -2l-22 -5q-68 -19 -134 -19q-104 0 -104 72
q0 45 33 104q53 99 120 216q60 106 134 232l417 701q37 62 68 117l70 123q10 5 20 11l25 17q4 4 7 6q10 6 17 11q0 6 19 12q44 10 100 13q8 1 18 1h32q9 0 16 -1q89 -10 92 -148l6 -266l33 -606q12 -194 41 -340q31 -149 98 -207q-114 -72 -225 -72zM875 1260q-2 2 -8 2v51
l-164 -303q-50 -93 -94 -176q-53 -98 -100 -187h336q26 0 51 6q4 17 4 29l-12 211q-2 25 -2 68v90zM1320 1708q-13 -4 -27 -5l-14 -1q-82 0 -229 162q-214 -162 -328 -162q-59 0 -59 31l161 139q219 190 304 190q30 0 49 -12q58 -164 205 -303q-24 -29 -62 -39z" />
    <glyph glyph-name="uni1EA6" unicode="&#x1ea6;" horiz-adv-x="1318" 
d="M1334 2078q-30 -11 -56 -6q-185 36 -321 110t-136 136q0 43 75 82q80 41 167 28l39 -58q23 -34 39 -56q47 -63 100 -107l112 -83q13 -12 13 -17q0 -18 -32 -29zM64 -29q-104 0 -104 72q0 44 33 107q53 97 120 214l134 231l485 818l70 123q114 85 256 70q86 -10 92 -146
l3 -220q0 -11 1 -24l33 -628q13 -204 43 -342q31 -148 96 -207q-115 -80 -254 -68q-111 10 -137 201q-11 69 -20 168l-13 168q-36 -29 -94 -29q-169 -6 -332 -6q-64 -33 -96 -94q-19 -27 -45 -78l-32 -66q-6 -13 -9 -20q-27 -66 -36 -103q-14 -59 -3 -106q-95 -35 -191 -35z
M845 647q12 0 27 2l24 4q-4 340 -29 660l-358 -666h336zM1320 1708q-13 -4 -27 -5l-14 -1q-82 0 -229 162q-214 -162 -328 -162q-59 0 -59 31l161 139q219 190 304 190q30 0 49 -12q58 -164 205 -303q-24 -29 -62 -39z" />
    <glyph glyph-name="uni1EA4" unicode="&#x1ea4;" horiz-adv-x="1318" 
d="M64 -29q-104 0 -104 72q0 44 33 107q53 97 120 214l134 231l485 818l70 123q114 85 256 70q86 -10 92 -146l3 -220q0 -11 1 -24l33 -628q13 -204 43 -342q31 -148 96 -207q-115 -80 -254 -68q-111 10 -137 201q-11 69 -20 168l-13 168q-36 -29 -94 -29q-169 -6 -332 -6
q-64 -33 -96 -94q-19 -27 -45 -78l-32 -66q-6 -13 -9 -20q-27 -66 -36 -103q-14 -59 -3 -106q-95 -35 -191 -35zM845 647q12 0 27 2l24 4q-4 340 -29 660l-358 -666h336zM1269 1984q0 11 14 20q105 68 183 143q65 62 133 152q231 0 231 -104q0 -65 -127 -125
q-154 -87 -348 -121q-26 -5 -55 6q-31 11 -31 29zM1320 1708q-13 -4 -27 -5l-14 -1q-82 0 -229 162q-214 -162 -328 -162q-59 0 -59 31l161 139q219 190 304 190q30 0 49 -12q58 -164 205 -303q-24 -29 -62 -39z" />
    <glyph glyph-name="uni1EA8" unicode="&#x1ea8;" horiz-adv-x="1318" 
d="M64 -29q-104 0 -104 72q0 44 33 107q53 97 120 214l134 231l485 818l70 123q114 85 256 70q86 -10 92 -146l3 -220q0 -11 1 -24l33 -628q13 -204 43 -342q31 -148 96 -207q-115 -80 -254 -68q-111 10 -137 201q-11 69 -20 168l-13 168q-36 -29 -94 -29q-169 -6 -332 -6
q-64 -33 -96 -94q-19 -27 -45 -78l-32 -66q-6 -13 -9 -20q-27 -66 -36 -103q-14 -59 -3 -106q-95 -35 -191 -35zM845 647q12 0 27 2l24 4q-4 340 -29 660l-358 -666h336zM1609 2418q68 -33 73 -102q5 -65 -60 -124q-24 -19 -66 -47l-66 -44q-33 -23 -50 -41q-15 -16 -14 -30
q2 -16 24 -44q-63 -38 -113 -42q-37 -3 -62 19q-23 20 -25 41q-3 46 42 81l11 7l79 52l38 28q36 29 58 60t19 61q-4 50 -74 45q-65 -6 -87 -60q-17 -19 -46 -27q-64 28 -66 60q-4 50 79 88q66 30 153 38q98 7 153 -19zM1320 1708q-13 -4 -27 -5l-14 -1q-82 0 -229 162
q-214 -162 -328 -162q-59 0 -59 31l161 139q219 190 304 190q30 0 49 -12q58 -164 205 -303q-24 -29 -62 -39z" />
    <glyph glyph-name="uni1EAA" unicode="&#x1eaa;" horiz-adv-x="1318" 
d="M64 -29q-104 0 -104 72q0 44 33 107q53 97 120 214l134 231l485 818l70 123q114 85 256 70q86 -10 92 -146l3 -220q0 -11 1 -24l33 -628q13 -204 43 -342q31 -148 96 -207q-115 -80 -254 -68q-111 10 -137 201q-11 69 -20 168l-13 168q-36 -29 -94 -29q-169 -6 -332 -6
q-64 -33 -96 -94q-19 -27 -45 -78l-32 -66q-6 -13 -9 -20q-27 -66 -36 -103q-14 -59 -3 -106q-95 -35 -191 -35zM845 647q12 0 27 2l24 4q-4 340 -29 660l-358 -666h336zM1517 2110q-61 -70 -145 -70q-70 0 -212 77q-124 70 -177 70h-12l-13 -3q-58 -17 -83 -118l-13 -32
q-2 -2 -6 -2q-21 0 -40 15q-21 17 -21 33l6 51q20 92 76 153q58 60 138 60q41 1 99 -21q42 -16 116 -54q133 -68 183 -68l21 3q62 16 85 123l10 29q2 1 5 1q7 0 21 -5q42 -20 42 -70q-15 -104 -80 -172zM1320 1708q-13 -4 -27 -5l-14 -1q-82 0 -229 162q-214 -162 -328 -162
q-59 0 -59 31l161 139q219 190 304 190q30 0 49 -12q58 -164 205 -303q-24 -29 -62 -39z" />
    <glyph glyph-name="uni1EAC" unicode="&#x1eac;" horiz-adv-x="1318" 
d="M473 -314q0 27 4 52l8 40q1 4 3 9l2 8q3 9 4 15q4 16 4 28q86 43 153 43q127 0 127 -105q0 -46 -35 -135q-82 -49 -163 -49q-107 0 -107 94zM64 -29q-104 0 -104 72q0 44 33 107q53 97 120 214l134 231l485 818l70 123q114 85 256 70q86 -10 92 -146l3 -220q0 -11 1 -24
l33 -628q13 -204 43 -342q31 -148 96 -207q-115 -80 -254 -68q-111 10 -137 201q-11 69 -20 168l-13 168q-36 -29 -94 -29q-169 -6 -332 -6q-64 -33 -96 -94q-19 -27 -45 -78l-32 -66q-6 -13 -9 -20q-27 -66 -36 -103q-14 -59 -3 -106q-95 -35 -191 -35zM845 647q12 0 27 2
l24 4q-4 340 -29 660l-358 -666h336zM1320 1708q-13 -4 -27 -5l-14 -1q-82 0 -229 162q-214 -162 -328 -162q-59 0 -59 31l161 139q219 190 304 190q30 0 49 -12q58 -164 205 -303q-24 -29 -62 -39z" />
    <glyph glyph-name="Abreve" unicode="&#x102;" horiz-adv-x="1318" 
d="M64 -29q-104 0 -104 72q0 44 33 107q53 97 120 214l134 231l485 818l70 123q114 85 256 70q86 -10 92 -146l3 -220q0 -11 1 -24l33 -628q13 -204 43 -342q31 -148 96 -207q-115 -80 -254 -68q-111 10 -137 201q-11 69 -20 168l-13 168q-36 -29 -94 -29q-169 -6 -332 -6
q-64 -33 -96 -94q-19 -27 -45 -78l-32 -66q-6 -13 -9 -20q-27 -66 -36 -103q-14 -59 -3 -106q-95 -35 -191 -35zM845 647q12 0 27 2l24 4q-4 340 -29 660l-358 -666h336zM1262 1794q-118 -76 -234 -76q-275 0 -303 209q0 41 19 74q24 41 67 41q13 0 17 -2q42 -150 219 -150
q198 0 272 148q6 2 19 2q75 0 75 -58q-28 -107 -151 -188z" />
    <glyph glyph-name="uni1EB0" unicode="&#x1eb0;" horiz-adv-x="1318" 
d="M1233 2078q-30 -11 -56 -6q-185 36 -321 110t-136 136q0 43 75 82q80 41 167 28l39 -58q23 -34 39 -56q47 -63 100 -107l112 -83q13 -12 13 -17q0 -18 -32 -29zM64 -29q-104 0 -104 72q0 44 33 107q53 97 120 214l134 231l485 818l70 123q114 85 256 70q86 -10 92 -146
l3 -220q0 -11 1 -24l33 -628q13 -204 43 -342q31 -148 96 -207q-115 -80 -254 -68q-111 10 -137 201q-11 69 -20 168l-13 168q-36 -29 -94 -29q-169 -6 -332 -6q-64 -33 -96 -94q-19 -27 -45 -78l-32 -66q-6 -13 -9 -20q-27 -66 -36 -103q-14 -59 -3 -106q-95 -35 -191 -35z
M845 647q12 0 27 2l24 4q-4 340 -29 660l-358 -666h336zM1262 1794q-118 -76 -234 -76q-275 0 -303 209q0 41 19 74q24 41 67 41q13 0 17 -2q42 -150 219 -150q198 0 272 148q6 2 19 2q75 0 75 -58q-28 -107 -151 -188z" />
    <glyph glyph-name="uni1EAE" unicode="&#x1eae;" horiz-adv-x="1318" 
d="M64 -29q-104 0 -104 72q0 44 33 107q53 97 120 214l134 231l485 818l70 123q114 85 256 70q86 -10 92 -146l3 -220q0 -11 1 -24l33 -628q13 -204 43 -342q31 -148 96 -207q-115 -80 -254 -68q-111 10 -137 201q-11 69 -20 168l-13 168q-36 -29 -94 -29q-169 -6 -332 -6
q-64 -33 -96 -94q-19 -27 -45 -78l-32 -66q-6 -13 -9 -20q-27 -66 -36 -103q-14 -59 -3 -106q-95 -35 -191 -35zM845 647q12 0 27 2l24 4q-4 340 -29 660l-358 -666h336zM958 2044q0 11 14 20q105 68 183 143q65 62 133 152q231 0 231 -104q0 -65 -127 -125
q-154 -87 -348 -121q-26 -5 -55 6q-31 11 -31 29zM1262 1794q-118 -76 -234 -76q-275 0 -303 209q0 41 19 74q24 41 67 41q13 0 17 -2q42 -150 219 -150q198 0 272 148q6 2 19 2q75 0 75 -58q-28 -107 -151 -188z" />
    <glyph glyph-name="uni1EB2" unicode="&#x1eb2;" horiz-adv-x="1318" 
d="M64 -29q-104 0 -104 72q0 44 33 107q53 97 120 214l134 231l485 818l70 123q114 85 256 70q86 -10 92 -146l3 -220q0 -11 1 -24l33 -628q13 -204 43 -342q31 -148 96 -207q-115 -80 -254 -68q-111 10 -137 201q-11 69 -20 168l-13 168q-36 -29 -94 -29q-169 -6 -332 -6
q-64 -33 -96 -94q-19 -27 -45 -78l-32 -66q-6 -13 -9 -20q-27 -66 -36 -103q-14 -59 -3 -106q-95 -35 -191 -35zM845 647q12 0 27 2l24 4q-4 340 -29 660l-358 -666h336zM1348 2478q68 -33 73 -102q5 -65 -60 -124q-24 -19 -66 -47l-66 -44q-33 -23 -50 -41q-15 -16 -14 -30
q2 -16 24 -44q-63 -38 -113 -42q-37 -3 -62 19q-23 20 -25 41q-3 46 42 81l11 7l79 52l38 28q36 29 58 60t19 61q-4 50 -74 45q-65 -6 -87 -60q-17 -19 -46 -27q-64 28 -66 60q-4 50 79 88q66 30 153 38q98 7 153 -19zM1262 1794q-118 -76 -234 -76q-275 0 -303 209
q0 41 19 74q24 41 67 41q13 0 17 -2q42 -150 219 -150q198 0 272 148q6 2 19 2q75 0 75 -58q-28 -107 -151 -188z" />
    <glyph glyph-name="uni1EB4" unicode="&#x1eb4;" horiz-adv-x="1318" 
d="M64 -29q-104 0 -104 72q0 44 33 107q53 97 120 214l134 231l485 818l70 123q114 85 256 70q86 -10 92 -146l3 -220q0 -11 1 -24l33 -628q13 -204 43 -342q31 -148 96 -207q-115 -80 -254 -68q-111 10 -137 201q-11 69 -20 168l-13 168q-36 -29 -94 -29q-169 -6 -332 -6
q-64 -33 -96 -94q-19 -27 -45 -78l-32 -66q-6 -13 -9 -20q-27 -66 -36 -103q-14 -59 -3 -106q-95 -35 -191 -35zM845 647q12 0 27 2l24 4q-4 340 -29 660l-358 -666h336zM1587 2150q-61 -70 -145 -70q-70 0 -212 77q-124 70 -177 70h-12l-13 -3q-58 -17 -83 -118l-13 -32
q-2 -2 -6 -2q-21 0 -40 15q-21 17 -21 33l6 51q20 92 76 153q58 60 138 60q41 1 99 -21q42 -16 116 -54q133 -68 183 -68l21 3q62 16 85 123l10 29q2 1 5 1q7 0 21 -5q42 -20 42 -70q-15 -104 -80 -172zM1262 1794q-118 -76 -234 -76q-275 0 -303 209q0 41 19 74
q24 41 67 41q13 0 17 -2q42 -150 219 -150q198 0 272 148q6 2 19 2q75 0 75 -58q-28 -107 -151 -188z" />
    <glyph glyph-name="uni1EB6" unicode="&#x1eb6;" horiz-adv-x="1318" 
d="M473 -314q0 27 4 52l8 40q1 4 3 9l2 8q3 9 4 15q4 16 4 28q86 43 153 43q127 0 127 -105q0 -46 -35 -135q-82 -49 -163 -49q-107 0 -107 94zM64 -29q-104 0 -104 72q0 44 33 107q53 97 120 214l134 231l485 818l70 123q114 85 256 70q86 -10 92 -146l3 -220q0 -11 1 -24
l33 -628q13 -204 43 -342q31 -148 96 -207q-115 -80 -254 -68q-111 10 -137 201q-11 69 -20 168l-13 168q-36 -29 -94 -29q-169 -6 -332 -6q-64 -33 -96 -94q-19 -27 -45 -78l-32 -66q-6 -13 -9 -20q-27 -66 -36 -103q-14 -59 -3 -106q-95 -35 -191 -35zM845 647q12 0 27 2
l24 4q-4 340 -29 660l-358 -666h336zM1262 1794q-118 -76 -234 -76q-275 0 -303 209q0 41 19 74q24 41 67 41q13 0 17 -2q42 -150 219 -150q198 0 272 148q6 2 19 2q75 0 75 -58q-28 -107 -151 -188z" />
    <glyph glyph-name="Egrave" unicode="&#xc8;" horiz-adv-x="1181" 
d="M946 1577q44 0 116 4l99 4q107 0 141 -37q-12 -83 -52 -143q-47 -70 -110 -70q-7 0 -22 8l-32 18l-49 17q-32 8 -69 8l-319 5q24 -28 24 -62v-16l-44 -203q-24 -109 -48 -207h121q92 0 193 9q86 8 170 22q0 -22 -7 -49q-30 -112 -120 -149q-39 -16 -96 -21
q-42 -4 -115 -4h-185q-27 -87 -47 -179q-26 -120 -26 -194q0 -108 81 -138q30 -11 74 -13l72 -1q70 0 146 14q57 11 122 30l94 31q42 13 58 13q0 -177 -141 -240q-62 -28 -161 -39q-80 -9 -208 -9l-285 2q-105 0 -144 50q-30 40 -30 134q0 55 14 136q11 66 31 145l72 273
q38 145 60 236q54 233 54 347v44q-2 22 -10 19q-17 -4 -38 -5l-27 -1q-9 3 -6 35q0 30 12 57q43 87 117 94q258 25 520 25zM941 1706q-31 -11 -57 -6q-184 36 -321 110q-135 74 -135 136q0 43 74 82q80 41 167 28l39 -58q23 -34 40 -56q47 -63 99 -107l112 -83
q13 -12 13 -17q0 -18 -31 -29z" />
    <glyph glyph-name="Eacute" unicode="&#xc9;" horiz-adv-x="1181" 
d="M946 1577q44 0 116 4l99 4q107 0 141 -37q-12 -83 -52 -143q-47 -70 -110 -70q-7 0 -22 8l-32 18l-49 17q-32 8 -69 8l-319 5q24 -28 24 -62v-16l-44 -203q-24 -109 -48 -207h121q92 0 193 9q86 8 170 22q0 -22 -7 -49q-30 -112 -120 -149q-39 -16 -96 -21
q-42 -4 -115 -4h-185q-27 -87 -47 -179q-26 -120 -26 -194q0 -108 81 -138q30 -11 74 -13l72 -1q70 0 146 14q57 11 122 30l94 31q42 13 58 13q0 -177 -141 -240q-62 -28 -161 -39q-80 -9 -208 -9l-285 2q-105 0 -144 50q-30 40 -30 134q0 55 14 136q11 66 31 145l72 273
q38 145 60 236q54 233 54 347v44q-2 22 -10 19q-17 -4 -38 -5l-27 -1q-9 3 -6 35q0 30 12 57q43 87 117 94q258 25 520 25zM675 1706q30 -11 56 -6q194 34 348 121q127 60 127 125q0 104 -232 104q-67 -90 -132 -152q-78 -75 -183 -143q-14 -8 -14 -20q0 -18 30 -29z" />
    <glyph glyph-name="uni1EBA" unicode="&#x1eba;" horiz-adv-x="1103" 
d="M946 1577q44 0 116 4l99 4q107 0 141 -37q-12 -83 -52 -143q-47 -70 -110 -70q-7 0 -22 8l-32 18l-49 17q-32 8 -69 8l-319 5q24 -28 24 -62v-16l-44 -203q-24 -109 -48 -207h121q92 0 193 9q86 8 170 22q0 -22 -7 -49q-30 -112 -120 -149q-39 -16 -96 -21
q-42 -4 -115 -4h-185q-27 -87 -47 -179q-26 -120 -26 -194q0 -108 81 -138q30 -11 74 -13l72 -1q70 0 146 14q57 11 122 30l94 31q42 13 58 13q0 -177 -141 -240q-62 -28 -161 -39q-80 -9 -208 -9l-285 2q-105 0 -144 50q-30 40 -30 134q0 55 14 136q11 66 31 145l72 273
q38 145 60 236q54 233 54 347v44q-2 22 -10 19q-17 -4 -38 -5l-27 -1q-9 3 -6 35q0 30 12 57q43 87 117 94q258 25 520 25zM1127 2136q67 -33 73 -102q5 -65 -61 -124q-23 -19 -66 -47l-66 -44q-33 -23 -50 -41q-14 -16 -13 -30q1 -16 24 -44q-64 -38 -113 -42
q-37 -3 -62 19q-23 20 -25 41q-4 46 42 81l10 7l79 52q20 14 38 28q37 29 58 60q22 31 20 61q-4 50 -75 45q-65 -6 -87 -60q-16 -19 -45 -27q-64 28 -67 60q-4 50 80 88q65 30 153 38q97 7 153 -19z" />
    <glyph glyph-name="uni1EBC" unicode="&#x1ebc;" horiz-adv-x="1103" 
d="M946 1577q44 0 116 4l99 4q107 0 141 -37q-12 -83 -52 -143q-47 -70 -110 -70q-7 0 -22 8l-32 18l-49 17q-32 8 -69 8l-319 5q24 -28 24 -62v-16l-44 -203q-24 -109 -48 -207h121q92 0 193 9q86 8 170 22q0 -22 -7 -49q-30 -112 -120 -149q-39 -16 -96 -21
q-42 -4 -115 -4h-185q-27 -87 -47 -179q-26 -120 -26 -194q0 -108 81 -138q30 -11 74 -13l72 -1q70 0 146 14q57 11 122 30l94 31q42 13 58 13q0 -177 -141 -240q-62 -28 -161 -39q-80 -9 -208 -9l-285 2q-105 0 -144 50q-30 40 -30 134q0 55 14 136q11 66 31 145l72 273
q38 145 60 236q54 233 54 347v44q-2 22 -10 19q-17 -4 -38 -5l-27 -1q-9 3 -6 35q0 30 12 57q43 87 117 94q258 25 520 25zM1246 1789q-61 -70 -146 -70q-69 0 -211 77q-125 70 -178 70h-12l-13 -3q-58 -17 -83 -118l-13 -32q-2 -2 -6 -2q-20 0 -39 15q-21 17 -21 33l6 51
q20 92 75 153q58 60 138 60q42 1 99 -21q43 -16 117 -54q133 -68 183 -68l21 3q61 16 85 123l9 29q2 1 6 1q7 0 21 -5q41 -20 41 -70q-14 -104 -79 -172z" />
    <glyph glyph-name="uni1EB8" unicode="&#x1eb8;" horiz-adv-x="1103" 
d="M946 1577q44 0 116 4l99 4q107 0 141 -37q-12 -83 -52 -143q-47 -70 -110 -70q-7 0 -22 8l-32 18l-49 17q-32 8 -69 8l-319 5q24 -28 24 -62v-16l-44 -203q-24 -109 -48 -207h121q92 0 193 9q86 8 170 22q0 -22 -7 -49q-30 -112 -120 -149q-39 -16 -96 -21
q-42 -4 -115 -4h-185q-27 -87 -47 -179q-26 -120 -26 -194q0 -108 81 -138q30 -11 74 -13l72 -1q70 0 146 14q57 11 122 30l94 31q42 13 58 13q0 -177 -141 -240q-62 -28 -161 -39q-80 -9 -208 -9l-285 2q-105 0 -144 50q-30 40 -30 134q0 55 14 136q11 66 31 145l72 273
q38 145 60 236q54 233 54 347v44q-2 22 -10 19q-17 -4 -38 -5l-27 -1q-9 3 -6 35q0 30 12 57q43 87 117 94q258 25 520 25zM403 -314q0 27 4 52l8 40q1 4 2 9l3 8q2 9 3 15q4 16 4 28q86 43 154 43q127 0 127 -105q0 -46 -35 -135q-83 -49 -164 -49q-106 0 -106 94z" />
    <glyph glyph-name="Ecircumflex" unicode="&#xca;" horiz-adv-x="1103" 
d="M946 1577q44 0 116 4l99 4q107 0 141 -37q-12 -83 -52 -143q-47 -70 -110 -70q-7 0 -22 8l-32 18l-49 17q-32 8 -69 8l-319 5q24 -28 24 -62v-16l-44 -203q-24 -109 -48 -207h121q92 0 193 9q86 8 170 22q0 -22 -7 -49q-30 -112 -120 -149q-39 -16 -96 -21
q-42 -4 -115 -4h-185q-27 -87 -47 -179q-26 -120 -26 -194q0 -108 81 -138q30 -11 74 -13l72 -1q70 0 146 14q57 11 122 30l94 31q42 13 58 13q0 -177 -141 -240q-62 -28 -161 -39q-80 -9 -208 -9l-285 2q-105 0 -144 50q-30 40 -30 134q0 55 14 136q11 66 31 145l72 273
q38 145 60 236q54 233 54 347v44q-2 22 -10 19q-17 -4 -38 -5l-27 -1q-9 3 -6 35q0 30 12 57q43 87 117 94q258 25 520 25zM1168 1708q-13 -4 -26 -5l-14 -1q-82 0 -230 162q-213 -162 -327 -162q-60 0 -60 31l162 139q218 190 303 190q31 0 49 -12q59 -164 205 -303
q-23 -29 -62 -39z" />
    <glyph glyph-name="uni1EC0" unicode="&#x1ec0;" horiz-adv-x="1181" 
d="M946 1577q44 0 116 4l99 4q107 0 141 -37q-12 -83 -52 -143q-47 -70 -110 -70q-7 0 -22 8l-32 18l-49 17q-32 8 -69 8l-319 5q24 -28 24 -62v-16l-44 -203q-24 -109 -48 -207h121q92 0 193 9q86 8 170 22q0 -22 -7 -49q-30 -112 -120 -149q-39 -16 -96 -21
q-42 -4 -115 -4h-185q-27 -87 -47 -179q-26 -120 -26 -194q0 -108 81 -138q30 -11 74 -13l72 -1q70 0 146 14q57 11 122 30l94 31q42 13 58 13q0 -177 -141 -240q-62 -28 -161 -39q-80 -9 -208 -9l-285 2q-105 0 -144 50q-30 40 -30 134q0 55 14 136q11 66 31 145l72 273
q38 145 60 236q54 233 54 347v44q-2 22 -10 19q-17 -4 -38 -5l-27 -1q-9 3 -6 35q0 30 12 57q43 87 117 94q258 25 520 25zM1152 2088q-31 -11 -57 -6q-184 36 -321 110q-135 74 -135 136q0 43 74 82q80 41 167 28l39 -58q23 -34 40 -56q47 -63 99 -107l112 -83
q13 -12 13 -17q0 -18 -31 -29zM1168 1708q-13 -4 -26 -5l-14 -1q-82 0 -230 162q-213 -162 -327 -162q-60 0 -60 31l162 139q218 190 303 190q31 0 49 -12q59 -164 205 -303q-23 -29 -62 -39z" />
    <glyph glyph-name="uni1EBE" unicode="&#x1ebe;" horiz-adv-x="1181" 
d="M946 1577q44 0 116 4l99 4q107 0 141 -37q-12 -83 -52 -143q-47 -70 -110 -70q-7 0 -22 8l-32 18l-49 17q-32 8 -69 8l-319 5q24 -28 24 -62v-16l-44 -203q-24 -109 -48 -207h121q92 0 193 9q86 8 170 22q0 -22 -7 -49q-30 -112 -120 -149q-39 -16 -96 -21
q-42 -4 -115 -4h-185q-27 -87 -47 -179q-26 -120 -26 -194q0 -108 81 -138q30 -11 74 -13l72 -1q70 0 146 14q57 11 122 30l94 31q42 13 58 13q0 -177 -141 -240q-62 -28 -161 -39q-80 -9 -208 -9l-285 2q-105 0 -144 50q-30 40 -30 134q0 55 14 136q11 66 31 145l72 273
q38 145 60 236q54 233 54 347v44q-2 22 -10 19q-17 -4 -38 -5l-27 -1q-9 3 -6 35q0 30 12 57q43 87 117 94q258 25 520 25zM1127 1966q0 12 14 20q105 68 183 143q65 62 132 152q232 0 232 -104q0 -65 -127 -125q-154 -87 -348 -121q-26 -5 -56 6t-30 29zM1168 1708
q-13 -4 -26 -5l-14 -1q-82 0 -230 162q-213 -162 -327 -162q-60 0 -60 31l162 139q218 190 303 190q31 0 49 -12q59 -164 205 -303q-23 -29 -62 -39z" />
    <glyph glyph-name="uni1EC2" unicode="&#x1ec2;" horiz-adv-x="1103" 
d="M946 1577q44 0 116 4l99 4q107 0 141 -37q-12 -83 -52 -143q-47 -70 -110 -70q-7 0 -22 8l-32 18l-49 17q-32 8 -69 8l-319 5q24 -28 24 -62v-16l-44 -203q-24 -109 -48 -207h121q92 0 193 9q86 8 170 22q0 -22 -7 -49q-30 -112 -120 -149q-39 -16 -96 -21
q-42 -4 -115 -4h-185q-27 -87 -47 -179q-26 -120 -26 -194q0 -108 81 -138q30 -11 74 -13l72 -1q70 0 146 14q57 11 122 30l94 31q42 13 58 13q0 -177 -141 -240q-62 -28 -161 -39q-80 -9 -208 -9l-285 2q-105 0 -144 50q-30 40 -30 134q0 55 14 136q11 66 31 145l72 273
q38 145 60 236q54 233 54 347v44q-2 22 -10 19q-17 -4 -38 -5l-27 -1q-9 3 -6 35q0 30 12 57q43 87 117 94q258 25 520 25zM1478 2407q67 -33 73 -102q5 -65 -61 -124q-23 -19 -66 -47l-66 -44q-33 -23 -50 -41q-14 -16 -13 -30q1 -16 24 -44q-64 -38 -113 -42
q-37 -3 -62 19q-23 20 -25 41q-4 46 42 81l10 7l79 52q20 14 38 28q37 29 58 60q22 31 20 61q-4 50 -75 45q-65 -6 -87 -60q-16 -19 -45 -27q-64 28 -67 60q-4 50 80 88q65 30 153 38q97 7 153 -19zM1168 1708q-13 -4 -26 -5l-14 -1q-82 0 -230 162q-213 -162 -327 -162
q-60 0 -60 31l162 139q218 190 303 190q31 0 49 -12q59 -164 205 -303q-23 -29 -62 -39z" />
    <glyph glyph-name="uni1EC4" unicode="&#x1ec4;" horiz-adv-x="1103" 
d="M946 1577q44 0 116 4l99 4q107 0 141 -37q-12 -83 -52 -143q-47 -70 -110 -70q-7 0 -22 8l-32 18l-49 17q-32 8 -69 8l-319 5q24 -28 24 -62v-16l-44 -203q-24 -109 -48 -207h121q92 0 193 9q86 8 170 22q0 -22 -7 -49q-30 -112 -120 -149q-39 -16 -96 -21
q-42 -4 -115 -4h-185q-27 -87 -47 -179q-26 -120 -26 -194q0 -108 81 -138q30 -11 74 -13l72 -1q70 0 146 14q57 11 122 30l94 31q42 13 58 13q0 -177 -141 -240q-62 -28 -161 -39q-80 -9 -208 -9l-285 2q-105 0 -144 50q-30 40 -30 134q0 55 14 136q11 66 31 145l72 273
q38 145 60 236q54 233 54 347v44q-2 22 -10 19q-17 -4 -38 -5l-27 -1q-9 3 -6 35q0 30 12 57q43 87 117 94q258 25 520 25zM1396 2100q-61 -70 -146 -70q-69 0 -211 77q-125 70 -178 70h-12l-13 -3q-58 -17 -83 -118l-13 -32q-2 -2 -6 -2q-20 0 -39 15q-21 17 -21 33l6 51
q20 92 75 153q58 60 138 60q42 1 99 -21q43 -16 117 -54q133 -68 183 -68l21 3q61 16 85 123l9 29q2 1 6 1q7 0 21 -5q41 -20 41 -70q-14 -104 -79 -172zM1168 1708q-13 -4 -26 -5l-14 -1q-82 0 -230 162q-213 -162 -327 -162q-60 0 -60 31l162 139q218 190 303 190
q31 0 49 -12q59 -164 205 -303q-23 -29 -62 -39z" />
    <glyph glyph-name="uni1EC6" unicode="&#x1ec6;" horiz-adv-x="1103" 
d="M946 1577q44 0 116 4l99 4q107 0 141 -37q-12 -83 -52 -143q-47 -70 -110 -70q-7 0 -22 8l-32 18l-49 17q-32 8 -69 8l-319 5q24 -28 24 -62v-16l-44 -203q-24 -109 -48 -207h121q92 0 193 9q86 8 170 22q0 -22 -7 -49q-30 -112 -120 -149q-39 -16 -96 -21
q-42 -4 -115 -4h-185q-27 -87 -47 -179q-26 -120 -26 -194q0 -108 81 -138q30 -11 74 -13l72 -1q70 0 146 14q57 11 122 30l94 31q42 13 58 13q0 -177 -141 -240q-62 -28 -161 -39q-80 -9 -208 -9l-285 2q-105 0 -144 50q-30 40 -30 134q0 55 14 136q11 66 31 145l72 273
q38 145 60 236q54 233 54 347v44q-2 22 -10 19q-17 -4 -38 -5l-27 -1q-9 3 -6 35q0 30 12 57q43 87 117 94q258 25 520 25zM403 -314q0 27 4 52l8 40q1 4 2 9l3 8q2 9 3 15q4 16 4 28q86 43 154 43q127 0 127 -105q0 -46 -35 -135q-83 -49 -164 -49q-106 0 -106 94z
M1168 1708q-13 -4 -26 -5l-14 -1q-82 0 -230 162q-213 -162 -327 -162q-60 0 -60 31l162 139q218 190 303 190q31 0 49 -12q59 -164 205 -303q-23 -29 -62 -39z" />
    <glyph glyph-name="Igrave" unicode="&#xcc;" horiz-adv-x="772" 
d="M335 696q53 227 90 400q31 141 37 247l1 34q0 19 -3 33q-9 35 -45 50q-14 3 -21 21l-3 19q0 3 10 9q132 78 260 78q75 0 108 -41q34 -38 21 -116l-180 -765l-54 -255q-15 -78 -21 -116q-10 -58 -10 -95q0 -81 48 -150q0 -30 -104 -57q-88 -23 -144 -23q-117 0 -117 131
q0 70 31 197q46 187 96 399zM809 1706q-30 -11 -56 -6q-185 36 -322 110q-135 74 -135 136q0 43 75 82q80 41 167 28l39 -58q22 -34 39 -56q47 -63 100 -107l112 -83q13 -12 13 -17q0 -18 -32 -29z" />
    <glyph glyph-name="Iacute" unicode="&#xcd;" horiz-adv-x="772" 
d="M540 1704q29 -11 55 -6q194 34 348 121q127 60 127 125q0 104 -231 104q-68 -90 -133 -152q-78 -75 -183 -143q-14 -9 -14 -20q0 -18 31 -29zM335 696q53 227 90 400q31 141 37 247l1 34q0 19 -3 33q-9 35 -45 50q-14 3 -21 21l-3 19q0 3 10 9q132 78 260 78
q75 0 108 -41q34 -38 21 -116l-180 -765l-54 -255q-15 -78 -21 -116q-10 -58 -10 -95q0 -81 48 -150q0 -30 -104 -57q-88 -23 -144 -23q-117 0 -117 131q0 70 31 197q46 187 96 399z" />
    <glyph glyph-name="uni1EC8" unicode="&#x1ec8;" horiz-adv-x="634" 
d="M284 696q53 227 90 400q31 141 37 247l1 34q0 19 -3 33q-9 35 -45 50q-14 3 -21 21l-3 19q0 3 10 9q132 78 260 78q75 0 108 -41q34 -38 21 -116l-180 -765l-54 -255q-15 -78 -21 -116q-10 -58 -10 -95q0 -81 48 -150q0 -30 -104 -57q-88 -23 -144 -23q-117 0 -117 131
q0 70 31 197q46 187 96 399zM886 2136q67 -33 73 -102q5 -65 -61 -124q-23 -19 -66 -47l-66 -44q-33 -23 -50 -41q-15 -16 -13 -30q1 -16 23 -44q-63 -38 -113 -42q-37 -3 -61 19q-24 20 -25 41q-4 46 42 81l10 7l79 52q20 14 38 28q36 29 58 60t19 61q-4 50 -74 45
q-65 -6 -87 -60q-16 -19 -45 -27q-64 28 -67 60q-4 50 79 88q66 30 154 38q97 7 153 -19z" />
    <glyph glyph-name="Itilde" unicode="&#x128;" horiz-adv-x="634" 
d="M284 696q53 227 90 400q31 141 37 247l1 34q0 19 -3 33q-9 35 -45 50q-14 3 -21 21l-3 19q0 3 10 9q132 78 260 78q75 0 108 -41q34 -38 21 -116l-180 -765l-54 -255q-15 -78 -21 -116q-10 -58 -10 -95q0 -81 48 -150q0 -30 -104 -57q-88 -23 -144 -23q-117 0 -117 131
q0 70 31 197q46 187 96 399zM1066 1789q-61 -70 -146 -70q-69 0 -212 77q-124 70 -177 70h-12l-13 -3q-58 -17 -83 -118l-13 -32q-2 -2 -6 -2q-21 0 -40 15q-20 17 -20 33l5 51q21 92 76 153q58 60 138 60q41 1 99 -21q42 -16 116 -54q133 -68 184 -68l21 3q61 16 85 123
l9 29q2 1 6 1q6 0 21 -5q41 -20 41 -70q-14 -104 -79 -172z" />
    <glyph glyph-name="uni1ECA" unicode="&#x1eca;" horiz-adv-x="634" 
d="M284 696q53 227 90 400q30 141 36 247l2 34q0 19 -4 33q-8 35 -45 50q-13 3 -20 21l-4 19q1 3 10 9q133 78 260 78q76 0 109 -41q33 -38 20 -116l-180 -765l-53 -255q-16 -78 -22 -116q-9 -58 -9 -95q0 -81 47 -150q0 -30 -103 -57q-89 -23 -145 -23q-116 0 -116 131
q0 70 30 197q47 187 97 399zM111 -314q0 27 4 52l8 40q1 4 3 9l2 8q2 9 4 15q4 16 4 28q86 43 153 43q127 0 127 -105q0 -46 -35 -135q-83 -49 -164 -49q-106 0 -106 94z" />
    <glyph glyph-name="Ograve" unicode="&#xd2;" 
d="M1490 1085q0 -412 -254 -762q-125 -172 -282 -268q-170 -104 -352 -104q-451 0 -451 524q0 423 248 768q123 170 279 265q168 102 354 102q458 0 458 -525zM906 252q86 99 153 261q59 144 93 310q31 154 31 277q0 156 -53 242q-58 96 -174 96q-91 0 -183 -94
q-85 -85 -156 -233q-149 -308 -149 -605q0 -187 52 -287q58 -114 176 -96q112 17 210 129zM1184 1706q-30 -11 -56 -6q-185 36 -321 110t-136 136q0 43 75 82q80 41 167 28l39 -58q23 -34 39 -56q47 -63 100 -107l112 -83q13 -12 13 -17q0 -18 -32 -29z" />
    <glyph glyph-name="Oacute" unicode="&#xd3;" 
d="M946 1704q29 -11 55 -6q194 34 348 121q127 60 127 125q0 104 -231 104q-68 -90 -133 -152q-78 -75 -183 -143q-14 -9 -14 -20q0 -18 31 -29zM1490 1085q0 -412 -254 -762q-125 -172 -282 -268q-170 -104 -352 -104q-451 0 -451 524q0 423 248 768q123 170 279 265
q168 102 354 102q458 0 458 -525zM906 252q86 99 153 261q59 144 93 310q31 154 31 277q0 156 -53 242q-58 96 -174 96q-91 0 -183 -94q-85 -85 -156 -233q-149 -308 -149 -605q0 -187 52 -287q58 -114 176 -96q112 17 210 129z" />
    <glyph glyph-name="uni1ECE" unicode="&#x1ece;" 
d="M1490 1085q0 -412 -254 -762q-125 -172 -282 -268q-170 -104 -352 -104q-451 0 -451 524q0 423 248 768q123 170 279 265q168 102 354 102q458 0 458 -525zM906 252q86 99 153 261q59 144 93 310q31 154 31 277q0 156 -53 242q-58 96 -174 96q-91 0 -183 -94
q-85 -85 -156 -233q-149 -308 -149 -605q0 -187 52 -287q58 -114 176 -96q112 17 210 129zM1348 2136q67 -33 73 -102q5 -65 -61 -124q-23 -19 -66 -47l-66 -44q-33 -23 -50 -41q-14 -16 -13 -30q1 -16 23 -44q-63 -38 -112 -42q-37 -3 -62 19q-23 20 -25 41q-4 46 42 81
l10 7l79 52q20 14 38 28q37 29 58 60q22 31 20 61q-4 50 -75 45q-65 -6 -87 -60q-16 -19 -45 -27q-64 28 -67 60q-4 50 80 88q65 30 153 38q97 7 153 -19z" />
    <glyph glyph-name="Otilde" unicode="&#xd5;" 
d="M1490 1085q0 -412 -254 -762q-125 -172 -282 -268q-170 -104 -352 -104q-451 0 -451 524q0 423 248 768q123 170 279 265q168 102 354 102q458 0 458 -525zM906 252q86 99 153 261q59 144 93 310q31 154 31 277q0 156 -53 242q-58 96 -174 96q-91 0 -183 -94
q-85 -85 -156 -233q-149 -308 -149 -605q0 -187 52 -287q58 -114 176 -96q112 17 210 129zM1457 1789q-61 -70 -146 -70q-69 0 -211 77q-125 70 -178 70h-12l-13 -3q-58 -17 -83 -118l-13 -32q-2 -2 -6 -2q-20 0 -39 15q-21 17 -21 33l6 51q20 92 75 153q58 60 138 60
q41 1 99 -21q42 -16 117 -54q133 -68 183 -68l21 3q61 16 85 123l9 29q2 1 6 1q6 0 21 -5q41 -20 41 -70q-14 -104 -79 -172z" />
    <glyph glyph-name="uni1ECC" unicode="&#x1ecc;" 
d="M1490 1085q0 -412 -254 -762q-125 -172 -282 -268q-170 -104 -352 -104q-451 0 -451 524q0 423 248 768q123 170 279 265q168 102 354 102q458 0 458 -525zM906 252q86 99 153 261q59 144 93 310q31 154 31 277q0 156 -53 242q-58 96 -174 96q-91 0 -183 -94
q-85 -85 -156 -233q-149 -308 -149 -605q0 -187 52 -287q58 -114 176 -96q112 17 210 129zM212 -314q0 27 3 52l9 40q1 4 2 9l2 8q3 9 4 15q4 16 4 28q86 43 154 43q127 0 127 -105q0 -46 -35 -135q-83 -49 -164 -49q-106 0 -106 94z" />
    <glyph glyph-name="Ocircumflex" unicode="&#xd4;" 
d="M1490 1085q0 -412 -254 -762q-125 -172 -282 -268q-170 -104 -352 -104q-451 0 -451 524q0 423 248 768q123 170 279 265q168 102 354 102q458 0 458 -525zM906 252q86 99 153 261q59 144 93 310q31 154 31 277q0 156 -53 242q-58 96 -174 96q-91 0 -183 -94
q-85 -85 -156 -233q-149 -308 -149 -605q0 -187 52 -287q58 -114 176 -96q112 17 210 129zM1369 1708q-13 -4 -26 -5l-14 -1q-82 0 -230 162q-213 -162 -327 -162q-60 0 -60 31l162 139q218 190 303 190q31 0 49 -12q59 -164 205 -303q-23 -29 -62 -39z" />
    <glyph glyph-name="uni1ED2" unicode="&#x1ed2;" 
d="M1490 1085q0 -412 -254 -762q-125 -172 -282 -268q-170 -104 -352 -104q-451 0 -451 524q0 423 248 768q123 170 279 265q168 102 354 102q458 0 458 -525zM906 252q86 99 153 261q59 144 93 310q31 154 31 277q0 156 -53 242q-58 96 -174 96q-91 0 -183 -94
q-85 -85 -156 -233q-149 -308 -149 -605q0 -187 52 -287q58 -114 176 -96q112 17 210 129zM1445 2068q-30 -11 -56 -6q-185 36 -321 110t-136 136q0 43 75 82q80 41 167 28l39 -58q23 -34 39 -56q47 -63 100 -107l112 -83q13 -12 13 -17q0 -18 -32 -29zM1369 1708
q-13 -4 -26 -5l-14 -1q-82 0 -230 162q-213 -162 -327 -162q-60 0 -60 31l162 139q218 190 303 190q31 0 49 -12q59 -164 205 -303q-23 -29 -62 -39z" />
    <glyph glyph-name="uni1ED0" unicode="&#x1ed0;" 
d="M1326 1984q0 11 14 20q105 68 183 143q65 62 133 152q231 0 231 -104q0 -65 -127 -125q-154 -87 -348 -121q-26 -5 -55 6q-31 11 -31 29zM1490 1085q0 -412 -254 -762q-125 -172 -282 -268q-170 -104 -352 -104q-451 0 -451 524q0 423 248 768q123 170 279 265
q168 102 354 102q458 0 458 -525zM906 252q86 99 153 261q59 144 93 310q31 154 31 277q0 156 -53 242q-58 96 -174 96q-91 0 -183 -94q-85 -85 -156 -233q-149 -308 -149 -605q0 -187 52 -287q58 -114 176 -96q112 17 210 129zM1369 1708q-13 -4 -26 -5l-14 -1
q-82 0 -230 162q-213 -162 -327 -162q-60 0 -60 31l162 139q218 190 303 190q31 0 49 -12q59 -164 205 -303q-23 -29 -62 -39z" />
    <glyph glyph-name="uni1ED4" unicode="&#x1ed4;" 
d="M1490 1085q0 -412 -254 -762q-125 -172 -282 -268q-170 -104 -352 -104q-451 0 -451 524q0 423 248 768q123 170 279 265q168 102 354 102q458 0 458 -525zM906 252q86 99 153 261q59 144 93 310q31 154 31 277q0 156 -53 242q-58 96 -174 96q-91 0 -183 -94
q-85 -85 -156 -233q-149 -308 -149 -605q0 -187 52 -287q58 -114 176 -96q112 17 210 129zM1679 2417q67 -33 73 -102q5 -65 -61 -124q-23 -19 -66 -47l-66 -44q-33 -23 -50 -41q-14 -16 -13 -30q1 -16 23 -44q-63 -38 -112 -42q-37 -3 -62 19q-23 20 -25 41q-4 46 42 81
l10 7l79 52q20 14 38 28q37 29 58 60q22 31 20 61q-4 50 -75 45q-65 -6 -87 -60q-16 -19 -45 -27q-64 28 -67 60q-4 50 80 88q65 30 153 38q97 7 153 -19zM1369 1708q-13 -4 -26 -5l-14 -1q-82 0 -230 162q-213 -162 -327 -162q-60 0 -60 31l162 139q218 190 303 190
q31 0 49 -12q59 -164 205 -303q-23 -29 -62 -39z" />
    <glyph glyph-name="uni1ED6" unicode="&#x1ed6;" 
d="M1490 1085q0 -412 -254 -762q-125 -172 -282 -268q-170 -104 -352 -104q-451 0 -451 524q0 423 248 768q123 170 279 265q168 102 354 102q458 0 458 -525zM906 252q86 99 153 261q59 144 93 310q31 154 31 277q0 156 -53 242q-58 96 -174 96q-91 0 -183 -94
q-85 -85 -156 -233q-149 -308 -149 -605q0 -187 52 -287q58 -114 176 -96q112 17 210 129zM1607 2091q-61 -70 -146 -70q-69 0 -211 77q-125 70 -178 70h-12l-13 -3q-58 -17 -83 -118l-13 -32q-2 -2 -6 -2q-20 0 -39 15q-21 17 -21 33l6 51q20 92 75 153q58 60 138 60
q41 1 99 -21q42 -16 117 -54q133 -68 183 -68l21 3q61 16 85 123l9 29q2 1 6 1q6 0 21 -5q41 -20 41 -70q-14 -104 -79 -172zM1369 1708q-13 -4 -26 -5l-14 -1q-82 0 -230 162q-213 -162 -327 -162q-60 0 -60 31l162 139q218 190 303 190q31 0 49 -12q59 -164 205 -303
q-23 -29 -62 -39z" />
    <glyph glyph-name="uni1ED8" unicode="&#x1ed8;" 
d="M1490 1085q0 -412 -254 -762q-125 -172 -282 -268q-170 -104 -352 -104q-451 0 -451 524q0 423 248 768q123 170 279 265q168 102 354 102q458 0 458 -525zM906 252q86 99 153 261q59 144 93 310q31 154 31 277q0 156 -53 242q-58 96 -174 96q-91 0 -183 -94
q-85 -85 -156 -233q-149 -308 -149 -605q0 -187 52 -287q58 -114 176 -96q112 17 210 129zM212 -314q0 27 3 52l9 40q1 4 2 9l2 8q3 9 4 15q4 16 4 28q86 43 154 43q127 0 127 -105q0 -46 -35 -135q-83 -49 -164 -49q-106 0 -106 94zM1369 1708q-13 -4 -26 -5l-14 -1
q-82 0 -230 162q-213 -162 -327 -162q-60 0 -60 31l162 139q218 190 303 190q31 0 49 -12q59 -164 205 -303q-23 -29 -62 -39z" />
    <glyph glyph-name="Ugrave" unicode="&#xd9;" horiz-adv-x="1439" 
d="M1109 1706q-30 -11 -57 -6q-184 36 -321 110q-135 74 -135 136q0 43 75 82q80 41 166 28l39 -58q23 -34 40 -56q47 -63 100 -107l111 -83q14 -12 14 -17q0 -18 -32 -29zM1025 32q-20 44 -20 134v72q0 6 -2 4q-59 -68 -108 -115q-59 -55 -115 -91q-128 -83 -272 -83
q-174 0 -259 116q-71 96 -71 257q0 50 6 96q10 75 43 224l96 425q17 74 28 129q27 133 30 189q0 50 -18 84l-24 38q-4 7 -7 13q41 35 129 54q68 15 129 15q106 0 112 -92q0 -57 -20 -166q-17 -88 -51 -228q-12 -50 -30 -124l-60 -245l-25 -111q-20 -93 -29 -148
q-12 -74 -12 -125q0 -188 147 -188q142 0 291 176q40 54 74 144q27 70 57 182q56 202 107 420q56 245 74 370q1 11 -1 21l-4 20q-8 56 51 79q42 15 124 15q99 0 132 -15q31 -15 31 -60q-1 -26 -15 -70q-2 -7 -6 -19l-2 -5l-20 -60q-44 -149 -79 -277q-42 -154 -71 -282
q-34 -147 -51 -262q-20 -128 -20 -217q0 -53 6 -93q27 -158 82 -206q-115 -81 -254 -68q-75 8 -103 73z" />
    <glyph glyph-name="Uacute" unicode="&#xda;" horiz-adv-x="1439" 
d="M876 1704q30 -11 56 -6q194 34 348 121q127 60 127 125q0 104 -232 104q-67 -90 -132 -152q-78 -75 -183 -143q-14 -9 -14 -20q0 -18 30 -29zM1025 32q-20 44 -20 134v72q0 6 -2 4q-59 -68 -108 -115q-59 -55 -115 -91q-128 -83 -272 -83q-174 0 -259 116q-71 96 -71 257
q0 50 6 96q10 75 43 224l96 425q17 74 28 129q27 133 30 189q0 50 -18 84l-24 38q-4 7 -7 13q41 35 129 54q68 15 129 15q106 0 112 -92q0 -57 -20 -166q-17 -88 -51 -228q-12 -50 -30 -124l-60 -245l-25 -111q-20 -93 -29 -148q-12 -74 -12 -125q0 -188 147 -188
q142 0 291 176q40 54 74 144q27 70 57 182q56 202 107 420q56 245 74 370q1 11 -1 21l-4 20q-8 56 51 79q42 15 124 15q99 0 132 -15q31 -15 31 -60q-1 -26 -15 -70q-2 -7 -6 -19l-2 -5l-20 -60q-44 -149 -79 -277q-42 -154 -71 -282q-34 -147 -51 -262q-20 -128 -20 -217
q0 -53 6 -93q27 -158 82 -206q-115 -81 -254 -68q-75 8 -103 73z" />
    <glyph glyph-name="uni1EE6" unicode="&#x1ee6;" horiz-adv-x="1439" 
d="M1025 32q-20 44 -20 134v72q0 6 -2 4q-59 -68 -108 -115q-59 -55 -115 -91q-128 -83 -272 -83q-174 0 -259 116q-71 96 -71 257q0 50 6 96q10 75 43 224l96 425q17 74 28 129q27 133 30 189q0 50 -18 84l-24 38q-4 7 -7 13q41 35 129 54q68 15 129 15q106 0 112 -92
q0 -57 -20 -166q-17 -88 -51 -228q-12 -50 -30 -124l-60 -245l-25 -111q-20 -93 -29 -148q-12 -74 -12 -125q0 -188 147 -188q142 0 291 176q40 54 74 144q27 70 57 182q56 202 107 420q56 245 74 370q1 11 -1 21l-4 20q-8 56 51 79q42 15 124 15q99 0 132 -15
q31 -15 31 -60q-1 -26 -15 -70q-2 -7 -6 -19l-2 -5l-20 -60q-44 -149 -79 -277q-42 -154 -71 -282q-34 -147 -51 -262q-20 -128 -20 -217q0 -53 6 -93q27 -158 82 -206q-115 -81 -254 -68q-75 8 -103 73zM1318 2136q68 -33 73 -102q5 -65 -60 -124q-24 -19 -66 -47l-66 -44
q-33 -23 -50 -41q-15 -16 -14 -30q1 -16 24 -44q-64 -38 -113 -42q-37 -3 -62 19q-23 20 -25 41q-3 46 42 81l11 7l79 52q19 14 37 28q37 29 58 60q22 31 20 61q-4 50 -74 45q-65 -6 -87 -60q-17 -19 -46 -27q-64 28 -66 60q-4 50 79 88q65 30 153 38q98 7 153 -19z" />
    <glyph glyph-name="Utilde" unicode="&#x168;" horiz-adv-x="1439" 
d="M1025 32q-20 44 -20 134v72q0 6 -2 4q-59 -68 -108 -115q-59 -55 -115 -91q-128 -83 -272 -83q-174 0 -259 116q-71 96 -71 257q0 50 6 96q10 75 43 224l96 425q17 74 28 129q27 133 30 189q0 50 -18 84l-24 38q-4 7 -7 13q41 35 129 54q68 15 129 15q106 0 112 -92
q0 -57 -20 -166q-17 -88 -51 -228q-12 -50 -30 -124l-60 -245l-25 -111q-20 -93 -29 -148q-12 -74 -12 -125q0 -188 147 -188q142 0 291 176q40 54 74 144q27 70 57 182q56 202 107 420q56 245 74 370q1 11 -1 21l-4 20q-8 56 51 79q42 15 124 15q99 0 132 -15
q31 -15 31 -60q-1 -26 -15 -70q-2 -7 -6 -19l-2 -5l-20 -60q-44 -149 -79 -277q-42 -154 -71 -282q-34 -147 -51 -262q-20 -128 -20 -217q0 -53 6 -93q27 -158 82 -206q-115 -81 -254 -68q-75 8 -103 73zM1387 1789q-61 -70 -145 -70q-70 0 -212 77q-125 70 -178 70h-11
l-13 -3q-58 -17 -83 -118l-14 -32q-2 -2 -5 -2q-21 0 -40 15q-21 17 -21 33l6 51q20 92 75 153q58 60 138 60q42 1 100 -21q42 -16 116 -54q133 -68 183 -68l21 3q61 16 85 123l10 29q1 1 5 1q7 0 21 -5q42 -20 42 -70q-15 -104 -80 -172z" />
    <glyph glyph-name="uni1EE4" unicode="&#x1ee4;" horiz-adv-x="1439" 
d="M1025 32q-20 44 -20 134v72q0 6 -2 4q-59 -68 -108 -115q-59 -55 -115 -91q-128 -83 -272 -83q-174 0 -259 116q-71 96 -71 257q0 50 6 96q10 75 43 224l96 425q17 74 28 129q27 133 30 189q0 50 -18 84l-24 38q-4 7 -7 13q41 35 129 54q68 15 129 15q106 0 112 -92
q0 -57 -20 -166q-17 -88 -51 -228q-12 -50 -30 -124l-60 -245l-25 -111q-20 -93 -29 -148q-12 -74 -12 -125q0 -188 147 -188q142 0 291 176q40 54 74 144q27 70 57 182q56 202 107 420q56 245 74 370q1 11 -1 21l-4 20q-8 56 51 79q42 15 124 15q99 0 132 -15
q31 -15 31 -60q-1 -26 -15 -70q-2 -7 -6 -19l-2 -5l-20 -60q-44 -149 -79 -277q-42 -154 -71 -282q-34 -147 -51 -262q-20 -128 -20 -217q0 -53 6 -93q27 -158 82 -206q-115 -81 -254 -68q-75 8 -103 73zM564 -314q0 27 4 52l8 40q1 4 3 9l2 8q2 9 4 15q4 16 4 28
q86 43 153 43q127 0 127 -105q0 -46 -35 -135q-83 -49 -164 -49q-106 0 -106 94z" />
    <glyph glyph-name="Uhorn" unicode="&#x1af;" horiz-adv-x="1439" 
d="M1492 1282q-161 -556 -196 -934l-4 -59q0 -111 76 -158q25 -29 25 -51q-141 -109 -269 -109q-123 0 -123 191l5 76q0 4 -2 4q-15 -17 -46 -47q-96 -115 -202 -175q-118 -67 -248 -67q-329 0 -332 373q0 20 3 47l5 49q21 160 97 450q28 110 46 191q22 94 33 162
q17 90 21 164q0 70 -29 96l-20 39q23 20 57 30q111 39 201 39q107 0 112 -92q0 -44 -32 -205q-16 -76 -37 -168l-79 -334l-38 -167q-25 -116 -37 -205l-4 -68q0 -158 107 -182q21 -6 41 -6q23 0 45 6q120 23 245 170q74 144 131 326q28 101 62 238l59 253q43 179 60 299
l-4 41q63 94 174 94h32l37 -4q95 -5 95 -61v-10q-11 -41 -27 -98q63 53 63 146q0 54 -43 116q69 66 184 66q111 0 111 -98q0 -120 -130 -238q-61 -54 -130 -92q-52 -28 -95 -38z" />
    <glyph glyph-name="uni1EEA" unicode="&#x1eea;" horiz-adv-x="1439" 
d="M1109 1706q-30 -11 -56 -6q-185 36 -322 110q-135 74 -135 136q0 43 75 82q80 41 167 28l38 -58q23 -34 40 -56q47 -63 100 -107l112 -83q13 -12 13 -17q0 -18 -32 -29zM1491 1281q-30 -102 -55 -194q-42 -154 -71 -282q-33 -147 -51 -262q-20 -128 -20 -217q0 -53 6 -93
q27 -158 82 -206q-115 -81 -254 -68q-75 8 -103 73q-19 44 -19 134v72q0 6 -2 4q-60 -68 -109 -115q-59 -55 -115 -91q-128 -83 -272 -83q-174 0 -259 116q-71 96 -71 257q0 50 6 96q10 75 43 224l96 425q17 74 28 129q27 133 30 189q0 50 -18 84l-24 38q-4 7 -7 13
q41 35 129 54q68 15 129 15q107 0 112 -92q0 -57 -20 -166q-17 -88 -50 -228q-12 -50 -31 -124l-60 -245l-25 -111q-20 -93 -29 -148q-12 -74 -12 -125q0 -188 148 -188q142 0 290 176q40 54 74 144q27 70 57 182q56 202 107 420q56 245 74 370q1 11 -1 21l-3 20
q-9 56 51 79q41 15 123 15q100 0 132 -15t32 -60q-2 -26 -16 -70q-2 -7 -6 -19l-2 -5l-1 -2q61 53 61 144q0 54 -43 116q69 66 184 66q111 0 111 -98q0 -120 -130 -238q-61 -54 -130 -92q-52 -28 -96 -39z" />
    <glyph glyph-name="uni1EE8" unicode="&#x1ee8;" horiz-adv-x="1439" 
d="M877 1704q29 -11 55 -6q194 34 348 121q127 60 127 125q0 104 -231 104q-68 -90 -133 -152q-78 -75 -183 -143q-14 -9 -14 -20q0 -18 31 -29zM1491 1281q-30 -102 -55 -194q-42 -154 -71 -282q-33 -147 -51 -262q-20 -128 -20 -217q0 -53 6 -93q27 -158 82 -206
q-115 -81 -254 -68q-75 8 -103 73q-19 44 -19 134v72q0 6 -2 4q-60 -68 -109 -115q-59 -55 -115 -91q-128 -83 -272 -83q-174 0 -259 116q-71 96 -71 257q0 50 6 96q10 75 43 224l96 425q17 74 28 129q27 133 30 189q0 50 -18 84l-24 38q-4 7 -7 13q41 35 129 54
q68 15 129 15q107 0 112 -92q0 -57 -20 -166q-17 -88 -50 -228q-12 -50 -31 -124l-60 -245l-25 -111q-20 -93 -29 -148q-12 -74 -12 -125q0 -188 148 -188q142 0 290 176q40 54 74 144q27 70 57 182q56 202 107 420q56 245 74 370q1 11 -1 21l-3 20q-9 56 51 79
q41 15 123 15q100 0 132 -15t32 -60q-2 -26 -16 -70q-2 -7 -6 -19l-2 -5l-1 -2q61 53 61 144q0 54 -43 116q69 66 184 66q111 0 111 -98q0 -120 -130 -238q-61 -54 -130 -92q-52 -28 -96 -39z" />
    <glyph glyph-name="uni1EEC" unicode="&#x1eec;" horiz-adv-x="1439" 
d="M1318 2136q68 -33 73 -102q5 -65 -60 -124q-24 -19 -66 -47l-66 -44q-33 -23 -50 -41q-15 -16 -14 -30q2 -16 24 -44q-63 -38 -113 -42q-37 -3 -62 19q-23 20 -25 41q-3 46 42 81l11 7l79 52l38 28q36 29 58 60t19 61q-4 50 -74 45q-65 -6 -87 -60q-17 -19 -46 -27
q-64 28 -66 60q-4 50 79 88q66 30 153 38q98 7 153 -19zM1491 1281q-30 -102 -55 -194q-42 -154 -71 -282q-33 -147 -51 -262q-20 -128 -20 -217q0 -53 6 -93q27 -158 82 -206q-115 -81 -254 -68q-75 8 -103 73q-19 44 -19 134v72q0 6 -2 4q-60 -68 -109 -115
q-59 -55 -115 -91q-128 -83 -272 -83q-174 0 -259 116q-71 96 -71 257q0 50 6 96q10 75 43 224l96 425q17 74 28 129q27 133 30 189q0 50 -18 84l-24 38q-4 7 -7 13q41 35 129 54q68 15 129 15q107 0 112 -92q0 -57 -20 -166q-17 -88 -50 -228q-12 -50 -31 -124l-60 -245
l-25 -111q-20 -93 -29 -148q-12 -74 -12 -125q0 -188 148 -188q142 0 290 176q40 54 74 144q27 70 57 182q56 202 107 420q56 245 74 370q1 11 -1 21l-3 20q-9 56 51 79q41 15 123 15q100 0 132 -15t32 -60q-2 -26 -16 -70q-2 -7 -6 -19l-2 -5l-1 -2q61 53 61 144
q0 54 -43 116q69 66 184 66q111 0 111 -98q0 -120 -130 -238q-61 -54 -130 -92q-52 -28 -96 -39z" />
    <glyph glyph-name="uni1EEE" unicode="&#x1eee;" horiz-adv-x="1439" 
d="M1387 1789q-61 -70 -145 -70q-70 0 -212 77q-124 70 -177 70h-12l-13 -3q-58 -17 -83 -118l-13 -32q-2 -2 -6 -2q-21 0 -40 15q-21 17 -21 33l6 51q20 92 76 153q58 60 138 60q41 1 99 -21q42 -16 116 -54q133 -68 183 -68l21 3q62 16 85 123l10 29q2 1 5 1q7 0 21 -5
q42 -20 42 -70q-15 -104 -80 -172zM1491 1281q-30 -102 -55 -194q-42 -154 -71 -282q-33 -147 -51 -262q-20 -128 -20 -217q0 -53 6 -93q27 -158 82 -206q-115 -81 -254 -68q-75 8 -103 73q-19 44 -19 134v72q0 6 -2 4q-60 -68 -109 -115q-59 -55 -115 -91
q-128 -83 -272 -83q-174 0 -259 116q-71 96 -71 257q0 50 6 96q10 75 43 224l96 425q17 74 28 129q27 133 30 189q0 50 -18 84l-24 38q-4 7 -7 13q41 35 129 54q68 15 129 15q107 0 112 -92q0 -57 -20 -166q-17 -88 -50 -228q-12 -50 -31 -124l-60 -245l-25 -111
q-20 -93 -29 -148q-12 -74 -12 -125q0 -188 148 -188q142 0 290 176q40 54 74 144q27 70 57 182q56 202 107 420q56 245 74 370q1 11 -1 21l-3 20q-9 56 51 79q41 15 123 15q100 0 132 -15t32 -60q-2 -26 -16 -70q-2 -7 -6 -19l-2 -5l-1 -2q61 53 61 144q0 54 -43 116
q69 66 184 66q111 0 111 -98q0 -120 -130 -238q-61 -54 -130 -92q-52 -28 -96 -39z" />
    <glyph glyph-name="uni1EF0" unicode="&#x1ef0;" horiz-adv-x="1439" 
d="M564 -314q0 27 4 52l8 40q1 4 3 9l2 8q3 9 4 15q4 16 4 28q86 43 153 43q127 0 127 -105q0 -46 -35 -135q-82 -49 -163 -49q-107 0 -107 94zM1491 1281q-30 -102 -55 -194q-42 -154 -71 -282q-33 -147 -51 -262q-20 -128 -20 -217q0 -53 6 -93q27 -158 82 -206
q-115 -81 -254 -68q-75 8 -103 73q-19 44 -19 134v72q0 6 -2 4q-60 -68 -109 -115q-59 -55 -115 -91q-128 -83 -272 -83q-174 0 -259 116q-71 96 -71 257q0 50 6 96q10 75 43 224l96 425q17 74 28 129q27 133 30 189q0 50 -18 84l-24 38q-4 7 -7 13q41 35 129 54
q68 15 129 15q107 0 112 -92q0 -57 -20 -166q-17 -88 -50 -228q-12 -50 -31 -124l-60 -245l-25 -111q-20 -93 -29 -148q-12 -74 -12 -125q0 -188 148 -188q142 0 290 176q40 54 74 144q27 70 57 182q56 202 107 420q56 245 74 370q1 11 -1 21l-3 20q-9 56 51 79
q41 15 123 15q100 0 132 -15t32 -60q-2 -26 -16 -70q-2 -7 -6 -19l-2 -5l-1 -2q61 53 61 144q0 54 -43 116q69 66 184 66q111 0 111 -98q0 -120 -130 -238q-61 -54 -130 -92q-52 -28 -96 -39z" />
    <glyph glyph-name="Ohorn" unicode="&#x1a0;" 
d="M1490 1085q0 -412 -254 -762q-125 -172 -282 -268q-170 -104 -352 -104q-451 0 -451 524q0 423 248 768q123 170 279 265q168 102 354 102q458 0 458 -525zM906 252q86 99 153 261q59 144 93 310q31 154 31 277q0 156 -53 242q-58 96 -174 96q-91 0 -183 -94
q-85 -85 -156 -233q-149 -308 -149 -605q0 -187 52 -287q58 -114 176 -96q112 17 210 129zM1259 1289q-27 17 -27 44q0 6 2 13l5 12q215 37 215 208q0 54 -44 116q69 66 184 66q111 0 111 -98q0 -120 -129 -238q-61 -54 -131 -92q-83 -45 -145 -45q-20 0 -41 14z" />
    <glyph glyph-name="uni1EDC" unicode="&#x1edc;" 
d="M905 252q86 99 153 261q59 144 93 310q32 154 32 277q0 156 -53 242q-58 96 -175 96q-91 0 -183 -94q-84 -85 -156 -233q-148 -308 -148 -605q0 -187 51 -287q59 -114 176 -96q113 17 210 129zM1184 1706q-30 -11 -57 -6q-184 36 -321 110q-135 74 -135 136q0 43 74 82
q81 41 167 28l39 -58q23 -34 40 -56q47 -63 100 -107l111 -83q14 -12 14 -17q0 -18 -32 -29zM1458 1327q32 -102 32 -242q0 -412 -255 -762q-125 -172 -282 -268q-169 -104 -352 -104q-450 0 -450 524q0 423 248 768q122 170 279 265q168 102 353 102q264 0 376 -174
q46 51 46 130q0 54 -43 116q69 66 184 66q111 0 111 -98q0 -120 -130 -238q-55 -49 -117 -85z" />
    <glyph glyph-name="uni1EDA" unicode="&#x1eda;" 
d="M945 1704q29 -11 55 -6q195 34 349 121q127 60 127 125q0 104 -232 104q-68 -90 -132 -152q-78 -75 -183 -143q-15 -9 -15 -20q0 -18 31 -29zM905 252q86 99 153 261q59 144 93 310q32 154 32 277q0 156 -53 242q-58 96 -175 96q-91 0 -183 -94q-84 -85 -156 -233
q-148 -308 -148 -605q0 -187 51 -287q59 -114 176 -96q113 17 210 129zM1458 1327q32 -102 32 -242q0 -412 -255 -762q-125 -172 -282 -268q-169 -104 -352 -104q-450 0 -450 524q0 423 248 768q122 170 279 265q168 102 353 102q264 0 376 -174q46 51 46 130q0 54 -43 116
q69 66 184 66q111 0 111 -98q0 -120 -130 -238q-55 -49 -117 -85z" />
    <glyph glyph-name="uni1EDE" unicode="&#x1ede;" 
d="M905 252q86 99 153 261q59 144 93 310q32 154 32 277q0 156 -53 242q-58 96 -175 96q-91 0 -183 -94q-84 -85 -156 -233q-148 -308 -148 -605q0 -187 51 -287q59 -114 176 -96q113 17 210 129zM1347 2136q68 -33 73 -102q5 -65 -60 -124q-24 -19 -66 -47l-66 -44
q-33 -23 -50 -41q-15 -16 -14 -30q2 -16 24 -44q-63 -38 -113 -42q-37 -3 -62 19q-23 20 -25 41q-3 46 42 81l11 7l79 52l38 28q36 29 58 60t19 61q-4 50 -74 45q-65 -6 -87 -60q-17 -19 -46 -27q-64 28 -66 60q-4 50 79 88q66 30 153 38q98 7 153 -19zM1458 1327
q32 -102 32 -242q0 -412 -255 -762q-125 -172 -282 -268q-169 -104 -352 -104q-450 0 -450 524q0 423 248 768q122 170 279 265q168 102 353 102q264 0 376 -174q46 51 46 130q0 54 -43 116q69 66 184 66q111 0 111 -98q0 -120 -130 -238q-55 -49 -117 -85z" />
    <glyph glyph-name="uni1EE0" unicode="&#x1ee0;" 
d="M905 252q86 99 153 261q59 144 93 310q32 154 32 277q0 156 -53 242q-58 96 -175 96q-91 0 -183 -94q-84 -85 -156 -233q-148 -308 -148 -605q0 -187 51 -287q59 -114 176 -96q113 17 210 129zM1456 1789q-61 -70 -145 -70q-70 0 -212 77q-124 70 -177 70h-12l-13 -3
q-58 -17 -83 -118l-13 -32q-2 -2 -6 -2q-21 0 -40 15q-21 17 -21 33l6 51q20 92 76 153q58 60 138 60q41 1 99 -21q42 -16 116 -54q133 -68 183 -68l21 3q62 16 85 123l10 29q2 1 5 1q7 0 21 -5q42 -20 42 -70q-15 -104 -80 -172zM1458 1327q32 -102 32 -242
q0 -412 -255 -762q-125 -172 -282 -268q-169 -104 -352 -104q-450 0 -450 524q0 423 248 768q122 170 279 265q168 102 353 102q264 0 376 -174q46 51 46 130q0 54 -43 116q69 66 184 66q111 0 111 -98q0 -120 -130 -238q-55 -49 -117 -85z" />
    <glyph glyph-name="uni1EE2" unicode="&#x1ee2;" 
d="M905 252q86 99 153 261q59 144 93 310q32 154 32 277q0 156 -53 242q-58 96 -175 96q-91 0 -183 -94q-84 -85 -156 -233q-148 -308 -148 -605q0 -187 51 -287q59 -114 176 -96q113 17 210 129zM211 -314q0 27 4 52l8 40q1 4 3 9l2 8q3 9 4 15q4 16 4 28q86 43 153 43
q127 0 127 -105q0 -46 -35 -135q-82 -49 -163 -49q-107 0 -107 94zM1458 1327q32 -102 32 -242q0 -412 -255 -762q-125 -172 -282 -268q-169 -104 -352 -104q-450 0 -450 524q0 423 248 768q122 170 279 265q168 102 353 102q264 0 376 -174q46 51 46 130q0 54 -43 116
q69 66 184 66q111 0 111 -98q0 -120 -130 -238q-55 -49 -117 -85z" />
    <glyph glyph-name="Ygrave" unicode="&#x1ef2;" horiz-adv-x="1189" 
d="M1161 1034q45 56 81 104q90 119 137 208q58 109 58 182q0 133 -219 133q-39 0 -59 -4q6 -34 6 -70q0 -73 -25 -125q-39 -84 -94 -176l-248 -401l-37 174q-21 92 -39 163q-43 169 -84 263q-51 123 -172 123q-133 0 -268 -129l51 -25q83 -37 171 -261q91 -229 140 -540
q-8 -69 -43 -158q-14 -35 -34 -79l-72 -153q-19 -41 -31 -72q-28 -77 -28 -130q0 -94 129 -94q112 0 215 51q-23 61 -23 111q0 104 84 303q85 200 191 342zM1108 1706q-30 -11 -56 -6q-185 36 -321 110t-136 136q0 43 75 82q80 41 167 28l39 -58q23 -34 39 -56
q47 -63 100 -107l112 -83q13 -12 13 -17q0 -18 -32 -29z" />
    <glyph glyph-name="Yacute" unicode="&#xdd;" horiz-adv-x="1189" 
d="M1161 1034q45 56 81 104q90 119 137 208q58 109 58 182q0 133 -219 133q-39 0 -59 -4q6 -34 6 -70q0 -73 -25 -125q-39 -84 -94 -176l-248 -401l-37 174q-21 92 -39 163q-43 169 -84 263q-51 123 -172 123q-133 0 -268 -129l51 -25q83 -37 171 -261q91 -229 140 -540
q-8 -69 -43 -158q-14 -35 -34 -79l-72 -153q-19 -41 -31 -72q-28 -77 -28 -130q0 -94 129 -94q112 0 215 51q-23 61 -23 111q0 104 84 303q85 200 191 342zM785 1704q29 -11 55 -6q194 34 348 121q127 60 127 125q0 104 -231 104q-68 -90 -132 -152q-79 -75 -183 -143
q-15 -9 -15 -20q0 -18 31 -29z" />
    <glyph glyph-name="uni1EF6" unicode="&#x1ef6;" horiz-adv-x="1189" 
d="M1161 1034q45 56 81 104q90 119 137 208q58 109 58 182q0 133 -219 133q-39 0 -59 -4q6 -34 6 -70q0 -73 -25 -125q-39 -84 -94 -176l-248 -401l-37 174q-21 92 -39 163q-43 169 -84 263q-51 123 -172 123q-133 0 -268 -129l51 -25q83 -37 171 -261q91 -229 140 -540
q-8 -69 -43 -158q-14 -35 -34 -79l-72 -153q-19 -41 -31 -72q-28 -77 -28 -130q0 -94 129 -94q112 0 215 51q-23 61 -23 111q0 104 84 303q85 200 191 342zM1177 2136q67 -33 73 -102q5 -65 -61 -124q-23 -19 -66 -47l-66 -44q-33 -23 -50 -41q-14 -16 -13 -30q1 -16 23 -44
q-63 -38 -112 -42q-38 -3 -62 19q-24 20 -25 41q-4 46 42 81l10 7l79 52q20 14 38 28q36 29 58 60t19 61q-4 50 -74 45q-65 -6 -87 -60q-16 -19 -45 -27q-64 28 -67 60q-4 50 80 88q65 30 153 38q97 7 153 -19z" />
    <glyph glyph-name="uni1EF8" unicode="&#x1ef8;" horiz-adv-x="1189" 
d="M1161 1034q45 56 81 104q90 119 137 208q58 109 58 182q0 133 -219 133q-39 0 -59 -4q6 -34 6 -70q0 -73 -25 -125q-39 -84 -94 -176l-248 -401l-37 174q-21 92 -39 163q-43 169 -84 263q-51 123 -172 123q-133 0 -268 -129l51 -25q83 -37 171 -261q91 -229 140 -540
q-8 -69 -43 -158q-14 -35 -34 -79l-72 -153q-19 -41 -31 -72q-28 -77 -28 -130q0 -94 129 -94q112 0 215 51q-23 61 -23 111q0 104 84 303q85 200 191 342zM1316 1789q-61 -70 -146 -70q-69 0 -211 77q-125 70 -178 70h-12l-13 -3q-58 -17 -83 -118l-13 -32q-2 -2 -6 -2
q-21 0 -39 15q-21 17 -21 33l5 51q21 92 76 153q58 60 138 60q41 1 99 -21q42 -16 116 -54q133 -68 184 -68l21 3q61 16 85 123l9 29q2 1 6 1q6 0 21 -5q41 -20 41 -70q-14 -104 -79 -172z" />
    <glyph glyph-name="uni1EF4" unicode="&#x1ef4;" horiz-adv-x="1189" 
d="M1161 1034q45 56 81 104q90 119 137 208q58 109 58 182q0 133 -219 133q-39 0 -59 -4q6 -34 6 -70q0 -73 -25 -125q-39 -84 -94 -176l-248 -401l-37 174q-21 92 -39 163q-43 169 -84 263q-51 123 -172 123q-133 0 -268 -129l51 -25q83 -37 171 -261q91 -229 140 -540
q-8 -69 -43 -158q-14 -35 -34 -79l-72 -153q-19 -41 -31 -72q-28 -77 -28 -130q0 -94 129 -94q112 0 215 51q-23 61 -23 111q0 104 84 303q85 200 191 342zM242 -314q0 27 3 52l9 40q1 4 2 9l2 8q3 9 4 15q4 16 4 28q86 43 154 43q127 0 127 -105q0 -46 -35 -135
q-83 -49 -164 -49q-106 0 -106 94z" />
    <glyph glyph-name="agrave" unicode="&#xe0;" horiz-adv-x="1183" 
d="M1281 375q11 0 11 -19q0 -112 -127 -242t-236 -130q-182 0 -182 217q0 94 10 166q-231 -376 -438 -385h-23q-116 0 -172 81q-49 72 -49 207q6 305 203 571q93 127 205 199q119 76 239 76q126 0 201 -57q50 53 129 53q87 0 182 -49q-27 -40 -63 -147q-33 -97 -66 -224
q-72 -284 -72 -405q0 -15 3 -28l20 -58q35 6 100 71q94 103 125 103zM768 624q62 120 98 220q-32 119 -164 119q-118 0 -226 -230q-102 -220 -102 -430q6 -106 68 -106q57 0 184 188q75 108 142 239zM965 1263q-30 -10 -56 -6q-185 37 -322 111q-135 73 -135 135q0 44 75 82
q80 42 166 29l39 -58q23 -34 40 -57q47 -63 100 -106l111 -83q14 -12 14 -18q0 -17 -32 -29z" />
    <glyph glyph-name="aacute" unicode="&#xe1;" horiz-adv-x="1183" 
d="M1281 375q11 0 11 -19q0 -112 -127 -242t-236 -130q-182 0 -182 217q0 94 10 166q-231 -376 -438 -385h-23q-116 0 -172 81q-49 72 -49 207q6 305 203 571q93 127 205 199q119 76 239 76q126 0 201 -57q50 53 129 53q87 0 182 -49q-27 -40 -63 -147q-33 -97 -66 -224
q-72 -284 -72 -405q0 -15 3 -28l20 -58q35 6 100 71q94 103 125 103zM768 624q62 120 98 220q-32 119 -164 119q-118 0 -226 -230q-102 -220 -102 -430q6 -106 68 -106q57 0 184 188q75 108 142 239zM677 1261q29 -10 55 -6q195 35 349 121q127 61 127 125q0 105 -232 105
q-68 -90 -132 -152q-78 -76 -183 -143q-15 -9 -15 -21q0 -17 31 -29z" />
    <glyph glyph-name="uni1EA3" unicode="&#x1ea3;" horiz-adv-x="1183" 
d="M1281 375q11 0 11 -19q0 -112 -127 -242t-236 -130q-182 0 -182 217q0 94 10 166q-231 -376 -438 -385h-23q-116 0 -172 81q-49 72 -49 207q6 305 203 571q93 127 205 199q119 76 239 76q126 0 201 -57q50 53 129 53q87 0 182 -49q-27 -40 -63 -147q-33 -97 -66 -224
q-72 -284 -72 -405q0 -15 3 -28l20 -58q35 6 100 71q94 103 125 103zM768 624q62 120 98 220q-32 119 -164 119q-118 0 -226 -230q-102 -220 -102 -430q6 -106 68 -106q57 0 184 188q75 108 142 239zM1137 1675q67 -33 72 -102q6 -65 -60 -124q-24 -19 -66 -47l-66 -44
q-33 -23 -50 -41q-15 -16 -14 -30q2 -16 24 -44q-63 -38 -113 -42q-37 -3 -61 19q-24 20 -25 41q-4 46 41 81l11 7l79 52q20 14 38 28q36 29 58 60t19 61q-4 50 -74 45q-65 -6 -87 -60q-16 -19 -45 -27q-64 28 -67 60q-4 50 79 88q66 30 154 38q97 7 153 -19z" />
    <glyph glyph-name="atilde" unicode="&#xe3;" horiz-adv-x="1183" 
d="M1281 375q11 0 11 -19q0 -112 -127 -242t-236 -130q-182 0 -182 217q0 94 10 166q-231 -376 -438 -385h-23q-116 0 -172 81q-49 72 -49 207q6 305 203 571q93 127 205 199q119 76 239 76q126 0 201 -57q50 53 129 53q87 0 182 -49q-27 -40 -63 -147q-33 -97 -66 -224
q-72 -284 -72 -405q0 -15 3 -28l20 -58q35 6 100 71q94 103 125 103zM768 624q62 120 98 220q-32 119 -164 119q-118 0 -226 -230q-102 -220 -102 -430q6 -106 68 -106q57 0 184 188q75 108 142 239zM1336 1317q-62 -70 -146 -70q-70 0 -212 77q-124 70 -177 70h-12l-13 -3
q-58 -17 -83 -118l-13 -32q-2 -2 -6 -2q-21 0 -40 15q-20 17 -20 33l5 51q20 92 76 153q58 60 138 60q41 1 99 -21q42 -16 116 -54q133 -68 184 -68l20 3q62 16 86 123l9 29q2 1 6 1q6 0 20 -5q42 -20 42 -70q-14 -104 -79 -172z" />
    <glyph glyph-name="uni1EA1" unicode="&#x1ea1;" horiz-adv-x="1183" 
d="M1281 375q11 0 11 -19q0 -112 -127 -242t-236 -130q-182 0 -182 217q0 94 10 166q-231 -376 -438 -385h-23q-116 0 -172 81q-49 72 -49 207q6 305 203 571q93 127 205 199q119 76 239 76q126 0 201 -57q50 53 129 53q87 0 182 -49q-27 -40 -63 -147q-33 -97 -66 -224
q-72 -284 -72 -405q0 -15 3 -28l20 -58q35 6 100 71q94 103 125 103zM768 624q62 120 98 220q-32 119 -164 119q-118 0 -226 -230q-102 -220 -102 -430q6 -106 68 -106q57 0 184 188q75 108 142 239zM391 -314q0 27 4 52l9 40q1 4 2 9l2 8q3 9 4 15q4 16 4 28q86 43 154 43
q127 0 127 -105q0 -46 -35 -135q-83 -49 -164 -49q-107 0 -107 94z" />
    <glyph glyph-name="acircumflex" unicode="&#xe2;" horiz-adv-x="1183" 
d="M1281 375q11 0 11 -19q0 -112 -127 -242t-236 -130q-182 0 -182 217q0 94 10 166q-231 -376 -438 -385h-23q-116 0 -172 81q-49 72 -49 207q6 305 203 571q93 127 205 199q119 76 239 76q126 0 201 -57q50 53 129 53q87 0 182 -49q-27 -40 -63 -147q-33 -97 -66 -224
q-72 -284 -72 -405q0 -15 3 -28l20 -58q35 6 100 71q94 103 125 103zM768 624q62 120 98 220q-32 119 -164 119q-118 0 -226 -230q-102 -220 -102 -430q6 -106 68 -106q57 0 184 188q75 108 142 239zM1131 1263q-13 -3 -26 -5l-14 -1q-82 0 -230 162q-213 -162 -327 -162
q-60 0 -60 31l162 139q218 191 303 191q31 0 49 -12q59 -164 205 -303q-23 -29 -62 -40z" />
    <glyph glyph-name="uni1EA7" unicode="&#x1ea7;" horiz-adv-x="1183" 
d="M1281 375q11 0 11 -19q0 -112 -127 -242t-236 -130q-182 0 -182 217q0 94 10 166q-231 -376 -438 -385h-23q-116 0 -172 81q-49 72 -49 207q6 305 203 571q93 127 205 199q119 76 239 76q126 0 201 -57q50 53 129 53q87 0 182 -49q-27 -40 -63 -147q-33 -97 -66 -224
q-72 -284 -72 -405q0 -15 3 -28l20 -58q35 6 100 71q94 103 125 103zM768 624q62 120 98 220q-32 119 -164 119q-118 0 -226 -230q-102 -220 -102 -430q6 -106 68 -106q57 0 184 188q75 108 142 239zM1186 1624q-30 -10 -56 -6q-185 37 -322 111q-135 73 -135 135
q0 44 75 82q80 42 166 29l39 -58q23 -34 40 -57q47 -63 100 -106l111 -83q14 -12 14 -18q0 -17 -32 -29zM1131 1263q-13 -3 -26 -5l-14 -1q-82 0 -230 162q-213 -162 -327 -162q-60 0 -60 31l162 139q218 191 303 191q31 0 49 -12q59 -164 205 -303q-23 -29 -62 -40z" />
    <glyph glyph-name="uni1EA5" unicode="&#x1ea5;" horiz-adv-x="1183" 
d="M1281 375q11 0 11 -19q0 -112 -127 -242t-236 -130q-182 0 -182 217q0 94 10 166q-231 -376 -438 -385h-23q-116 0 -172 81q-49 72 -49 207q6 305 203 571q93 127 205 199q119 76 239 76q126 0 201 -57q50 53 129 53q87 0 182 -49q-27 -40 -63 -147q-33 -97 -66 -224
q-72 -284 -72 -405q0 -15 3 -28l20 -58q35 6 100 71q94 103 125 103zM768 624q62 120 98 220q-32 119 -164 119q-118 0 -226 -230q-102 -220 -102 -430q6 -106 68 -106q57 0 184 188q75 108 142 239zM1118 1531q0 12 15 21q105 67 183 143q64 62 132 152q232 0 232 -105
q0 -64 -127 -125q-154 -86 -349 -121q-26 -4 -55 6q-31 12 -31 29zM1131 1263q-13 -3 -26 -5l-14 -1q-82 0 -230 162q-213 -162 -327 -162q-60 0 -60 31l162 139q218 191 303 191q31 0 49 -12q59 -164 205 -303q-23 -29 -62 -40z" />
    <glyph glyph-name="uni1EA9" unicode="&#x1ea9;" horiz-adv-x="1183" 
d="M1281 375q11 0 11 -19q0 -112 -127 -242t-236 -130q-182 0 -182 217q0 94 10 166q-231 -376 -438 -385h-23q-116 0 -172 81q-49 72 -49 207q6 305 203 571q93 127 205 199q119 76 239 76q126 0 201 -57q50 53 129 53q87 0 182 -49q-27 -40 -63 -147q-33 -97 -66 -224
q-72 -284 -72 -405q0 -15 3 -28l20 -58q35 6 100 71q94 103 125 103zM768 624q62 120 98 220q-32 119 -164 119q-118 0 -226 -230q-102 -220 -102 -430q6 -106 68 -106q57 0 184 188q75 108 142 239zM1449 1956q67 -33 72 -102q6 -65 -60 -124q-24 -19 -66 -47l-66 -44
q-33 -23 -50 -41q-15 -16 -14 -30q2 -16 24 -44q-63 -38 -113 -42q-37 -3 -61 19q-24 20 -25 41q-4 46 41 81l11 7l79 52q20 14 38 28q36 29 58 60t19 61q-4 50 -74 45q-65 -6 -87 -60q-16 -19 -45 -27q-64 28 -67 60q-4 50 79 88q66 30 154 38q97 7 153 -19zM1131 1263
q-13 -3 -26 -5l-14 -1q-82 0 -230 162q-213 -162 -327 -162q-60 0 -60 31l162 139q218 191 303 191q31 0 49 -12q59 -164 205 -303q-23 -29 -62 -40z" />
    <glyph glyph-name="uni1EAB" unicode="&#x1eab;" horiz-adv-x="1183" 
d="M1281 375q11 0 11 -19q0 -112 -127 -242t-236 -130q-182 0 -182 217q0 94 10 166q-231 -376 -438 -385h-23q-116 0 -172 81q-49 72 -49 207q6 305 203 571q93 127 205 199q119 76 239 76q126 0 201 -57q50 53 129 53q87 0 182 -49q-27 -40 -63 -147q-33 -97 -66 -224
q-72 -284 -72 -405q0 -15 3 -28l20 -58q35 6 100 71q94 103 125 103zM768 624q62 120 98 220q-32 119 -164 119q-118 0 -226 -230q-102 -220 -102 -430q6 -106 68 -106q57 0 184 188q75 108 142 239zM1386 1679q-62 -70 -146 -70q-70 0 -212 77q-124 70 -177 70h-12l-13 -3
q-58 -17 -83 -118l-13 -32q-2 -2 -6 -2q-21 0 -40 15q-20 17 -20 33l5 51q20 92 76 153q58 60 138 60q41 1 99 -21q42 -16 116 -54q133 -68 184 -68l20 3q62 16 86 123l9 29q2 1 6 1q6 0 20 -5q42 -20 42 -70q-14 -104 -79 -172zM1131 1263q-13 -3 -26 -5l-14 -1
q-82 0 -230 162q-213 -162 -327 -162q-60 0 -60 31l162 139q218 191 303 191q31 0 49 -12q59 -164 205 -303q-23 -29 -62 -40z" />
    <glyph glyph-name="uni1EAD" unicode="&#x1ead;" horiz-adv-x="1183" 
d="M1281 375q11 0 11 -19q0 -112 -127 -242t-236 -130q-182 0 -182 217q0 94 10 166q-231 -376 -438 -385h-23q-116 0 -172 81q-49 72 -49 207q6 305 203 571q93 127 205 199q119 76 239 76q126 0 201 -57q50 53 129 53q87 0 182 -49q-27 -40 -63 -147q-33 -97 -66 -224
q-72 -284 -72 -405q0 -15 3 -28l20 -58q35 6 100 71q94 103 125 103zM768 624q62 120 98 220q-32 119 -164 119q-118 0 -226 -230q-102 -220 -102 -430q6 -106 68 -106q57 0 184 188q75 108 142 239zM391 -314q0 27 4 52l9 40q1 4 2 9l2 8q3 9 4 15q4 16 4 28q86 43 154 43
q127 0 127 -105q0 -46 -35 -135q-83 -49 -164 -49q-107 0 -107 94zM1131 1263q-13 -3 -26 -5l-14 -1q-82 0 -230 162q-213 -162 -327 -162q-60 0 -60 31l162 139q218 191 303 191q31 0 49 -12q59 -164 205 -303q-23 -29 -62 -40z" />
    <glyph glyph-name="abreve" unicode="&#x103;" horiz-adv-x="1183" 
d="M1281 375q11 0 11 -19q0 -112 -127 -242t-236 -130q-182 0 -182 217q0 94 10 166q-231 -376 -438 -385h-23q-116 0 -172 81q-49 72 -49 207q6 305 203 571q93 127 205 199q119 76 239 76q126 0 201 -57q50 53 129 53q87 0 182 -49q-27 -40 -63 -147q-33 -97 -66 -224
q-72 -284 -72 -405q0 -15 3 -28l20 -58q35 6 100 71q94 103 125 103zM768 624q62 120 98 220q-32 119 -164 119q-118 0 -226 -230q-102 -220 -102 -430q6 -106 68 -106q57 0 184 188q75 108 142 239zM1161 1312q-117 -76 -233 -76q-276 0 -304 209q0 41 20 74q24 41 66 41
q13 0 17 -2q42 -150 219 -150q199 0 272 148q7 2 19 2q76 0 76 -58q-28 -107 -152 -188z" />
    <glyph glyph-name="uni1EB1" unicode="&#x1eb1;" horiz-adv-x="1183" 
d="M1281 375q11 0 11 -19q0 -112 -127 -242t-236 -130q-182 0 -182 217q0 94 10 166q-231 -376 -438 -385h-23q-116 0 -172 81q-49 72 -49 207q6 305 203 571q93 127 205 199q119 76 239 76q126 0 201 -57q50 53 129 53q87 0 182 -49q-27 -40 -63 -147q-33 -97 -66 -224
q-72 -284 -72 -405q0 -15 3 -28l20 -58q35 6 100 71q94 103 125 103zM768 624q62 120 98 220q-32 119 -164 119q-118 0 -226 -230q-102 -220 -102 -430q6 -106 68 -106q57 0 184 188q75 108 142 239zM1116 1574q-30 -10 -56 -6q-185 37 -322 111q-135 73 -135 135
q0 44 75 82q80 42 166 29l39 -58q23 -34 40 -57q47 -63 100 -106l111 -83q14 -12 14 -18q0 -17 -32 -29zM1161 1312q-117 -76 -233 -76q-276 0 -304 209q0 41 20 74q24 41 66 41q13 0 17 -2q42 -150 219 -150q199 0 272 148q7 2 19 2q76 0 76 -58q-28 -107 -152 -188z" />
    <glyph glyph-name="uni1EAF" unicode="&#x1eaf;" horiz-adv-x="1183" 
d="M1281 375q11 0 11 -19q0 -112 -127 -242t-236 -130q-182 0 -182 217q0 94 10 166q-231 -376 -438 -385h-23q-116 0 -172 81q-49 72 -49 207q6 305 203 571q93 127 205 199q119 76 239 76q126 0 201 -57q50 53 129 53q87 0 182 -49q-27 -40 -63 -147q-33 -97 -66 -224
q-72 -284 -72 -405q0 -15 3 -28l20 -58q35 6 100 71q94 103 125 103zM768 624q62 120 98 220q-32 119 -164 119q-118 0 -226 -230q-102 -220 -102 -430q6 -106 68 -106q57 0 184 188q75 108 142 239zM877 1582q0 12 15 21q105 67 183 143q64 62 132 152q232 0 232 -105
q0 -64 -127 -125q-154 -86 -349 -121q-26 -4 -55 6q-31 12 -31 29zM1161 1312q-117 -76 -233 -76q-276 0 -304 209q0 41 20 74q24 41 66 41q13 0 17 -2q42 -150 219 -150q199 0 272 148q7 2 19 2q76 0 76 -58q-28 -107 -152 -188z" />
    <glyph glyph-name="uni1EB3" unicode="&#x1eb3;" horiz-adv-x="1183" 
d="M1281 375q11 0 11 -19q0 -112 -127 -242t-236 -130q-182 0 -182 217q0 94 10 166q-231 -376 -438 -385h-23q-116 0 -172 81q-49 72 -49 207q6 305 203 571q93 127 205 199q119 76 239 76q126 0 201 -57q50 53 129 53q87 0 182 -49q-27 -40 -63 -147q-33 -97 -66 -224
q-72 -284 -72 -405q0 -15 3 -28l20 -58q35 6 100 71q94 103 125 103zM768 624q62 120 98 220q-32 119 -164 119q-118 0 -226 -230q-102 -220 -102 -430q6 -106 68 -106q57 0 184 188q75 108 142 239zM1238 1956q67 -33 72 -102q6 -65 -60 -124q-24 -19 -66 -47l-66 -44
q-33 -23 -50 -41q-15 -16 -14 -30q2 -16 24 -44q-63 -38 -113 -42q-37 -3 -61 19q-24 20 -25 41q-4 46 41 81l11 7l79 52q20 14 38 28q36 29 58 60t19 61q-4 50 -74 45q-65 -6 -87 -60q-16 -19 -45 -27q-64 28 -67 60q-4 50 79 88q66 30 154 38q97 7 153 -19zM1161 1312
q-117 -76 -233 -76q-276 0 -304 209q0 41 20 74q24 41 66 41q13 0 17 -2q42 -150 219 -150q199 0 272 148q7 2 19 2q76 0 76 -58q-28 -107 -152 -188z" />
    <glyph glyph-name="uni1EB5" unicode="&#x1eb5;" horiz-adv-x="1183" 
d="M1281 375q11 0 11 -19q0 -112 -127 -242t-236 -130q-182 0 -182 217q0 94 10 166q-231 -376 -438 -385h-23q-116 0 -172 81q-49 72 -49 207q6 305 203 571q93 127 205 199q119 76 239 76q126 0 201 -57q50 53 129 53q87 0 182 -49q-27 -40 -63 -147q-33 -97 -66 -224
q-72 -284 -72 -405q0 -15 3 -28l20 -58q35 6 100 71q94 103 125 103zM768 624q62 120 98 220q-32 119 -164 119q-118 0 -226 -230q-102 -220 -102 -430q6 -106 68 -106q57 0 184 188q75 108 142 239zM1447 1679q-62 -70 -146 -70q-70 0 -212 77q-124 70 -177 70h-12l-13 -3
q-58 -17 -83 -118l-13 -32q-2 -2 -6 -2q-21 0 -40 15q-20 17 -20 33l5 51q20 92 76 153q58 60 138 60q41 1 99 -21q42 -16 116 -54q133 -68 184 -68l20 3q62 16 86 123l9 29q2 1 6 1q6 0 20 -5q42 -20 42 -70q-14 -104 -79 -172zM1161 1312q-117 -76 -233 -76
q-276 0 -304 209q0 41 20 74q24 41 66 41q13 0 17 -2q42 -150 219 -150q199 0 272 148q7 2 19 2q76 0 76 -58q-28 -107 -152 -188z" />
    <glyph glyph-name="uni1EB7" unicode="&#x1eb7;" horiz-adv-x="1183" 
d="M1281 375q11 0 11 -19q0 -112 -127 -242t-236 -130q-182 0 -182 217q0 94 10 166q-231 -376 -438 -385h-23q-116 0 -172 81q-49 72 -49 207q6 305 203 571q93 127 205 199q119 76 239 76q126 0 201 -57q50 53 129 53q87 0 182 -49q-27 -40 -63 -147q-33 -97 -66 -224
q-72 -284 -72 -405q0 -15 3 -28l20 -58q35 6 100 71q94 103 125 103zM768 624q62 120 98 220q-32 119 -164 119q-118 0 -226 -230q-102 -220 -102 -430q6 -106 68 -106q57 0 184 188q75 108 142 239zM391 -314q0 27 4 52l9 40q1 4 2 9l2 8q3 9 4 15q4 16 4 28q86 43 154 43
q127 0 127 -105q0 -46 -35 -135q-83 -49 -164 -49q-107 0 -107 94zM1161 1312q-117 -76 -233 -76q-276 0 -304 209q0 41 20 74q24 41 66 41q13 0 17 -2q42 -150 219 -150q199 0 272 148q7 2 19 2q76 0 76 -58q-28 -107 -152 -188z" />
    <glyph glyph-name="egrave" unicode="&#xe8;" horiz-adv-x="983" 
d="M982 322q19 -34 19 -72q0 -50 -31 -90q-56 -69 -153 -111q-152 -69 -324 -69q-372 0 -387 315q-16 331 205 571q208 252 495 252q246 0 246 -194q0 -216 -188 -351q-201 -133 -449 -120q-14 -68 -14 -119q0 -68 22 -98q79 -111 197 -93q194 19 362 179zM442 580
q154 0 237 67q103 87 103 213q0 121 -78 121q-168 0 -262 -401zM920 1261q-30 -10 -56 -6q-185 37 -322 111q-135 73 -135 135q0 44 75 82q80 42 167 29l38 -58q23 -34 40 -57q47 -63 100 -106l112 -83q13 -12 13 -18q0 -17 -32 -29z" />
    <glyph glyph-name="eacute" unicode="&#xe9;" horiz-adv-x="983" 
d="M982 322q19 -34 19 -72q0 -50 -31 -90q-56 -69 -153 -111q-152 -69 -324 -69q-372 0 -387 315q-16 331 205 571q208 252 495 252q246 0 246 -194q0 -216 -188 -351q-201 -133 -449 -120q-14 -68 -14 -119q0 -68 22 -98q79 -111 197 -93q194 19 362 179zM442 580
q154 0 237 67q103 87 103 213q0 121 -78 121q-168 0 -262 -401zM634 1261q30 -10 56 -6q194 35 348 121q127 61 127 125q0 105 -232 105q-67 -90 -132 -152q-78 -76 -183 -143q-14 -9 -14 -21q0 -17 30 -29z" />
    <glyph glyph-name="uni1EBB" unicode="&#x1ebb;" horiz-adv-x="983" 
d="M982 322q19 -34 19 -72q0 -50 -31 -90q-56 -69 -153 -111q-152 -69 -324 -69q-372 0 -387 315q-16 331 205 571q208 252 495 252q246 0 246 -194q0 -216 -188 -351q-201 -133 -449 -120q-14 -68 -14 -119q0 -68 22 -98q79 -111 197 -93q194 19 362 179zM442 580
q154 0 237 67q103 87 103 213q0 121 -78 121q-168 0 -262 -401zM1151 1675q67 -33 73 -102q5 -65 -60 -124q-24 -19 -66 -47l-66 -44q-33 -23 -51 -41q-14 -16 -13 -30q1 -16 24 -44q-64 -38 -113 -42q-37 -3 -62 19q-23 20 -25 41q-3 46 42 81l11 7l79 52q19 14 37 28
q37 29 58 60q22 31 20 61q-4 50 -74 45q-65 -6 -87 -60q-17 -19 -46 -27q-64 28 -66 60q-4 50 79 88q65 30 153 38q98 7 153 -19z" />
    <glyph glyph-name="uni1EBD" unicode="&#x1ebd;" horiz-adv-x="983" 
d="M982 322q19 -34 19 -72q0 -50 -31 -90q-56 -69 -153 -111q-152 -69 -324 -69q-372 0 -387 315q-16 331 205 571q208 252 495 252q246 0 246 -194q0 -216 -188 -351q-201 -133 -449 -120q-14 -68 -14 -119q0 -68 22 -98q79 -111 197 -93q194 19 362 179zM442 580
q154 0 237 67q103 87 103 213q0 121 -78 121q-168 0 -262 -401zM1269 1317q-61 -70 -145 -70q-70 0 -212 77q-125 70 -178 70h-11l-13 -3q-58 -17 -83 -118l-14 -32q-2 -2 -5 -2q-21 0 -40 15q-21 17 -21 33l6 51q20 92 75 153q58 60 138 60q42 1 100 -21q42 -16 116 -54
q133 -68 183 -68l21 3q61 16 85 123l10 29q1 1 5 1q7 0 21 -5q42 -20 42 -70q-15 -104 -80 -172z" />
    <glyph glyph-name="uni1EB9" unicode="&#x1eb9;" horiz-adv-x="983" 
d="M982 322q19 -34 19 -72q0 -50 -31 -90q-56 -69 -153 -111q-152 -69 -324 -69q-372 0 -387 315q-16 331 205 571q208 252 495 252q246 0 246 -194q0 -216 -188 -351q-201 -133 -449 -120q-14 -68 -14 -119q0 -68 22 -98q79 -111 197 -93q194 19 362 179zM442 580
q154 0 237 67q103 87 103 213q0 121 -78 121q-168 0 -262 -401zM246 -314q0 27 4 52l8 40q1 4 3 9l2 8q2 9 4 15q4 16 4 28q86 43 153 43q127 0 127 -105q0 -46 -35 -135q-83 -49 -164 -49q-106 0 -106 94z" />
    <glyph glyph-name="ecircumflex" unicode="&#xea;" horiz-adv-x="980" 
d="M982 322q19 -34 19 -72q0 -50 -31 -90q-56 -69 -153 -111q-152 -69 -324 -69q-372 0 -387 315q-16 331 205 571q208 252 495 252q246 0 246 -194q0 -216 -188 -351q-201 -133 -449 -120q-14 -68 -14 -119q0 -68 22 -98q79 -111 197 -93q194 19 362 179zM442 580
q154 0 237 67q103 87 103 213q0 121 -78 121q-168 0 -262 -401zM1103 1263q-12 -3 -26 -5l-14 -1q-82 0 -229 162q-214 -162 -328 -162q-59 0 -59 31l161 139q218 191 303 191q31 0 50 -12q58 -164 204 -303q-23 -29 -62 -40z" />
    <glyph glyph-name="uni1EC1" unicode="&#x1ec1;" horiz-adv-x="983" 
d="M982 322q19 -34 19 -72q0 -50 -31 -90q-56 -69 -153 -111q-152 -69 -324 -69q-372 0 -387 315q-16 331 205 571q208 252 495 252q246 0 246 -194q0 -216 -188 -351q-201 -133 -449 -120q-14 -68 -14 -119q0 -68 22 -98q79 -111 197 -93q194 19 362 179zM442 580
q154 0 237 67q103 87 103 213q0 121 -78 121q-168 0 -262 -401zM1121 1632q-30 -10 -56 -6q-185 37 -322 111q-135 73 -135 135q0 44 75 82q80 42 167 29l38 -58q23 -34 40 -57q47 -63 100 -106l112 -83q13 -12 13 -18q0 -17 -32 -29zM1103 1263q-12 -3 -26 -5l-14 -1
q-82 0 -229 162q-214 -162 -328 -162q-59 0 -59 31l161 139q218 191 303 191q31 0 50 -12q58 -164 204 -303q-23 -29 -62 -40z" />
    <glyph glyph-name="uni1EBF" unicode="&#x1ebf;" horiz-adv-x="983" 
d="M982 322q19 -34 19 -72q0 -50 -31 -90q-56 -69 -153 -111q-152 -69 -324 -69q-372 0 -387 315q-16 331 205 571q208 252 495 252q246 0 246 -194q0 -216 -188 -351q-201 -133 -449 -120q-14 -68 -14 -119q0 -68 22 -98q79 -111 197 -93q194 19 362 179zM442 580
q154 0 237 67q103 87 103 213q0 121 -78 121q-168 0 -262 -401zM1046 1540q0 12 14 21q105 67 183 143q65 62 132 152q232 0 232 -105q0 -64 -127 -125q-154 -86 -348 -121q-26 -4 -56 6q-30 12 -30 29zM1103 1263q-12 -3 -26 -5l-14 -1q-82 0 -229 162q-214 -162 -328 -162
q-59 0 -59 31l161 139q218 191 303 191q31 0 50 -12q58 -164 204 -303q-23 -29 -62 -40z" />
    <glyph glyph-name="uni1EC3" unicode="&#x1ec3;" horiz-adv-x="983" 
d="M982 322q19 -34 19 -72q0 -50 -31 -90q-56 -69 -153 -111q-152 -69 -324 -69q-372 0 -387 315q-16 331 205 571q208 252 495 252q246 0 246 -194q0 -216 -188 -351q-201 -133 -449 -120q-14 -68 -14 -119q0 -68 22 -98q79 -111 197 -93q194 19 362 179zM442 580
q154 0 237 67q103 87 103 213q0 121 -78 121q-168 0 -262 -401zM1402 1966q67 -33 73 -102q5 -65 -60 -124q-24 -19 -66 -47l-66 -44q-33 -23 -51 -41q-14 -16 -13 -30q1 -16 24 -44q-64 -38 -113 -42q-37 -3 -62 19q-23 20 -25 41q-3 46 42 81l11 7l79 52q19 14 37 28
q37 29 58 60q22 31 20 61q-4 50 -74 45q-65 -6 -87 -60q-17 -19 -46 -27q-64 28 -66 60q-4 50 79 88q65 30 153 38q98 7 153 -19zM1103 1263q-12 -3 -26 -5l-14 -1q-82 0 -229 162q-214 -162 -328 -162q-59 0 -59 31l161 139q218 191 303 191q31 0 50 -12q58 -164 204 -303
q-23 -29 -62 -40z" />
    <glyph glyph-name="uni1EC5" unicode="&#x1ec5;" horiz-adv-x="983" 
d="M982 322q19 -34 19 -72q0 -50 -31 -90q-56 -69 -153 -111q-152 -69 -324 -69q-372 0 -387 315q-16 331 205 571q208 252 495 252q246 0 246 -194q0 -216 -188 -351q-201 -133 -449 -120q-14 -68 -14 -119q0 -68 22 -98q79 -111 197 -93q194 19 362 179zM442 580
q154 0 237 67q103 87 103 213q0 121 -78 121q-168 0 -262 -401zM1319 1658q-61 -70 -145 -70q-70 0 -212 77q-125 70 -178 70h-11l-13 -3q-58 -17 -83 -118l-14 -32q-2 -2 -5 -2q-21 0 -40 15q-21 17 -21 33l6 51q20 92 75 153q58 60 138 60q42 1 100 -21q42 -16 116 -54
q133 -68 183 -68l21 3q61 16 85 123l10 29q1 1 5 1q7 0 21 -5q42 -20 42 -70q-15 -104 -80 -172zM1103 1263q-12 -3 -26 -5l-14 -1q-82 0 -229 162q-214 -162 -328 -162q-59 0 -59 31l161 139q218 191 303 191q31 0 50 -12q58 -164 204 -303q-23 -29 -62 -40z" />
    <glyph glyph-name="uni1EC7" unicode="&#x1ec7;" horiz-adv-x="983" 
d="M982 322q19 -34 19 -72q0 -50 -31 -90q-56 -69 -153 -111q-152 -69 -324 -69q-372 0 -387 315q-16 331 205 571q208 252 495 252q246 0 246 -194q0 -216 -188 -351q-201 -133 -449 -120q-14 -68 -14 -119q0 -68 22 -98q79 -111 197 -93q194 19 362 179zM442 580
q154 0 237 67q103 87 103 213q0 121 -78 121q-168 0 -262 -401zM246 -314q0 27 4 52l8 40q1 4 3 9l2 8q2 9 4 15q4 16 4 28q86 43 153 43q127 0 127 -105q0 -46 -35 -135q-83 -49 -164 -49q-106 0 -106 94zM1103 1263q-12 -3 -26 -5l-14 -1q-82 0 -229 162
q-214 -162 -328 -162q-59 0 -59 31l161 139q218 191 303 191q31 0 50 -12q58 -164 204 -303q-23 -29 -62 -40z" />
    <glyph glyph-name="igrave" unicode="&#xec;" horiz-adv-x="604" 
d="M482 203q-9 17 -15 35q-7 25 -7 53q0 113 31 248q4 20 14 60l74 271q10 37 22 103q12 67 -24 106q-31 33 -103 33q-89 0 -205 -43q31 -46 31 -102q0 -60 -10 -111l-30 -157q-24 -115 -46 -193q-27 -102 -37 -206q-8 -79 -4 -124q12 -188 182 -188q81 0 184 80
q104 81 146 180q33 77 33 110q0 64 -135 -84q-69 -65 -101 -71zM764 1261q-30 -10 -56 -6q-185 37 -322 111q-135 73 -135 135q0 44 75 82q80 42 167 29l38 -58q23 -34 40 -57q47 -63 100 -106l112 -83q13 -12 13 -18q0 -17 -32 -29z" />
    <glyph glyph-name="iacute" unicode="&#xed;" horiz-adv-x="595" 
d="M482 203q-9 17 -15 35q-7 25 -7 53q0 113 31 248q4 20 14 60l74 271q10 37 22 103q12 67 -24 106q-31 33 -103 33q-89 0 -205 -43q31 -46 31 -102q0 -60 -10 -111l-30 -157q-24 -115 -46 -193q-27 -102 -37 -206q-8 -79 -4 -124q12 -188 182 -188q81 0 184 80
q104 81 146 180q33 77 33 110q0 64 -135 -84q-69 -65 -101 -71zM294 1261q29 -10 55 -6q194 35 348 121q127 61 127 125q0 105 -231 105q-68 -90 -132 -152q-78 -76 -183 -143q-15 -9 -15 -21q0 -17 31 -29z" />
    <glyph glyph-name="uni1EC9" unicode="&#x1ec9;" horiz-adv-x="606" 
d="M442 203q-9 17 -15 35q-7 25 -7 53q0 113 31 248l79 301q11 37 23 102q12 67 -25 107q-30 32 -102 32q-89 0 -205 -43q31 -46 31 -102q0 -59 -10 -111l-10 -55q-1 -5 -2 -9l-14 -78q-20 -100 -42 -177q-27 -102 -37 -206q-8 -79 -4 -124q12 -188 182 -188q81 0 184 80
q104 81 146 180q33 77 33 110q0 64 -135 -84q-69 -65 -101 -71zM717 1675q68 -33 73 -102q5 -65 -60 -124q-24 -19 -66 -47l-66 -44q-33 -23 -50 -41q-15 -16 -14 -30q2 -16 24 -44q-63 -38 -113 -42q-37 -3 -62 19q-23 20 -24 41q-4 46 41 81l11 7l79 52l38 28q36 29 58 60
t19 61q-4 50 -74 45q-65 -6 -87 -60q-17 -19 -46 -27q-64 28 -66 60q-4 50 79 88q66 30 153 38q98 7 153 -19z" />
    <glyph glyph-name="itilde" unicode="&#x129;" horiz-adv-x="606" 
d="M442 203q-10 17 -15 35q-8 25 -8 53q0 113 31 248l80 301q10 37 23 102q12 67 -25 107q-30 32 -102 32q-89 0 -205 -43q30 -46 30 -102q0 -59 -10 -111l-10 -55q-1 -5 -1 -9l-15 -78q-19 -100 -41 -177q-28 -102 -38 -206q-7 -79 -3 -124q12 -188 182 -188q81 0 183 80
q104 81 147 180q32 77 32 110q0 64 -135 -84q-69 -65 -100 -71zM825 1317q-61 -70 -146 -70q-69 0 -211 77q-125 70 -178 70h-11l-13 -3q-58 -17 -84 -118l-13 -32q-2 -2 -6 -2q-20 0 -39 15q-21 17 -21 33l6 51q20 92 75 153q58 60 138 60q42 1 99 -21q43 -16 117 -54
q133 -68 183 -68l21 3q61 16 85 123l9 29q2 1 6 1q7 0 21 -5q41 -20 41 -70q-14 -104 -79 -172z" />
    <glyph glyph-name="uni1ECB" unicode="&#x1ecb;" horiz-adv-x="606" 
d="M739 1552q0 -14 -2 -24q-13 -50 -82 -156q-67 -104 -93 -124q-24 -19 -114 -38q-108 -23 -108 58q0 19 5 54l12 66q17 93 16 138q0 6 -4 14l-3 7q-3 5 -4 7q131 52 279 52q95 0 98 -54zM442 203q-10 17 -15 35q-7 25 -7 53q0 113 30 248l80 301q10 37 23 102
q12 67 -25 107q-30 32 -102 32q-89 0 -205 -43q31 -46 31 -102q0 -59 -11 -111l-10 -55q-1 -5 -1 -9l-15 -78q-19 -100 -41 -177q-27 -102 -38 -206q-7 -79 -3 -124q12 -188 182 -188q81 0 183 80q104 81 147 180q33 77 33 110q0 64 -135 -84q-69 -65 -101 -71zM93 -314
q0 27 4 52l8 40q1 4 3 9l2 8q2 9 4 15q4 16 4 28q86 43 153 43q127 0 127 -105q0 -46 -35 -135q-83 -49 -164 -49q-106 0 -106 94z" />
    <glyph glyph-name="ograve" unicode="&#xf2;" horiz-adv-x="1095" 
d="M764 1118q169 0 271 -97q103 -99 103 -267q0 -296 -195 -532q-201 -242 -468 -242q-171 0 -272 101q-103 103 -103 279q0 295 199 529q206 229 465 229zM702 967q-65 0 -124 -65q-53 -59 -95 -161q-82 -200 -82 -403q0 -209 135 -209q64 0 123 65q52 57 93 159
q81 198 81 401q0 213 -131 213zM922 1261q-30 -10 -56 -6q-185 37 -321 111q-136 73 -136 135q0 44 75 82q80 42 167 29l39 -58q23 -34 39 -57q47 -63 100 -106l112 -83q13 -12 13 -18q0 -17 -32 -29z" />
    <glyph glyph-name="oacute" unicode="&#xf3;" horiz-adv-x="1095" 
d="M764 1118q169 0 271 -97q103 -99 103 -267q0 -296 -195 -532q-201 -242 -468 -242q-171 0 -272 101q-103 103 -103 279q0 295 199 529q206 229 465 229zM702 967q-65 0 -124 -65q-53 -59 -95 -161q-82 -200 -82 -403q0 -209 135 -209q64 0 123 65q52 57 93 159
q81 198 81 401q0 213 -131 213zM614 1261q29 -10 55 -6q195 35 349 121q126 61 126 125q0 105 -231 105q-68 -90 -132 -152q-78 -76 -183 -143q-15 -9 -15 -21q0 -17 31 -29z" />
    <glyph glyph-name="uni1ECF" unicode="&#x1ecf;" horiz-adv-x="1095" 
d="M764 1118q169 0 271 -97q103 -99 103 -267q0 -296 -195 -532q-201 -242 -468 -242q-171 0 -272 101q-103 103 -103 279q0 295 199 529q206 229 465 229zM702 967q-65 0 -124 -65q-53 -59 -95 -161q-82 -200 -82 -403q0 -209 135 -209q64 0 123 65q52 57 93 159
q81 198 81 401q0 213 -131 213zM1137 1675q67 -33 73 -102q5 -65 -60 -124q-24 -19 -66 -47l-67 -44q-33 -23 -50 -41q-14 -16 -13 -30q1 -16 24 -44q-64 -38 -113 -42q-37 -3 -62 19q-23 20 -25 41q-4 46 42 81l11 7l79 52q19 14 37 28q37 29 58 60q22 31 20 61
q-4 50 -75 45q-65 -6 -87 -60q-16 -19 -45 -27q-64 28 -67 60q-4 50 80 88q65 30 153 38q98 7 153 -19z" />
    <glyph glyph-name="otilde" unicode="&#xf5;" horiz-adv-x="1095" 
d="M764 1118q169 0 271 -97q103 -99 103 -267q0 -296 -195 -532q-201 -242 -468 -242q-171 0 -272 101q-103 103 -103 279q0 295 199 529q206 229 465 229zM702 967q-65 0 -124 -65q-53 -59 -95 -161q-82 -200 -82 -403q0 -209 135 -209q64 0 123 65q52 57 93 159
q81 198 81 401q0 213 -131 213zM1255 1317q-61 -70 -145 -70q-70 0 -212 77q-125 70 -178 70h-11l-13 -3q-58 -17 -84 -118l-13 -32q-2 -2 -5 -2q-21 0 -40 15q-21 17 -21 33l6 51q20 92 75 153q58 60 138 60q42 1 100 -21q42 -16 116 -54q133 -68 183 -68l21 3
q61 16 85 123l9 29q2 1 6 1q7 0 21 -5q41 -20 41 -70q-14 -104 -79 -172z" />
    <glyph glyph-name="uni1ECD" unicode="&#x1ecd;" horiz-adv-x="1095" 
d="M764 1118q169 0 271 -97q103 -99 103 -267q0 -296 -195 -532q-201 -242 -468 -242q-171 0 -272 101q-103 103 -103 279q0 295 199 529q206 229 465 229zM702 967q-65 0 -124 -65q-53 -59 -95 -161q-82 -200 -82 -403q0 -209 135 -209q64 0 123 65q52 57 93 159
q81 198 81 401q0 213 -131 213zM232 -314q0 27 4 52l8 40q1 4 2 9l3 8q2 9 4 15q3 16 3 28q86 43 154 43q127 0 127 -105q0 -46 -35 -135q-83 -49 -164 -49q-106 0 -106 94z" />
    <glyph glyph-name="ocircumflex" unicode="&#xf4;" horiz-adv-x="1095" 
d="M764 1118q169 0 271 -97q103 -99 103 -267q0 -296 -195 -532q-201 -242 -468 -242q-171 0 -272 101q-103 103 -103 279q0 295 199 529q206 229 465 229zM702 967q-65 0 -124 -65q-53 -59 -95 -161q-82 -200 -82 -403q0 -209 135 -209q64 0 123 65q52 57 93 159
q81 198 81 401q0 213 -131 213zM1116 1263q-13 -3 -26 -5l-14 -1q-82 0 -230 162q-213 -162 -327 -162q-60 0 -60 31l162 139q218 191 303 191q31 0 49 -12q59 -164 205 -303q-23 -29 -62 -40z" />
    <glyph glyph-name="uni1ED3" unicode="&#x1ed3;" horiz-adv-x="1095" 
d="M764 1118q169 0 271 -97q103 -99 103 -267q0 -296 -195 -532q-201 -242 -468 -242q-171 0 -272 101q-103 103 -103 279q0 295 199 529q206 229 465 229zM702 967q-65 0 -124 -65q-53 -59 -95 -161q-82 -200 -82 -403q0 -209 135 -209q64 0 123 65q52 57 93 159
q81 198 81 401q0 213 -131 213zM1143 1642q-30 -10 -56 -6q-185 37 -321 111q-136 73 -136 135q0 44 75 82q80 42 167 29l39 -58q23 -34 39 -57q47 -63 100 -106l112 -83q13 -12 13 -18q0 -17 -32 -29zM1116 1263q-13 -3 -26 -5l-14 -1q-82 0 -230 162q-213 -162 -327 -162
q-60 0 -60 31l162 139q218 191 303 191q31 0 49 -12q59 -164 205 -303q-23 -29 -62 -40z" />
    <glyph glyph-name="uni1ED1" unicode="&#x1ed1;" horiz-adv-x="1095" 
d="M764 1118q169 0 271 -97q103 -99 103 -267q0 -296 -195 -532q-201 -242 -468 -242q-171 0 -272 101q-103 103 -103 279q0 295 199 529q206 229 465 229zM702 967q-65 0 -124 -65q-53 -59 -95 -161q-82 -200 -82 -403q0 -209 135 -209q64 0 123 65q52 57 93 159
q81 198 81 401q0 213 -131 213zM1065 1521q0 12 15 21q105 67 183 143q64 62 132 152q231 0 231 -105q0 -64 -126 -125q-154 -86 -349 -121q-26 -4 -55 6q-31 12 -31 29zM1116 1263q-13 -3 -26 -5l-14 -1q-82 0 -230 162q-213 -162 -327 -162q-60 0 -60 31l162 139
q218 191 303 191q31 0 49 -12q59 -164 205 -303q-23 -29 -62 -40z" />
    <glyph glyph-name="uni1ED5" unicode="&#x1ed5;" horiz-adv-x="1095" 
d="M764 1118q169 0 271 -97q103 -99 103 -267q0 -296 -195 -532q-201 -242 -468 -242q-171 0 -272 101q-103 103 -103 279q0 295 199 529q206 229 465 229zM702 967q-65 0 -124 -65q-53 -59 -95 -161q-82 -200 -82 -403q0 -209 135 -209q64 0 123 65q52 57 93 159
q81 198 81 401q0 213 -131 213zM1429 1956q67 -33 73 -102q5 -65 -60 -124q-24 -19 -66 -47l-67 -44q-33 -23 -50 -41q-14 -16 -13 -30q1 -16 24 -44q-64 -38 -113 -42q-37 -3 -62 19q-23 20 -25 41q-4 46 42 81l11 7l79 52q19 14 37 28q37 29 58 60q22 31 20 61
q-4 50 -75 45q-65 -6 -87 -60q-16 -19 -45 -27q-64 28 -67 60q-4 50 80 88q65 30 153 38q98 7 153 -19zM1116 1263q-13 -3 -26 -5l-14 -1q-82 0 -230 162q-213 -162 -327 -162q-60 0 -60 31l162 139q218 191 303 191q31 0 49 -12q59 -164 205 -303q-23 -29 -62 -40z" />
    <glyph glyph-name="uni1ED7" unicode="&#x1ed7;" horiz-adv-x="1095" 
d="M764 1118q169 0 271 -97q103 -99 103 -267q0 -296 -195 -532q-201 -242 -468 -242q-171 0 -272 101q-103 103 -103 279q0 295 199 529q206 229 465 229zM702 967q-65 0 -124 -65q-53 -59 -95 -161q-82 -200 -82 -403q0 -209 135 -209q64 0 123 65q52 57 93 159
q81 198 81 401q0 213 -131 213zM1345 1669q-61 -70 -145 -70q-70 0 -212 77q-125 70 -178 70h-11l-13 -3q-58 -17 -84 -118l-13 -32q-2 -2 -5 -2q-21 0 -40 15q-21 17 -21 33l6 51q20 92 75 153q58 60 138 60q42 1 100 -21q42 -16 116 -54q133 -68 183 -68l21 3
q61 16 85 123l9 29q2 1 6 1q7 0 21 -5q41 -20 41 -70q-14 -104 -79 -172zM1116 1263q-13 -3 -26 -5l-14 -1q-82 0 -230 162q-213 -162 -327 -162q-60 0 -60 31l162 139q218 191 303 191q31 0 49 -12q59 -164 205 -303q-23 -29 -62 -40z" />
    <glyph glyph-name="uni1ED9" unicode="&#x1ed9;" horiz-adv-x="1095" 
d="M764 1118q169 0 271 -97q103 -99 103 -267q0 -296 -195 -532q-201 -242 -468 -242q-171 0 -272 101q-103 103 -103 279q0 295 199 529q206 229 465 229zM702 967q-65 0 -124 -65q-53 -59 -95 -161q-82 -200 -82 -403q0 -209 135 -209q64 0 123 65q52 57 93 159
q81 198 81 401q0 213 -131 213zM232 -314q0 27 4 52l8 40q1 4 2 9l3 8q2 9 4 15q3 16 3 28q86 43 154 43q127 0 127 -105q0 -46 -35 -135q-83 -49 -164 -49q-106 0 -106 94zM1116 1263q-13 -3 -26 -5l-14 -1q-82 0 -230 162q-213 -162 -327 -162q-60 0 -60 31l162 139
q218 191 303 191q31 0 49 -12q59 -164 205 -303q-23 -29 -62 -40z" />
    <glyph glyph-name="glyph216" unicode="&#xf9;" horiz-adv-x="1206" 
d="M1212 1001q0 -57 -26 -153l-37 -131q-3 -10 -6 -19q-25 -88 -39 -144q-39 -159 -39 -253q0 -28 7 -52q6 -19 15 -36q20 4 56 33q26 20 69 60l33 31q19 17 29 26q29 26 36 26q13 0 13 -18q0 -111 -127 -242q-128 -131 -238 -131q-182 0 -182 219q0 38 5 79q4 28 13 79
q-241 -395 -477 -395q-103 0 -146 66q-32 50 -32 144q0 54 23 167l101 444q23 112 23 164q0 66 -20 104q111 43 201 43q118 0 118 -113q0 -26 -7 -64l-78 -335q-3 -12 -6 -22q-12 -50 -20 -85q-42 -179 -42 -241q0 -53 39 -53q106 0 297 344q157 287 157 471q0 41 -14 69
q83 29 176 29q125 -8 125 -111zM935 1261q-31 -10 -57 -6q-184 37 -321 111q-135 73 -135 135q0 44 74 82q81 42 167 29l39 -58q23 -34 40 -57q47 -63 99 -106l112 -83q13 -12 13 -18q0 -17 -31 -29z" />
    <glyph glyph-name="glyph217" unicode="&#xfa;" horiz-adv-x="1206" 
d="M1212 1001q0 -57 -26 -153l-37 -131q-3 -10 -6 -19q-25 -88 -39 -144q-39 -159 -39 -253q0 -28 7 -52q6 -19 15 -36q20 4 56 33q26 20 69 60l33 31q19 17 29 26q29 26 36 26q13 0 13 -18q0 -111 -127 -242q-128 -131 -238 -131q-182 0 -182 219q0 38 5 79q4 28 13 79
q-241 -395 -477 -395q-103 0 -146 66q-32 50 -32 144q0 54 23 167l101 444q23 112 23 164q0 66 -20 104q111 43 201 43q118 0 118 -113q0 -26 -7 -64l-78 -335q-3 -12 -6 -22q-12 -50 -20 -85q-42 -179 -42 -241q0 -53 39 -53q106 0 297 344q157 287 157 471q0 41 -14 69
q83 29 176 29q125 -8 125 -111zM633 1261q29 -10 55 -6q194 35 348 121q127 61 127 125q0 105 -231 105q-68 -90 -133 -152q-78 -76 -183 -143q-14 -9 -14 -21q0 -17 31 -29z" />
    <glyph glyph-name="uni1EE7" unicode="&#x1ee7;" horiz-adv-x="1206" 
d="M1212 1001q0 -57 -26 -153l-37 -131q-3 -10 -6 -19q-25 -88 -39 -144q-39 -159 -39 -253q0 -28 7 -52q6 -19 15 -36q20 4 56 33q26 20 69 60l33 31q19 17 29 26q29 26 36 26q13 0 13 -18q0 -111 -127 -242q-128 -131 -238 -131q-182 0 -182 219q0 38 5 79q4 28 13 79
q-241 -395 -477 -395q-103 0 -146 66q-32 50 -32 144q0 54 23 167l101 444q23 112 23 164q0 66 -20 104q111 43 201 43q118 0 118 -113q0 -26 -7 -64l-78 -335q-3 -12 -6 -22q-12 -50 -20 -85q-42 -179 -42 -241q0 -53 39 -53q106 0 297 344q157 287 157 471q0 41 -14 69
q83 29 176 29q125 -8 125 -111zM1057 1675q67 -33 73 -102q5 -65 -60 -124q-24 -19 -66 -47l-66 -44q-33 -23 -51 -41q-14 -16 -13 -30q1 -16 24 -44q-64 -38 -113 -42q-37 -3 -62 19q-23 20 -25 41q-3 46 42 81l11 7l79 52q19 14 37 28q37 29 58 60q22 31 20 61
q-4 50 -74 45q-65 -6 -88 -60q-16 -19 -45 -27q-64 28 -66 60q-4 50 79 88q65 30 153 38q98 7 153 -19z" />
    <glyph glyph-name="utilde" unicode="&#x169;" horiz-adv-x="1206" 
d="M1212 1001q0 -57 -26 -153l-37 -131q-3 -10 -6 -19q-25 -88 -39 -144q-39 -159 -39 -253q0 -28 7 -52q6 -19 15 -36q20 4 56 33q26 20 69 60l33 31q19 17 29 26q29 26 36 26q13 0 13 -18q0 -111 -127 -242q-128 -131 -238 -131q-182 0 -182 219q0 38 5 79q4 28 13 79
q-241 -395 -477 -395q-103 0 -146 66q-32 50 -32 144q0 54 23 167l101 444q23 112 23 164q0 66 -20 104q111 43 201 43q118 0 118 -113q0 -26 -7 -64l-78 -335q-3 -12 -6 -22q-12 -50 -20 -85q-42 -179 -42 -241q0 -53 39 -53q106 0 297 344q157 287 157 471q0 41 -14 69
q83 29 176 29q125 -8 125 -111zM1205 1317q-61 -70 -145 -70q-70 0 -212 77q-125 70 -178 70h-11l-13 -3q-58 -17 -83 -118l-14 -32q-2 -2 -5 -2q-21 0 -40 15q-21 17 -21 33l6 51q20 92 75 153q58 60 138 60q42 1 100 -21q42 -16 116 -54q133 -68 183 -68l21 3
q61 16 85 123l9 29q2 1 6 1q7 0 21 -5q42 -20 42 -70q-15 -104 -80 -172z" />
    <glyph glyph-name="uni1EE5" unicode="&#x1ee5;" horiz-adv-x="1206" 
d="M1212 1001q0 -57 -26 -153l-37 -131q-3 -10 -6 -19q-25 -88 -39 -144q-39 -159 -39 -253q0 -28 7 -52q6 -19 15 -36q20 4 56 33q26 20 69 60l33 31q19 17 29 26q29 26 36 26q13 0 13 -18q0 -111 -127 -242q-128 -131 -238 -131q-182 0 -182 219q0 38 5 79q4 28 13 79
q-241 -395 -477 -395q-103 0 -146 66q-32 50 -32 144q0 54 23 167l101 444q23 112 23 164q0 66 -20 104q111 43 201 43q118 0 118 -113q0 -26 -7 -64l-78 -335q-3 -12 -6 -22q-12 -50 -20 -85q-42 -179 -42 -241q0 -53 39 -53q106 0 297 344q157 287 157 471q0 41 -14 69
q83 29 176 29q125 -8 125 -111zM422 -314q0 27 4 52l8 40q1 4 2 9l3 8q2 9 4 15q3 16 3 28q86 43 154 43q127 0 127 -105q0 -46 -35 -135q-83 -49 -164 -49q-106 0 -106 94z" />
    <glyph glyph-name="uhorn" unicode="&#x1b0;" horiz-adv-x="1206" 
d="M1179 822l-30 -105q-3 -10 -5 -19q-25 -88 -39 -144q-40 -159 -40 -253q0 -28 7 -52q6 -19 15 -36q20 4 56 33q27 20 69 60l33 31q19 17 29 26q29 26 37 26q12 0 12 -18q0 -111 -127 -242t-238 -131q-182 0 -182 219q0 38 6 79q3 28 13 79q-242 -395 -478 -395
q-103 0 -145 66q-33 50 -33 144q0 54 23 167l102 444q23 112 23 164q0 66 -21 104q111 43 201 43q119 0 119 -113q0 -26 -7 -64l-79 -335q-3 -12 -6 -22q-12 -50 -20 -85q-42 -179 -42 -241q0 -53 39 -53q106 0 297 344q158 287 158 471q0 41 -15 69q83 29 176 29
q125 -8 125 -111q0 -24 -4 -54q48 47 48 123q0 48 -38 104q61 58 163 58q99 0 99 -87q0 -106 -115 -211q-54 -48 -116 -82q-38 -20 -70 -30z" />
    <glyph glyph-name="uni1EEB" unicode="&#x1eeb;" horiz-adv-x="1206" 
d="M935 1261q-30 -10 -56 -6q-185 37 -322 111q-135 73 -135 135q0 44 75 82q80 42 167 29l38 -58q23 -34 40 -57q47 -63 100 -106l111 -83q14 -12 14 -18q0 -17 -32 -29zM1179 822l-30 -105q-3 -10 -5 -19q-25 -88 -39 -144q-40 -159 -40 -253q0 -28 7 -52q6 -19 15 -36
q20 4 56 33q27 20 69 60l33 31q19 17 29 26q29 26 37 26q12 0 12 -18q0 -111 -127 -242t-238 -131q-182 0 -182 219q0 38 6 79q3 28 13 79q-242 -395 -478 -395q-103 0 -145 66q-33 50 -33 144q0 54 23 167l102 444q23 112 23 164q0 66 -21 104q111 43 201 43
q119 0 119 -113q0 -26 -7 -64l-79 -335q-3 -12 -6 -22q-12 -50 -20 -85q-42 -179 -42 -241q0 -53 39 -53q106 0 297 344q158 287 158 471q0 41 -15 69q83 29 176 29q125 -8 125 -111q0 -24 -4 -54q48 47 48 123q0 48 -38 104q61 58 163 58q99 0 99 -87q0 -106 -115 -211
q-54 -48 -116 -82q-38 -20 -70 -30z" />
    <glyph glyph-name="uni1EE9" unicode="&#x1ee9;" horiz-adv-x="1206" 
d="M633 1261q29 -10 55 -6q194 35 348 121q127 61 127 125q0 105 -231 105q-68 -90 -133 -152q-78 -76 -183 -143q-14 -9 -14 -21q0 -17 31 -29zM1179 822l-30 -105q-3 -10 -5 -19q-25 -88 -39 -144q-40 -159 -40 -253q0 -28 7 -52q6 -19 15 -36q20 4 56 33q27 20 69 60
l33 31q19 17 29 26q29 26 37 26q12 0 12 -18q0 -111 -127 -242t-238 -131q-182 0 -182 219q0 38 6 79q3 28 13 79q-242 -395 -478 -395q-103 0 -145 66q-33 50 -33 144q0 54 23 167l102 444q23 112 23 164q0 66 -21 104q111 43 201 43q119 0 119 -113q0 -26 -7 -64l-79 -335
q-3 -12 -6 -22q-12 -50 -20 -85q-42 -179 -42 -241q0 -53 39 -53q106 0 297 344q158 287 158 471q0 41 -15 69q83 29 176 29q125 -8 125 -111q0 -24 -4 -54q48 47 48 123q0 48 -38 104q61 58 163 58q99 0 99 -87q0 -106 -115 -211q-54 -48 -116 -82q-38 -20 -70 -30z" />
    <glyph glyph-name="uni1EED" unicode="&#x1eed;" horiz-adv-x="1206" 
d="M1057 1675q68 -33 73 -102q5 -65 -60 -124q-24 -19 -66 -47l-66 -44q-33 -23 -50 -41q-15 -16 -14 -30q2 -16 24 -44q-63 -38 -113 -42q-37 -3 -62 19q-23 20 -25 41q-3 46 42 81l11 7l79 52l38 28q36 29 58 60t19 61q-4 50 -74 45q-65 -6 -87 -60q-17 -19 -46 -27
q-64 28 -66 60q-4 50 79 88q66 30 153 38q98 7 153 -19zM1179 822l-30 -105q-3 -10 -5 -19q-25 -88 -39 -144q-40 -159 -40 -253q0 -28 7 -52q6 -19 15 -36q20 4 56 33q27 20 69 60l33 31q19 17 29 26q29 26 37 26q12 0 12 -18q0 -111 -127 -242t-238 -131q-182 0 -182 219
q0 38 6 79q3 28 13 79q-242 -395 -478 -395q-103 0 -145 66q-33 50 -33 144q0 54 23 167l102 444q23 112 23 164q0 66 -21 104q111 43 201 43q119 0 119 -113q0 -26 -7 -64l-79 -335q-3 -12 -6 -22q-12 -50 -20 -85q-42 -179 -42 -241q0 -53 39 -53q106 0 297 344
q158 287 158 471q0 41 -15 69q83 29 176 29q125 -8 125 -111q0 -24 -4 -54q48 47 48 123q0 48 -38 104q61 58 163 58q99 0 99 -87q0 -106 -115 -211q-54 -48 -116 -82q-38 -20 -70 -30z" />
    <glyph glyph-name="uni1EEF" unicode="&#x1eef;" horiz-adv-x="1206" 
d="M1205 1317q-61 -70 -145 -70q-70 0 -212 77q-124 70 -177 70h-12l-13 -3q-58 -17 -83 -118l-13 -32q-2 -2 -6 -2q-21 0 -40 15q-21 17 -21 33l6 51q20 92 76 153q58 60 138 60q41 1 99 -21q42 -16 116 -54q133 -68 183 -68l21 3q62 16 85 123l10 29q2 1 5 1q7 0 21 -5
q42 -20 42 -70q-15 -104 -80 -172zM1179 822l-30 -105q-3 -10 -5 -19q-25 -88 -39 -144q-40 -159 -40 -253q0 -28 7 -52q6 -19 15 -36q20 4 56 33q27 20 69 60l33 31q19 17 29 26q29 26 37 26q12 0 12 -18q0 -111 -127 -242t-238 -131q-182 0 -182 219q0 38 6 79q3 28 13 79
q-242 -395 -478 -395q-103 0 -145 66q-33 50 -33 144q0 54 23 167l102 444q23 112 23 164q0 66 -21 104q111 43 201 43q119 0 119 -113q0 -26 -7 -64l-79 -335q-3 -12 -6 -22q-12 -50 -20 -85q-42 -179 -42 -241q0 -53 39 -53q106 0 297 344q158 287 158 471q0 41 -15 69
q83 29 176 29q125 -8 125 -111q0 -24 -4 -54q48 47 48 123q0 48 -38 104q61 58 163 58q99 0 99 -87q0 -106 -115 -211q-54 -48 -116 -82q-38 -20 -70 -30z" />
    <glyph glyph-name="uni1EF1" unicode="&#x1ef1;" horiz-adv-x="1206" 
d="M422 -314q0 27 4 52l8 40q1 4 3 9l2 8q3 9 4 15q4 16 4 28q86 43 153 43q127 0 127 -105q0 -46 -35 -135q-82 -49 -163 -49q-107 0 -107 94zM1179 822l-30 -105q-3 -10 -5 -19q-25 -88 -39 -144q-40 -159 -40 -253q0 -28 7 -52q6 -19 15 -36q20 4 56 33q27 20 69 60
l33 31q19 17 29 26q29 26 37 26q12 0 12 -18q0 -111 -127 -242t-238 -131q-182 0 -182 219q0 38 6 79q3 28 13 79q-242 -395 -478 -395q-103 0 -145 66q-33 50 -33 144q0 54 23 167l102 444q23 112 23 164q0 66 -21 104q111 43 201 43q119 0 119 -113q0 -26 -7 -64l-79 -335
q-3 -12 -6 -22q-12 -50 -20 -85q-42 -179 -42 -241q0 -53 39 -53q106 0 297 344q158 287 158 471q0 41 -15 69q83 29 176 29q125 -8 125 -111q0 -24 -4 -54q48 47 48 123q0 48 -38 104q61 58 163 58q99 0 99 -87q0 -106 -115 -211q-54 -48 -116 -82q-38 -20 -70 -30z" />
    <glyph glyph-name="ohorn" unicode="&#x1a1;" horiz-adv-x="1095" 
d="M702 967q-64 0 -123 -65q-53 -59 -95 -161q-83 -200 -83 -403q0 -209 136 -209q64 0 122 65q52 57 94 159q81 198 81 401q0 213 -132 213zM1113 904q26 -66 26 -150q0 -296 -195 -532q-201 -242 -469 -242q-170 0 -272 101q-103 103 -103 279q0 295 199 529
q206 229 465 229q169 0 271 -97q14 -14 27 -29q54 47 54 128q0 48 -38 104q61 58 163 58q99 0 99 -87q0 -106 -115 -211q-52 -46 -112 -80z" />
    <glyph glyph-name="uni1EDD" unicode="&#x1edd;" horiz-adv-x="1095" 
d="M702 967q-64 0 -123 -65q-53 -59 -95 -161q-83 -200 -83 -403q0 -209 136 -209q64 0 122 65q52 57 94 159q81 198 81 401q0 213 -132 213zM923 1261q-31 -10 -57 -6q-184 37 -321 111q-135 73 -135 135q0 44 74 82q80 42 167 29l39 -58q23 -34 40 -57q47 -63 99 -106
l112 -83q13 -12 13 -18q0 -17 -31 -29zM1113 904q26 -66 26 -150q0 -296 -195 -532q-201 -242 -469 -242q-170 0 -272 101q-103 103 -103 279q0 295 199 529q206 229 465 229q169 0 271 -97q14 -14 27 -29q54 47 54 128q0 48 -38 104q61 58 163 58q99 0 99 -87
q0 -106 -115 -211q-52 -46 -112 -80z" />
    <glyph glyph-name="uni1EDB" unicode="&#x1edb;" horiz-adv-x="1095" 
d="M702 967q-64 0 -123 -65q-53 -59 -95 -161q-83 -200 -83 -403q0 -209 136 -209q64 0 122 65q52 57 94 159q81 198 81 401q0 213 -132 213zM614 1261q30 -10 56 -6q194 35 348 121q127 61 127 125q0 105 -232 105q-67 -90 -132 -152q-78 -76 -183 -143q-14 -9 -14 -21
q0 -17 30 -29zM1113 904q26 -66 26 -150q0 -296 -195 -532q-201 -242 -469 -242q-170 0 -272 101q-103 103 -103 279q0 295 199 529q206 229 465 229q169 0 271 -97q14 -14 27 -29q54 47 54 128q0 48 -38 104q61 58 163 58q99 0 99 -87q0 -106 -115 -211q-52 -46 -112 -80z
" />
    <glyph glyph-name="uni1EDF" unicode="&#x1edf;" horiz-adv-x="1095" 
d="M702 967q-64 0 -123 -65q-53 -59 -95 -161q-83 -200 -83 -403q0 -209 136 -209q64 0 122 65q52 57 94 159q81 198 81 401q0 213 -132 213zM1137 1675q68 -33 73 -102q5 -65 -60 -124q-24 -19 -66 -47l-66 -44q-33 -23 -50 -41q-15 -16 -14 -30q2 -16 24 -44
q-63 -38 -113 -42q-37 -3 -62 19q-23 20 -25 41q-3 46 42 81l11 7l79 52l38 28q36 29 58 60t19 61q-4 50 -74 45q-65 -6 -87 -60q-17 -19 -46 -27q-64 28 -66 60q-4 50 79 88q66 30 153 38q98 7 153 -19zM1113 904q26 -66 26 -150q0 -296 -195 -532q-201 -242 -469 -242
q-170 0 -272 101q-103 103 -103 279q0 295 199 529q206 229 465 229q169 0 271 -97q14 -14 27 -29q54 47 54 128q0 48 -38 104q61 58 163 58q99 0 99 -87q0 -106 -115 -211q-52 -46 -112 -80z" />
    <glyph glyph-name="uni1EE1" unicode="&#x1ee1;" horiz-adv-x="1095" 
d="M702 967q-64 0 -123 -65q-53 -59 -95 -161q-83 -200 -83 -403q0 -209 136 -209q64 0 122 65q52 57 94 159q81 198 81 401q0 213 -132 213zM1315 1398q-61 -70 -145 -70q-70 0 -212 77q-124 70 -177 70h-12l-13 -3q-58 -17 -83 -118l-13 -32q-2 -2 -6 -2q-21 0 -40 15
q-21 17 -21 33l6 51q20 92 76 153q58 60 138 60q41 1 99 -21q42 -16 116 -54q133 -68 183 -68l21 3q62 16 85 123l10 29q2 1 5 1q7 0 21 -5q42 -20 42 -70q-15 -104 -80 -172zM1113 904q26 -66 26 -150q0 -296 -195 -532q-201 -242 -469 -242q-170 0 -272 101
q-103 103 -103 279q0 295 199 529q206 229 465 229q169 0 271 -97q14 -14 27 -29q54 47 54 128q0 48 -38 104q61 58 163 58q99 0 99 -87q0 -106 -115 -211q-52 -46 -112 -80z" />
    <glyph glyph-name="uni1EE3" unicode="&#x1ee3;" horiz-adv-x="1095" 
d="M702 967q-64 0 -123 -65q-53 -59 -95 -161q-83 -200 -83 -403q0 -209 136 -209q64 0 122 65q52 57 94 159q81 198 81 401q0 213 -132 213zM232 -314q0 27 4 52l8 40q1 4 3 9l2 8q3 9 4 15q4 16 4 28q86 43 153 43q127 0 127 -105q0 -46 -35 -135q-82 -49 -163 -49
q-107 0 -107 94zM1113 904q26 -66 26 -150q0 -296 -195 -532q-201 -242 -469 -242q-170 0 -272 101q-103 103 -103 279q0 295 199 529q206 229 465 229q169 0 271 -97q14 -14 27 -29q54 47 54 128q0 48 -38 104q61 58 163 58q99 0 99 -87q0 -106 -115 -211q-52 -46 -112 -80
z" />
    <glyph glyph-name="ygrave" unicode="&#x1ef3;" horiz-adv-x="1044" 
d="M-157 -311q0 55 37 133q37 -33 102 -33q91 0 186 69q85 63 160 171q19 26 19 94q0 24 -3 53l-5 49q-90 723 -203 811q126 76 231 76q120 0 144 -168q47 -322 71 -665q158 222 249 407q97 196 97 303q0 80 -47 131q37 6 76 6q215 0 215 -139q0 -96 -147 -345
q-146 -247 -391 -570q-213 -282 -373 -402q-136 -102 -260 -102q-138 0 -156 98q-2 6 -2 23zM923 1261q-30 -10 -56 -6q-185 37 -321 111q-136 73 -136 135q0 44 75 82q80 42 167 29l39 -58q23 -34 39 -57q47 -63 100 -106l112 -83q13 -12 13 -18q0 -17 -32 -29z" />
    <glyph glyph-name="glyph234" unicode="&#xfd;" horiz-adv-x="1044" 
d="M-157 -311q0 55 37 133q37 -33 102 -33q91 0 186 69q85 63 160 171q19 26 19 94q0 24 -3 53l-5 49q-90 723 -203 811q126 76 231 76q120 0 144 -168q47 -322 71 -665q158 222 249 407q97 196 97 303q0 80 -47 131q37 6 76 6q215 0 215 -139q0 -96 -147 -345
q-146 -247 -391 -570q-213 -282 -373 -402q-136 -102 -260 -102q-138 0 -156 98q-2 6 -2 23zM615 1261q29 -10 55 -6q195 35 349 121q127 61 127 125q0 105 -232 105q-68 -90 -132 -152q-78 -76 -183 -143q-15 -9 -15 -21q0 -17 31 -29z" />
    <glyph glyph-name="uni1EF7" unicode="&#x1ef7;" horiz-adv-x="1044" 
d="M-157 -311q0 55 37 133q37 -33 102 -33q91 0 186 69q85 63 160 171q19 26 19 94q0 24 -3 53l-5 49q-90 723 -203 811q126 76 231 76q120 0 144 -168q47 -322 71 -665q158 222 249 407q97 196 97 303q0 80 -47 131q37 6 76 6q215 0 215 -139q0 -96 -147 -345
q-146 -247 -391 -570q-213 -282 -373 -402q-136 -102 -260 -102q-138 0 -156 98q-2 6 -2 23zM1008 1675q67 -33 73 -102q5 -65 -60 -124q-24 -19 -66 -47l-67 -44q-32 -23 -50 -41q-14 -16 -13 -30q1 -16 24 -44q-64 -38 -113 -42q-37 -3 -62 19q-23 20 -25 41q-4 46 42 81
l11 7l79 52q19 14 37 28q37 29 58 60q22 31 20 61q-4 50 -74 45q-66 -6 -88 -60q-16 -19 -45 -27q-64 28 -66 60q-4 50 79 88q65 30 153 38q98 7 153 -19z" />
    <glyph glyph-name="uni1EF9" unicode="&#x1ef9;" horiz-adv-x="1044" 
d="M-157 -311q0 55 37 133q37 -33 102 -33q91 0 186 69q85 63 160 171q19 26 19 94q0 24 -3 53l-5 49q-90 723 -203 811q126 76 231 76q120 0 144 -168q47 -322 71 -665q158 222 249 407q97 196 97 303q0 80 -47 131q37 6 76 6q215 0 215 -139q0 -96 -147 -345
q-146 -247 -391 -570q-213 -282 -373 -402q-136 -102 -260 -102q-138 0 -156 98q-2 6 -2 23zM1136 1317q-61 -70 -145 -70q-70 0 -212 77q-125 70 -178 70h-11l-13 -3q-58 -17 -84 -118l-13 -32q-2 -2 -5 -2q-21 0 -40 15q-21 17 -21 33l6 51q20 92 75 153q58 60 138 60
q42 1 100 -21q42 -16 116 -54q133 -68 183 -68l21 3q61 16 85 123l9 29q2 1 6 1q7 0 21 -5q41 -20 41 -70q-14 -104 -79 -172z" />
    <glyph glyph-name="uni1EF5" unicode="&#x1ef5;" horiz-adv-x="1044" 
d="M-157 -311q0 55 37 133q37 -33 102 -33q91 0 186 69q85 63 160 171q19 26 19 94q0 24 -3 53l-5 49q-90 723 -203 811q126 76 231 76q120 0 144 -168q47 -322 71 -665q158 222 249 407q97 196 97 303q0 80 -47 131q37 6 76 6q215 0 215 -139q0 -96 -147 -345
q-146 -247 -391 -570q-213 -282 -373 -402q-136 -102 -260 -102q-138 0 -156 98q-2 6 -2 23zM484 -314q0 27 4 52l8 40q1 4 2 9l3 8q2 9 4 15q3 16 3 28q86 43 154 43q127 0 127 -105q0 -46 -35 -135q-83 -49 -164 -49q-106 0 -106 94z" />
    <glyph glyph-name="divide" unicode="&#xf7;" horiz-adv-x="1706" 
 />
    <glyph glyph-name="ugrave" horiz-adv-x="582" 
 />
    <glyph glyph-name="uacute" horiz-adv-x="580" 
 />
    <glyph glyph-name="yacute" horiz-adv-x="629" 
 />
    <glyph glyph-name="Ccaron" unicode="&#x10c;" horiz-adv-x="1274" 
 />
    <glyph glyph-name="ccaron" unicode="&#x10d;" horiz-adv-x="922" 
 />
    <glyph glyph-name="Dslash" unicode="&#x110;" 
d="M1317 1476q165 -140 165 -423q0 -213 -78 -415q-75 -193 -210 -345q-285 -324 -658 -324q-222 0 -399 133q-2 22 10 80l62 267l65 266h-68q-70 0 -104 -10q20 88 42 122q32 47 95 47l72 -2l43 192q22 100 33 165q6 31 6 49q0 33 -31 50t-31 36q0 87 47 156q105 39 228 62
q136 26 262 26q294 0 449 -132zM1026 422q149 255 149 575q0 428 -346 428q-68 0 -160 -20q15 -43 15 -94q0 -53 -23 -176q-18 -96 -55 -263h59q144 0 242 19q-20 -129 -82 -158q-30 -14 -85 -17q-23 -1 -58 -1h-113l-80 -350q-13 -56 -22 -99q25 -110 188 -110
q214 0 371 266z" />
    <glyph glyph-name="dcroat" unicode="&#x111;" horiz-adv-x="1185" 
d="M869 813q-24 135 -163 135q-121 0 -228 -213q-104 -208 -104 -432q6 -106 65 -106q85 0 248 270q100 162 182 346zM1234 1180l-28 -118q-16 -64 -37 -146l-65 -257q-31 -128 -45 -208q-18 -95 -18 -156q0 -28 8 -52q3 -9 7 -19l8 -15q31 6 100 72q94 102 123 102
q12 0 12 -18q0 -114 -126 -243q-127 -128 -236 -128q-184 0 -184 223q0 76 12 158q-121 -199 -251 -301q-119 -92 -230 -92q-207 0 -207 272q0 300 193 570q93 129 206 203q122 79 248 79q100 0 197 -53q16 64 27 121h-23q-159 0 -234 -19l12 56q8 38 16 61q15 40 64 55
q41 3 76 3l108 -2q1 21 1 40q0 57 -21 90q108 62 209 62q115 0 115 -115q0 -36 -6 -77q91 5 136 18q-20 -130 -94 -156q-33 -6 -73 -10z" />
    <glyph glyph-name="quoteleft" unicode="&#x2018;" horiz-adv-x="569" 
d="M792 1558q29 -19 29 -49q0 -6 -2 -14l-6 -12q-234 -41 -234 -228q0 -58 48 -127q-76 -71 -201 -71q-121 0 -121 106q0 132 141 260q67 59 142 100q92 50 159 50q22 0 45 -15z" />
    <glyph glyph-name="quoteright" unicode="&#x2019;" horiz-adv-x="569" 
d="M229 1072q-29 18 -29 48q0 7 3 14l5 13q234 41 234 227q0 59 -47 127q75 72 200 72q121 0 121 -107q0 -131 -141 -260q-66 -59 -142 -100q-92 -49 -159 -49q-22 0 -45 15z" />
    <glyph glyph-name="quotedblleft" unicode="&#x201c;" horiz-adv-x="1007" 
d="M1226 1558q29 -19 29 -49q0 -6 -2 -14l-6 -12q-233 -41 -233 -228q0 -58 47 -127q-76 -71 -201 -71q-121 0 -121 106q0 132 141 260q67 59 143 100q91 50 159 50q21 0 44 -15zM815 1483q-236 -41 -236 -228q0 -61 50 -127q-76 -71 -203 -71q-121 0 -121 106
q0 133 143 260q67 60 142 100q91 50 159 50q21 0 44 -15q30 -19 30 -49q0 -6 -2 -14z" />
    <glyph glyph-name="quotedblright" unicode="&#x201d;" horiz-adv-x="1007" 
d="M233 1072q-29 18 -29 48q0 7 3 14l5 13q234 41 234 227q0 59 -47 127q75 72 200 72q121 0 121 -107q0 -131 -141 -260q-66 -59 -142 -100q-92 -49 -159 -49q-22 0 -45 15zM644 1147q236 41 236 227q0 62 -49 127q75 72 202 72q121 0 121 -107q0 -132 -143 -260
q-67 -59 -141 -100q-91 -49 -160 -49q-21 0 -44 15q-30 19 -30 48q0 7 3 14z" />
    <glyph glyph-name="ellipsis" unicode="&#x2026;" horiz-adv-x="1861" 
d="M1535 -29q-120 0 -123 117l-1 40v5l1 94q71 37 133 43l33 2q54 0 90 -32q45 -39 45 -170q-61 -99 -178 -99zM914 -29q-119 0 -122 117l-2 72q0 20 1 39q1 16 3 28q71 38 131 43l35 2q53 -3 90 -32q45 -36 45 -170q-61 -99 -181 -99zM294 -29q-120 0 -123 117l-2 72
q0 20 1 39q1 16 3 28q71 38 131 43l33 2q56 -3 92 -32q45 -39 45 -170q-61 -99 -180 -99z" />
    </font>
</defs>
</svg>
